M48
INCH,TZ
FMAT,2
ICI,OFF
T01C.012F095S3
T02C.035F197S55
T03C.03937F197S55
T04C.043F139S55
T05C.05118F107S55
T06C.05315F107S55
T07C.06299F089S55
T08C.13F035S794
%
T01
G05
X2523Y13670
X2903Y15570
X4003Y12970
X3533Y13710
X2953Y13780
X4203Y16910
X3923Y17220
X5163Y13110
X6253Y13810
X5453Y14660
X5253Y18710
X8293Y20620
X7623Y21820
X8783Y12380
X8293Y23410
X7603Y27940
X8923Y15190
X10003Y11150
X9973Y13850
X9303Y14000
X9983Y15630
X9353Y17660
X9783Y25830
X10283Y27060
X9913Y28970
X11393Y8820
X10823Y13970
X10863Y15180
X11973Y7870
X11403Y15760
X10833Y16730
X10703Y17350
X10743Y19120
X11663Y22350
X12543Y6850
X12953Y5410
X13093Y5980
X13093Y22320
X12563Y22910
X12843Y23240
X12293Y25190
X12883Y28250
X13983Y4900
X15023Y5260
X14243Y8980
X13383Y11840
X15333Y12450
X14513Y15810
X15823Y15080
X15023Y16280
X15783Y21860
X14833Y23190
X15423Y24610
X17783Y3930
X17253Y12950
X17253Y15010
X16453Y17920
X16473Y19080
X17263Y20130
X18763Y4100
X18873Y9010
X18983Y16050
X18333Y17540
X18443Y24600
X18413Y26040
X18783Y28140
X18593Y28820
X18333Y31450
X19763Y3520
X20493Y17820
X20493Y19910
X19733Y20630
X20223Y21160
X20293Y24600
X19733Y27360
X21973Y14310
X21943Y16190
X21773Y20240
X21153Y27560
X24653Y3470
X23783Y4070
X24143Y5310
X24163Y10310
X23683Y11840
X24703Y11480
X23713Y12950
X24403Y16320
X23733Y17570
X24523Y25810
X25883Y3770
X25303Y4810
X25423Y12630
X25203Y13310
X25203Y16850
X26683Y12380
X26553Y17600
X25883Y19300
X25843Y25390
X26323Y26380
X25843Y27310
X27083Y31060
X27733Y13870
X28143Y4900
X28103Y12060
X28413Y12820
X29093Y13270
X28153Y14680
X27653Y14860
X27743Y17040
X27623Y17850
X27243Y18530
X28423Y17880
X27783Y23570
X28213Y25160
X28193Y26020
X29613Y3950
X29453Y13930
X29063Y18490
X28773Y19660
X28773Y26470
X30803Y13420
X30353Y13930
X30093Y17680
X29313Y18930
X29993Y21240
X29473Y21250
X29753Y23190
X29213Y23600
X29753Y24370
X29283Y26240
X29213Y27770
X30003Y29980
X31103Y4560
X31753Y4630
X31773Y8960
X31133Y14530
X31103Y15760
X30713Y15810
X31263Y16180
X30363Y16560
X31513Y18880
X31003Y19150
X31063Y20010
X30533Y22350
X30533Y23190
X31253Y27540
X31243Y29360
X31753Y29520
X32773Y12030
X32373Y14110
X32433Y17180
X32323Y19040
X32423Y19510
X33813Y10940
X33393Y12530
X33763Y14360
X33613Y15630
X33073Y17560
X32783Y18890
X32783Y19940
X33853Y16480
X33813Y17750
X32953Y22080
X32443Y27210
X32893Y29990
X34773Y5270
X34293Y10270
X34773Y11470
X34933Y11960
X34583Y12390
X34273Y17960
X34223Y18880
X33683Y21340
X34793Y19340
X34193Y21690
X34043Y22270
X33413Y22320
X34253Y23850
X33693Y25870
X34633Y27540
X34693Y29390
X35813Y10920
X35443Y11410
X35633Y12760
X35833Y13390
X35543Y13880
X35783Y18660
X34973Y20030
X35383Y20420
X35223Y22010
X34923Y26830
X34913Y27950
X36173Y14360
X36123Y17060
X36333Y20610
X36533Y21030
X36323Y24140
X36243Y25660
T02
X29031Y8940
X36905Y8940
T03
X3243Y10810
X3243Y11794
X3243Y16560
X3243Y17544
X3243Y21060
X3243Y22044
X6213Y10791
X6213Y9807
X6213Y8823
X6213Y7870
X6213Y6854
X6213Y5870
X6243Y26023
X6243Y26810
X6243Y27597
X11056Y2810
X10072Y2810
X12993Y2810
X12040Y2810
X11493Y17560
X11493Y18560
X14009Y2810
X14993Y2810
X14493Y17560
X14493Y18560
X18743Y2810
X17790Y2810
X20743Y2810
X19759Y2810
X19993Y30810
X20977Y30810
X26819Y2810
X27803Y2810
X31343Y2780
X30359Y2780
X34743Y2810
X33759Y2810
T04
X30243Y31060
X29243Y31060
X31243Y31060
X33243Y31060
X32243Y31060
X34243Y31060
X36483Y11740
X37483Y11740
X36483Y12740
X37483Y12740
X37483Y13740
X36483Y13740
T05
X6243Y25196
X6243Y28424
T06
X16102Y8998
X16102Y13722
X20906Y8998
X21693Y11360
X20906Y13722
T07
X13763Y29910
X15763Y29910
T08
X6743Y3538
X7530Y15743
X6743Y30310
X24163Y23860
X37058Y3538
X37058Y15743
X37058Y30310
M30
