*
%LPD*%
%LNNAIAD-RELAY-ST*%
%FSLAX25Y25*%
%MOIN*%
%AD*%
%AD*%
%ADD11C,0.007870079*%
%ADD16C,0.023620079*%
%ADD27C,0.009840157*%
%ADD37C,0.008*%
%ADD38C,0.012*%
%ADD40C,0.01*%
%ADD44C,0.006*%
%ADD100C,0.001*%
G54D100*
%SRX1Y1I0.0J0.0*%
G1X267377Y76967D2*
G1X263299Y76967D1*
G1X263299Y76486D1*
G1X266383Y76486D1*
G1X266410Y76394D1*
G1X263299Y74378D1*
G1X263299Y73817D1*
G1X267377Y73817D1*
G1X267377Y74297D1*
G1X264293Y74297D1*
G1X264266Y74389D1*
G1X267377Y76405D1*
G1X267377Y76967D1*
G1X267377Y81295D2*
G1X263299Y79652D1*
G1X263299Y79082D1*
G1X267377Y77439D1*
G1X267377Y77968D1*
G1X266133Y78420D1*
G1X266100Y78467D1*
G1X266100Y80267D1*
G1X266133Y80314D1*
G1X267377Y80766D1*
G1X267377Y81295D1*
G1X265736Y80092D2*
G1X265736Y78642D1*
G1X265668Y78595D1*
G1X264450Y79059D1*
G1X263695Y79349D1*
G1X263699Y79444D1*
G1X264103Y79560D1*
G1X264566Y79733D1*
G1X265669Y80139D1*
G1X265736Y80092D1*
G1X267377Y82422D2*
G1X263299Y82422D1*
G1X263299Y81942D1*
G1X267377Y81942D1*
G1X267377Y82422D1*
G1X267377Y86809D2*
G1X263299Y85166D1*
G1X263299Y84595D1*
G1X267377Y82952D1*
G1X267377Y83482D1*
G1X266133Y83934D1*
G1X266100Y83981D1*
G1X266100Y85780D1*
G1X266133Y85827D1*
G1X267377Y86279D1*
G1X267377Y86809D1*
G1X265736Y85606D2*
G1X265736Y84155D1*
G1X265668Y84108D1*
G1X264450Y84573D1*
G1X263695Y84863D1*
G1X263699Y84957D1*
G1X264103Y85073D1*
G1X264566Y85246D1*
G1X265669Y85653D1*
G1X265736Y85606D1*
G1X267377Y88854D2*
G1X267320Y89481D1*
G1X267095Y89988D1*
G1X266758Y90325D1*
G1X266478Y90493D1*
G1X266136Y90607D1*
G1X265737Y90721D1*
G1X265341Y90721D1*
G1X264824Y90664D1*
G1X264367Y90549D1*
G1X263971Y90380D1*
G1X263635Y90100D1*
G1X263468Y89821D1*
G1X263355Y89481D1*
G1X263299Y89199D1*
G1X263299Y87397D1*
G1X267377Y87397D1*
G1X267377Y88854D1*
G1X267013Y89146D2*
G1X267013Y87927D1*
G1X266963Y87877D1*
G1X263713Y87877D1*
G1X263663Y87927D1*
G1X263663Y89204D1*
G1X263666Y89223D1*
G1X263783Y89513D1*
G1X263789Y89524D1*
G1X263963Y89756D1*
G1X263972Y89765D1*
G1X264262Y89998D1*
G1X264274Y90004D1*
G1X264680Y90179D1*
G1X264695Y90182D1*
G1X265333Y90240D1*
G1X265338Y90241D1*
G1X265744Y90241D1*
G1X265758Y90239D1*
G1X266164Y90123D1*
G1X266169Y90121D1*
G1X266459Y90005D1*
G1X266471Y89999D1*
G1X266703Y89824D1*
G1X266714Y89812D1*
G1X266946Y89464D1*
G1X266954Y89446D1*
G1X267012Y89156D1*
G1X267013Y89146D1*
G1X267377Y96660D2*
G1X266295Y96011D1*
G1X266010Y95783D1*
G1X265781Y95555D1*
G1X265551Y95267D1*
G1X265464Y95286D1*
G1X265350Y95739D1*
G1X265071Y96074D1*
G1X264795Y96295D1*
G1X264410Y96350D1*
G1X264075Y96294D1*
G1X263796Y96182D1*
G1X263577Y96018D1*
G1X263412Y95744D1*
G1X263356Y95464D1*
G1X263299Y94947D1*
G1X263299Y93200D1*
G1X267377Y93200D1*
G1X267377Y93681D1*
G1X265570Y93681D1*
G1X265520Y93731D1*
G1X265520Y94659D1*
G1X265525Y94682D1*
G1X265641Y94914D1*
G1X265651Y94927D1*
G1X265767Y95043D1*
G1X265774Y95049D1*
G1X265947Y95165D1*
G1X266178Y95338D1*
G1X266181Y95339D1*
G1X266529Y95572D1*
G1X266531Y95573D1*
G1X267377Y96081D1*
G1X267377Y96660D1*
G1X265156Y95182D2*
G1X265156Y93731D1*
G1X265106Y93681D1*
G1X263713Y93681D1*
G1X263663Y93731D1*
G1X263663Y95008D1*
G1X263664Y95016D1*
G1X263722Y95364D1*
G1X263725Y95374D1*
G1X263841Y95665D1*
G1X263865Y95691D1*
G1X264097Y95807D1*
G1X264109Y95811D1*
G1X264400Y95869D1*
G1X264425Y95868D1*
G1X264773Y95751D1*
G1X264793Y95739D1*
G1X265083Y95449D1*
G1X265096Y95426D1*
G1X265154Y95194D1*
G1X265156Y95182D1*
G1X267377Y100413D2*
G1X267013Y100413D1*
G1X267013Y97909D1*
G1X266963Y97859D1*
G1X265512Y97859D1*
G1X265462Y97909D1*
G1X265462Y100123D1*
G1X265098Y100123D1*
G1X265098Y97909D1*
G1X265048Y97859D1*
G1X263713Y97859D1*
G1X263663Y97909D1*
G1X263663Y100297D1*
G1X263299Y100297D1*
G1X263299Y97379D1*
G1X267377Y97379D1*
G1X267377Y100413D1*
G1X267377Y103779D2*
G1X267013Y103779D1*
G1X267013Y101798D1*
G1X266963Y101748D1*
G1X263299Y101748D1*
G1X263299Y101267D1*
G1X267377Y101267D1*
G1X267377Y103779D1*
G1X267377Y107818D2*
G1X263299Y106175D1*
G1X263299Y105604D1*
G1X267377Y103961D1*
G1X267377Y104490D1*
G1X266133Y104943D1*
G1X266100Y104990D1*
G1X266100Y106789D1*
G1X266133Y106836D1*
G1X267377Y107288D1*
G1X267377Y107818D1*
G1X265736Y106615D2*
G1X265736Y105164D1*
G1X265668Y105117D1*
G1X264450Y105581D1*
G1X263695Y105872D1*
G1X263699Y105966D1*
G1X264103Y106082D1*
G1X264566Y106255D1*
G1X265669Y106662D1*
G1X265736Y106615D1*
G1X267377Y110047D2*
G1X265686Y110047D1*
G1X265658Y110055D1*
G1X263299Y111628D1*
G1X263299Y111053D1*
G1X264493Y110314D1*
G1X264898Y110082D1*
G1X264904Y110079D1*
G1X265136Y109905D1*
G1X265137Y109826D1*
G1X264557Y109361D1*
G1X264552Y109358D1*
G1X263299Y108561D1*
G1X263299Y107985D1*
G1X265658Y109558D1*
G1X265686Y109567D1*
G1X267377Y109567D1*
G1X267377Y110047D1*
G1X267377Y115052D2*
G1X264459Y116062D1*
G1X264459Y115589D1*
G1X266281Y115020D1*
G1X266285Y115018D1*
G1X266571Y114904D1*
G1X266857Y114847D1*
G1X266864Y114751D1*
G1X266226Y114519D1*
G1X266224Y114518D1*
G1X264459Y113949D1*
G1X264459Y113476D1*
G1X267377Y114543D1*
G1X267377Y115052D1*
G1X267377Y118346D2*
G1X263299Y118346D1*
G1X263299Y118076D1*
G1X263565Y117917D1*
G1X263574Y117909D1*
G1X263864Y117619D1*
G1X263871Y117611D1*
G1X264103Y117263D1*
G1X264105Y117260D1*
G1X264322Y116879D1*
G1X264735Y116879D1*
G1X264483Y117383D1*
G1X264137Y117844D1*
G1X264177Y117924D1*
G1X267377Y117924D1*
G1X267377Y118346D1*
G1X267377Y120435D2*
G1X266955Y120435D1*
G1X266955Y120013D1*
G1X267377Y120013D1*
G1X267377Y120435D1*
G1X267434Y122693D2*
G1X267379Y123082D1*
G1X267213Y123413D1*
G1X266937Y123634D1*
G1X266541Y123804D1*
G1X266027Y123918D1*
G1X265394Y123975D1*
G1X264823Y123975D1*
G1X264425Y123862D1*
G1X263795Y123633D1*
G1X263575Y123467D1*
G1X263412Y123250D1*
G1X263299Y122689D1*
G1X263355Y122300D1*
G1X263521Y121968D1*
G1X263797Y121747D1*
G1X264193Y121578D1*
G1X264707Y121463D1*
G1X265398Y121406D1*
G1X265912Y121406D1*
G1X266370Y121520D1*
G1X266769Y121634D1*
G1X267044Y121800D1*
G1X267323Y122189D1*
G1X267434Y122693D1*
G1X267070Y122681D2*
G1X267012Y122391D1*
G1X267002Y122369D1*
G1X266770Y122079D1*
G1X266753Y122066D1*
G1X266521Y121950D1*
G1X266508Y121945D1*
G1X266218Y121887D1*
G1X266217Y121887D1*
G1X265868Y121829D1*
G1X265860Y121828D1*
G1X264932Y121828D1*
G1X264925Y121829D1*
G1X264518Y121887D1*
G1X264516Y121887D1*
G1X264225Y121945D1*
G1X264213Y121950D1*
G1X263981Y122066D1*
G1X263964Y122079D1*
G1X263732Y122369D1*
G1X263722Y122391D1*
G1X263664Y122681D1*
G1X263663Y122691D1*
G1X263664Y122699D1*
G1X263722Y123047D1*
G1X263740Y123078D1*
G1X264030Y123310D1*
G1X264033Y123313D1*
G1X264207Y123429D1*
G1X264225Y123436D1*
G1X264516Y123494D1*
G1X264518Y123495D1*
G1X264925Y123553D1*
G1X264932Y123553D1*
G1X265860Y123553D1*
G1X265868Y123552D1*
G1X266217Y123494D1*
G1X266218Y123494D1*
G1X266508Y123436D1*
G1X266521Y123432D1*
G1X266753Y123316D1*
G1X266770Y123302D1*
G1X267002Y123012D1*
G1X267012Y122991D1*
G1X267070Y122700D1*
G1X267070Y122681D1*
G1X267435Y125533D2*
G1X267321Y126098D1*
G1X267211Y126320D1*
G1X266982Y126606D1*
G1X267001Y126683D1*
G1X267377Y126844D1*
G1X267377Y127267D1*
G1X267039Y127171D1*
G1X266927Y127115D1*
G1X266905Y127109D1*
G1X265060Y127109D1*
G1X264729Y126944D1*
G1X264569Y126784D1*
G1X264515Y126621D1*
G1X264514Y126619D1*
G1X264401Y126337D1*
G1X264401Y126003D1*
G1X264516Y125316D1*
G1X264626Y125040D1*
G1X264787Y124879D1*
G1X265010Y124768D1*
G1X265237Y124677D1*
G1X265284Y125099D1*
G1X265083Y125200D1*
G1X265078Y125203D1*
G1X264904Y125319D1*
G1X264883Y125348D1*
G1X264825Y125580D1*
G1X264825Y125583D1*
G1X264767Y125873D1*
G1X264766Y125883D1*
G1X264766Y125891D1*
G1X264824Y126239D1*
G1X264829Y126253D1*
G1X264945Y126485D1*
G1X264974Y126510D1*
G1X265148Y126568D1*
G1X265152Y126570D1*
G1X265384Y126628D1*
G1X265396Y126629D1*
G1X265512Y126629D1*
G1X265559Y126595D1*
G1X265676Y126247D1*
G1X265678Y126236D1*
G1X265736Y125716D1*
G1X265793Y125428D1*
G1X265794Y125418D1*
G1X265794Y125256D1*
G1X265958Y124928D1*
G1X266232Y124709D1*
G1X266618Y124599D1*
G1X266945Y124654D1*
G1X267215Y124815D1*
G1X267379Y125143D1*
G1X267435Y125533D1*
G1X267071Y125941D2*
G1X267071Y125418D1*
G1X267063Y125391D1*
G1X266946Y125216D1*
G1X266940Y125209D1*
G1X266824Y125093D1*
G1X266805Y125081D1*
G1X266631Y125023D1*
G1X266603Y125022D1*
G1X266370Y125080D1*
G1X266338Y125106D1*
G1X266222Y125338D1*
G1X266219Y125344D1*
G1X266161Y125519D1*
G1X266160Y125522D1*
G1X266102Y125754D1*
G1X266101Y125760D1*
G1X266043Y126220D1*
G1X265929Y126563D1*
G1X265976Y126629D1*
G1X266383Y126629D1*
G1X266398Y126626D1*
G1X266572Y126568D1*
G1X266587Y126561D1*
G1X266819Y126387D1*
G1X266830Y126375D1*
G1X266946Y126201D1*
G1X266950Y126195D1*
G1X267066Y125963D1*
G1X267071Y125941D1*
G1X260077Y77118D2*
G1X259950Y77182D1*
G1X259888Y77119D1*
G1X259803Y76950D1*
G1X259803Y76588D1*
G1X259753Y76538D1*
G1X255080Y76538D1*
G1X255030Y76588D1*
G1X255030Y76931D1*
G1X254903Y76995D1*
G1X254841Y76932D1*
G1X254757Y76763D1*
G1X254757Y75852D1*
G1X254841Y75683D1*
G1X254903Y75621D1*
G1X255030Y75685D1*
G1X255030Y76214D1*
G1X255080Y76264D1*
G1X257137Y76264D1*
G1X257187Y76214D1*
G1X257187Y73598D1*
G1X257137Y73548D1*
G1X255080Y73548D1*
G1X255030Y73598D1*
G1X255030Y74127D1*
G1X254903Y74191D1*
G1X254841Y74129D1*
G1X254757Y73960D1*
G1X254757Y73049D1*
G1X254841Y72880D1*
G1X254903Y72817D1*
G1X255030Y72881D1*
G1X255030Y73224D1*
G1X255080Y73274D1*
G1X259753Y73274D1*
G1X259803Y73224D1*
G1X259803Y72862D1*
G1X259888Y72693D1*
G1X259950Y72630D1*
G1X260077Y72694D1*
G1X260077Y74127D1*
G1X259950Y74191D1*
G1X259888Y74129D1*
G1X259803Y73960D1*
G1X259803Y73598D1*
G1X259753Y73548D1*
G1X257510Y73548D1*
G1X257460Y73598D1*
G1X257460Y76214D1*
G1X257510Y76264D1*
G1X259753Y76264D1*
G1X259803Y76214D1*
G1X259803Y75852D1*
G1X259888Y75683D1*
G1X259950Y75621D1*
G1X260077Y75685D1*
G1X260077Y77118D1*
G1X260077Y83099D2*
G1X259950Y83163D1*
G1X259888Y83101D1*
G1X259803Y82932D1*
G1X259803Y82756D1*
G1X259770Y82709D1*
G1X254757Y80945D1*
G1X254757Y78843D1*
G1X254841Y78674D1*
G1X254903Y78612D1*
G1X255030Y78675D1*
G1X255030Y79953D1*
G1X255097Y80000D1*
G1X259770Y78318D1*
G1X259803Y78270D1*
G1X259803Y78002D1*
G1X259888Y77833D1*
G1X259950Y77771D1*
G1X260077Y77834D1*
G1X260077Y79455D1*
G1X259950Y79518D1*
G1X259888Y79456D1*
G1X259803Y79287D1*
G1X259803Y78644D1*
G1X259736Y78598D1*
G1X258240Y79158D1*
G1X258208Y79205D1*
G1X258208Y81822D1*
G1X258240Y81869D1*
G1X259736Y82429D1*
G1X259803Y82383D1*
G1X259803Y81647D1*
G1X259888Y81478D1*
G1X259950Y81415D1*
G1X260077Y81479D1*
G1X260077Y83099D1*
G1X257934Y81728D2*
G1X257934Y79299D1*
G1X257867Y79252D1*
G1X255063Y80280D1*
G1X255030Y80327D1*
G1X255030Y80700D1*
G1X255063Y80747D1*
G1X257867Y81775D1*
G1X257934Y81728D1*
G1X260171Y86859D2*
G1X259989Y87314D1*
G1X259714Y87772D1*
G1X259172Y88314D1*
G1X259120Y88314D1*
G1X258973Y88167D1*
G1X259047Y88020D1*
G1X259415Y87652D1*
G1X259420Y87646D1*
G1X259700Y87272D1*
G1X259706Y87261D1*
G1X259893Y86794D1*
G1X259897Y86775D1*
G1X259897Y86308D1*
G1X259895Y86296D1*
G1X259708Y85548D1*
G1X259701Y85531D1*
G1X259233Y84877D1*
G1X259222Y84865D1*
G1X258567Y84398D1*
G1X258549Y84390D1*
G1X257708Y84203D1*
G1X257697Y84202D1*
G1X257043Y84202D1*
G1X257036Y84202D1*
G1X256382Y84296D1*
G1X256361Y84304D1*
G1X255520Y84864D1*
G1X255509Y84875D1*
G1X255135Y85342D1*
G1X255125Y85361D1*
G1X255032Y85735D1*
G1X255031Y85737D1*
G1X254938Y86205D1*
G1X254937Y86214D1*
G1X254938Y86223D1*
G1X255031Y86783D1*
G1X255035Y86795D1*
G1X255315Y87449D1*
G1X255331Y87469D1*
G1X255705Y87750D1*
G1X255723Y87758D1*
G1X256091Y87850D1*
G1X256245Y87928D1*
G1X256245Y87969D1*
G1X256172Y88042D1*
G1X256003Y88127D1*
G1X254999Y88127D1*
G1X254830Y88042D1*
G1X254777Y87990D1*
G1X254830Y87938D1*
G1X254999Y87853D1*
G1X255267Y87853D1*
G1X255310Y87777D1*
G1X254847Y87037D1*
G1X254664Y86120D1*
G1X254755Y85572D1*
G1X254937Y85026D1*
G1X255394Y84569D1*
G1X255852Y84203D1*
G1X256400Y84020D1*
G1X257047Y83928D1*
G1X257788Y83928D1*
G1X258520Y84020D1*
G1X258790Y84199D1*
G1X259530Y84754D1*
G1X259711Y85026D1*
G1X259986Y85485D1*
G1X260171Y86406D1*
G1X260171Y86859D1*
G1X260077Y94221D2*
G1X259950Y94284D1*
G1X259888Y94222D1*
G1X259803Y94053D1*
G1X259803Y93598D1*
G1X259772Y93551D1*
G1X258837Y93177D1*
G1X258835Y93176D1*
G1X258558Y93084D1*
G1X258379Y92994D1*
G1X257915Y92624D1*
G1X257914Y92623D1*
G1X257548Y92348D1*
G1X257085Y91608D1*
G1X257005Y91602D1*
G1X255043Y93845D1*
G1X255030Y93878D1*
G1X255030Y94127D1*
G1X254903Y94191D1*
G1X254841Y94129D1*
G1X254757Y93960D1*
G1X254757Y92955D1*
G1X254841Y92786D1*
G1X254903Y92724D1*
G1X255030Y92787D1*
G1X255030Y93317D1*
G1X255118Y93350D1*
G1X257548Y90546D1*
G1X257510Y90463D1*
G1X255080Y90463D1*
G1X255030Y90513D1*
G1X255030Y91324D1*
G1X254903Y91387D1*
G1X254841Y91325D1*
G1X254757Y91156D1*
G1X254757Y89778D1*
G1X254841Y89609D1*
G1X254903Y89546D1*
G1X255030Y89610D1*
G1X255030Y90140D1*
G1X255080Y90190D1*
G1X259753Y90190D1*
G1X259803Y90140D1*
G1X259803Y89778D1*
G1X259888Y89609D1*
G1X259950Y89546D1*
G1X260077Y89610D1*
G1X260077Y91324D1*
G1X259950Y91387D1*
G1X259888Y91325D1*
G1X259803Y91156D1*
G1X259803Y90513D1*
G1X259753Y90463D1*
G1X257978Y90463D1*
G1X257940Y90481D1*
G1X257286Y91228D1*
G1X257279Y91284D1*
G1X257559Y91844D1*
G1X257565Y91853D1*
G1X257939Y92320D1*
G1X257948Y92329D1*
G1X258321Y92610D1*
G1X258333Y92616D1*
G1X258798Y92802D1*
G1X260077Y93442D1*
G1X260077Y94221D1*
G1X260077Y99435D2*
G1X258644Y99435D1*
G1X258475Y99351D1*
G1X258422Y99299D1*
G1X258475Y99246D1*
G1X258644Y99162D1*
G1X259753Y99162D1*
G1X259803Y99112D1*
G1X259803Y96121D1*
G1X259753Y96071D1*
G1X257510Y96071D1*
G1X257460Y96121D1*
G1X257460Y97429D1*
G1X257510Y97479D1*
G1X257872Y97479D1*
G1X258042Y97564D1*
G1X258094Y97616D1*
G1X258042Y97669D1*
G1X257872Y97753D1*
G1X256775Y97753D1*
G1X256605Y97669D1*
G1X256553Y97616D1*
G1X256605Y97564D1*
G1X256775Y97479D1*
G1X257137Y97479D1*
G1X257187Y97429D1*
G1X257187Y96121D1*
G1X257137Y96071D1*
G1X255080Y96071D1*
G1X255030Y96121D1*
G1X255030Y98925D1*
G1X255080Y98975D1*
G1X256003Y98975D1*
G1X256172Y99059D1*
G1X256225Y99112D1*
G1X256172Y99164D1*
G1X256003Y99249D1*
G1X254757Y99249D1*
G1X254757Y95385D1*
G1X254841Y95216D1*
G1X254903Y95154D1*
G1X255030Y95217D1*
G1X255030Y95747D1*
G1X255080Y95797D1*
G1X259753Y95797D1*
G1X259803Y95747D1*
G1X259803Y95385D1*
G1X259888Y95216D1*
G1X259950Y95154D1*
G1X260077Y95217D1*
G1X260077Y99435D1*
G1X260077Y105436D2*
G1X259950Y105499D1*
G1X259803Y105353D1*
G1X259803Y105093D1*
G1X259779Y105050D1*
G1X258846Y104490D1*
G1X258290Y104119D1*
G1X257639Y103469D1*
G1X257559Y103482D1*
G1X257280Y104041D1*
G1X257009Y104492D1*
G1X256560Y104671D1*
G1X256200Y104762D1*
G1X255662Y104672D1*
G1X255211Y104311D1*
G1X254848Y103766D1*
G1X254757Y103220D1*
G1X254757Y100993D1*
G1X254841Y100823D1*
G1X254903Y100761D1*
G1X255030Y100825D1*
G1X255030Y101355D1*
G1X255080Y101405D1*
G1X259753Y101405D1*
G1X259803Y101355D1*
G1X259803Y100993D1*
G1X259888Y100823D1*
G1X259950Y100761D1*
G1X260077Y100825D1*
G1X260077Y102539D1*
G1X259950Y102602D1*
G1X259888Y102540D1*
G1X259803Y102371D1*
G1X259803Y101728D1*
G1X259753Y101678D1*
G1X257697Y101678D1*
G1X257647Y101728D1*
G1X257647Y102943D1*
G1X257654Y102969D1*
G1X257935Y103436D1*
G1X257942Y103446D1*
G1X258597Y104100D1*
G1X258613Y104111D1*
G1X259077Y104297D1*
G1X259540Y104574D1*
G1X260077Y104933D1*
G1X260077Y105436D1*
G1X257373Y103224D2*
G1X257373Y101728D1*
G1X257323Y101678D1*
G1X255080Y101678D1*
G1X255030Y101728D1*
G1X255030Y103130D1*
G1X255031Y103140D1*
G1X255125Y103607D1*
G1X255131Y103623D1*
G1X255411Y104091D1*
G1X255424Y104105D1*
G1X255798Y104385D1*
G1X255816Y104394D1*
G1X256190Y104487D1*
G1X256202Y104489D1*
G1X256482Y104489D1*
G1X256518Y104474D1*
G1X256701Y104291D1*
G1X256977Y104106D1*
G1X256994Y104087D1*
G1X257181Y103713D1*
G1X257183Y103710D1*
G1X257370Y103242D1*
G1X257373Y103224D1*
G1X260077Y109174D2*
G1X259950Y109238D1*
G1X259888Y109175D1*
G1X259803Y109006D1*
G1X259803Y107710D1*
G1X259753Y107660D1*
G1X257510Y107660D1*
G1X257460Y107710D1*
G1X257460Y109018D1*
G1X257510Y109068D1*
G1X257872Y109068D1*
G1X258042Y109153D1*
G1X258094Y109205D1*
G1X258042Y109257D1*
G1X257872Y109342D1*
G1X256775Y109342D1*
G1X256605Y109257D1*
G1X256553Y109205D1*
G1X256605Y109153D1*
G1X256775Y109068D1*
G1X257137Y109068D1*
G1X257187Y109018D1*
G1X257187Y107710D1*
G1X257137Y107660D1*
G1X255080Y107660D1*
G1X255030Y107710D1*
G1X255030Y110700D1*
G1X255080Y110750D1*
G1X256003Y110750D1*
G1X256172Y110835D1*
G1X256225Y110887D1*
G1X256172Y110940D1*
G1X256003Y111024D1*
G1X254757Y111024D1*
G1X254757Y106974D1*
G1X254841Y106805D1*
G1X254903Y106743D1*
G1X255030Y106806D1*
G1X255030Y107336D1*
G1X255080Y107386D1*
G1X259753Y107386D1*
G1X259803Y107336D1*
G1X259803Y106974D1*
G1X259888Y106805D1*
G1X259950Y106743D1*
G1X260077Y106806D1*
G1X260077Y109174D1*
G1X260077Y116744D2*
G1X259950Y116808D1*
G1X259888Y116746D1*
G1X259803Y116576D1*
G1X259803Y116401D1*
G1X259770Y116354D1*
G1X254757Y114590D1*
G1X254757Y112488D1*
G1X254841Y112319D1*
G1X254903Y112257D1*
G1X255030Y112320D1*
G1X255030Y113598D1*
G1X255097Y113645D1*
G1X259770Y111962D1*
G1X259803Y111915D1*
G1X259803Y111647D1*
G1X259888Y111478D1*
G1X259950Y111415D1*
G1X260077Y111479D1*
G1X260077Y113099D1*
G1X259950Y113163D1*
G1X259888Y113101D1*
G1X259803Y112932D1*
G1X259803Y112289D1*
G1X259736Y112242D1*
G1X258240Y112803D1*
G1X258208Y112850D1*
G1X258208Y115467D1*
G1X258240Y115514D1*
G1X259736Y116074D1*
G1X259803Y116028D1*
G1X259803Y115292D1*
G1X259888Y115123D1*
G1X259950Y115060D1*
G1X260077Y115124D1*
G1X260077Y116744D1*
G1X257934Y115373D2*
G1X257934Y112943D1*
G1X257867Y112896D1*
G1X255063Y113924D1*
G1X255030Y113971D1*
G1X255030Y114345D1*
G1X255063Y114392D1*
G1X257867Y115420D1*
G1X257934Y115373D1*
G1X260077Y122258D2*
G1X259950Y122322D1*
G1X259803Y122175D1*
G1X259803Y121915D1*
G1X259779Y121872D1*
G1X258846Y121312D1*
G1X258290Y120942D1*
G1X257639Y120291D1*
G1X257559Y120304D1*
G1X257280Y120863D1*
G1X257009Y121314D1*
G1X256560Y121494D1*
G1X256200Y121584D1*
G1X255662Y121494D1*
G1X255211Y121133D1*
G1X254848Y120588D1*
G1X254757Y120042D1*
G1X254757Y117815D1*
G1X254841Y117646D1*
G1X254903Y117584D1*
G1X255030Y117647D1*
G1X255030Y118177D1*
G1X255080Y118227D1*
G1X259753Y118227D1*
G1X259803Y118177D1*
G1X259803Y117815D1*
G1X259888Y117646D1*
G1X259950Y117584D1*
G1X260077Y117647D1*
G1X260077Y119361D1*
G1X259950Y119425D1*
G1X259888Y119362D1*
G1X259803Y119193D1*
G1X259803Y118551D1*
G1X259753Y118501D1*
G1X257697Y118501D1*
G1X257647Y118551D1*
G1X257647Y119766D1*
G1X257654Y119792D1*
G1X257935Y120259D1*
G1X257942Y120268D1*
G1X258597Y120923D1*
G1X258613Y120934D1*
G1X259077Y121119D1*
G1X259540Y121397D1*
G1X260077Y121755D1*
G1X260077Y122258D1*
G1X257373Y120046D2*
G1X257373Y118551D1*
G1X257323Y118501D1*
G1X255080Y118501D1*
G1X255030Y118551D1*
G1X255030Y119953D1*
G1X255031Y119963D1*
G1X255125Y120430D1*
G1X255131Y120446D1*
G1X255411Y120913D1*
G1X255424Y120927D1*
G1X255798Y121208D1*
G1X255816Y121216D1*
G1X256190Y121310D1*
G1X256202Y121311D1*
G1X256482Y121311D1*
G1X256518Y121297D1*
G1X256701Y121113D1*
G1X256977Y120929D1*
G1X256994Y120910D1*
G1X257181Y120536D1*
G1X257183Y120532D1*
G1X257370Y120065D1*
G1X257373Y120046D1*
G1X260077Y127772D2*
G1X259950Y127836D1*
G1X259888Y127774D1*
G1X259803Y127604D1*
G1X259803Y127429D1*
G1X259753Y127379D1*
G1X255080Y127379D1*
G1X255030Y127429D1*
G1X255030Y127772D1*
G1X254903Y127836D1*
G1X254841Y127774D1*
G1X254757Y127604D1*
G1X254757Y126717D1*
G1X258088Y125514D1*
G1X258091Y125421D1*
G1X254757Y123939D1*
G1X254757Y123049D1*
G1X254841Y122880D1*
G1X254903Y122817D1*
G1X255030Y122881D1*
G1X255030Y123224D1*
G1X255080Y123274D1*
G1X259753Y123274D1*
G1X259803Y123224D1*
G1X259803Y123049D1*
G1X259888Y122880D1*
G1X259950Y122817D1*
G1X260077Y122881D1*
G1X260077Y124408D1*
G1X259950Y124471D1*
G1X259888Y124409D1*
G1X259803Y124240D1*
G1X259803Y123598D1*
G1X259753Y123548D1*
G1X255080Y123548D1*
G1X255030Y123598D1*
G1X255030Y123691D1*
G1X255060Y123737D1*
G1X258395Y125219D1*
G1X258395Y125619D1*
G1X255062Y126915D1*
G1X255030Y126962D1*
G1X255030Y127056D1*
G1X255080Y127106D1*
G1X259753Y127106D1*
G1X259803Y127056D1*
G1X259803Y126413D1*
G1X259888Y126244D1*
G1X259950Y126182D1*
G1X260077Y126245D1*
G1X260077Y127772D1*
G1X250077Y61352D2*
G1X247227Y61352D1*
G1X247177Y61402D1*
G1X247177Y68252D1*
G1X245977Y68252D1*
G1X245977Y61402D1*
G1X245927Y61352D1*
G1X244827Y61352D1*
G1X244815Y61354D1*
G1X244415Y61454D1*
G1X244378Y61492D1*
G1X244278Y61992D1*
G1X244277Y62002D1*
G1X244277Y68252D1*
G1X243077Y68252D1*
G1X243077Y62005D1*
G1X243175Y61220D1*
G1X243563Y60638D1*
G1X244145Y60250D1*
G1X244831Y60152D1*
G1X250077Y60152D1*
G1X250077Y61352D1*
G1X250077Y77752D2*
G1X249231Y77752D1*
G1X248540Y77654D1*
G1X248063Y77463D1*
G1X247774Y76885D1*
G1X247677Y76496D1*
G1X247677Y72902D1*
G1X247676Y72890D1*
G1X247576Y72490D1*
G1X247539Y72454D1*
G1X247139Y72354D1*
G1X247115Y72354D1*
G1X246715Y72454D1*
G1X246679Y72490D1*
G1X246579Y72890D1*
G1X246577Y72902D1*
G1X246577Y76000D1*
G1X246479Y76886D1*
G1X246189Y77369D1*
G1X245707Y77754D1*
G1X244924Y77852D1*
G1X244631Y77852D1*
G1X243948Y77755D1*
G1X243465Y77369D1*
G1X243176Y76886D1*
G1X243077Y76000D1*
G1X243077Y69152D1*
G1X250077Y69152D1*
G1X250077Y70352D1*
G1X244327Y70352D1*
G1X244277Y70402D1*
G1X244277Y76002D1*
G1X244279Y76014D1*
G1X244379Y76414D1*
G1X244415Y76451D1*
G1X244815Y76551D1*
G1X244839Y76551D1*
G1X245239Y76451D1*
G1X245276Y76414D1*
G1X245376Y76014D1*
G1X245377Y76002D1*
G1X245377Y72705D1*
G1X245476Y71919D1*
G1X245764Y71439D1*
G1X246244Y71150D1*
G1X246931Y71052D1*
G1X247224Y71052D1*
G1X247912Y71151D1*
G1X248492Y71440D1*
G1X248779Y71919D1*
G1X248877Y72705D1*
G1X248877Y76002D1*
G1X248879Y76014D1*
G1X248979Y76414D1*
G1X249015Y76451D1*
G1X249415Y76551D1*
G1X249427Y76552D1*
G1X250077Y76552D1*
G1X250077Y77752D1*
G1X250077Y86852D2*
G1X248877Y86852D1*
G1X248877Y80202D1*
G1X248863Y80167D1*
G1X248663Y79967D1*
G1X248627Y79952D1*
G1X247027Y79952D1*
G1X246977Y80002D1*
G1X246977Y86852D1*
G1X245777Y86852D1*
G1X245777Y80002D1*
G1X245727Y79952D1*
G1X244827Y79952D1*
G1X244815Y79954D1*
G1X244415Y80054D1*
G1X244379Y80090D1*
G1X244279Y80490D1*
G1X244277Y80502D1*
G1X244277Y86852D1*
G1X243077Y86852D1*
G1X243077Y80505D1*
G1X243175Y79720D1*
G1X243563Y79139D1*
G1X244047Y78849D1*
G1X244833Y78652D1*
G1X248321Y78652D1*
G1X249110Y78849D1*
G1X249690Y79140D1*
G1X249979Y79717D1*
G1X250077Y80505D1*
G1X250077Y86852D1*
G1X250077Y96138D2*
G1X244942Y94854D1*
G1X244153Y94558D1*
G1X243565Y94068D1*
G1X243175Y93484D1*
G1X243077Y92799D1*
G1X243077Y90706D1*
G1X243175Y90021D1*
G1X243563Y89438D1*
G1X244150Y89047D1*
G1X244942Y88750D1*
G1X250077Y87466D1*
G1X250077Y88763D1*
G1X244915Y90054D1*
G1X244901Y90059D1*
G1X244401Y90359D1*
G1X244379Y90390D1*
G1X244279Y90790D1*
G1X244277Y90802D1*
G1X244277Y92702D1*
G1X244278Y92712D1*
G1X244378Y93212D1*
G1X244409Y93249D1*
G1X244909Y93449D1*
G1X244913Y93450D1*
G1X245913Y93750D1*
G1X245977Y93702D1*
G1X245977Y90442D1*
G1X247177Y90165D1*
G1X247177Y94102D1*
G1X247215Y94151D1*
G1X250077Y94842D1*
G1X250077Y96138D1*
G1X250077Y105452D2*
G1X248331Y105452D1*
G1X247736Y105353D1*
G1X247252Y105256D1*
G1X246865Y104869D1*
G1X246567Y104472D1*
G1X246482Y104480D1*
G1X246288Y104869D1*
G1X245902Y105158D1*
G1X245418Y105352D1*
G1X243077Y105352D1*
G1X243077Y104152D1*
G1X245227Y104152D1*
G1X245250Y104147D1*
G1X245650Y103947D1*
G1X245663Y103938D1*
G1X245963Y103638D1*
G1X245977Y103602D1*
G1X245977Y98202D1*
G1X245927Y98152D1*
G1X243077Y98152D1*
G1X243077Y96952D1*
G1X250077Y96952D1*
G1X250077Y98152D1*
G1X247227Y98152D1*
G1X247177Y98202D1*
G1X247177Y103002D1*
G1X247178Y103010D1*
G1X247278Y103610D1*
G1X247286Y103630D1*
G1X247486Y103930D1*
G1X247505Y103947D1*
G1X247905Y104147D1*
G1X247919Y104152D1*
G1X248519Y104252D1*
G1X248527Y104252D1*
G1X250077Y104252D1*
G1X250077Y105452D1*
G1X250077Y113652D2*
G1X248877Y113652D1*
G1X248877Y108402D1*
G1X248876Y108392D1*
G1X248776Y107892D1*
G1X248746Y107856D1*
G1X248246Y107656D1*
G1X248227Y107652D1*
G1X243077Y107652D1*
G1X243077Y106452D1*
G1X248224Y106452D1*
G1X249009Y106550D1*
G1X249591Y106938D1*
G1X249979Y107520D1*
G1X250077Y108405D1*
G1X250077Y113652D1*
G1X250077Y122838D2*
G1X244942Y121554D1*
G1X244153Y121258D1*
G1X243565Y120768D1*
G1X243175Y120184D1*
G1X243077Y119499D1*
G1X243077Y117406D1*
G1X243175Y116721D1*
G1X243563Y116138D1*
G1X244150Y115747D1*
G1X244942Y115450D1*
G1X250077Y114166D1*
G1X250077Y115463D1*
G1X244915Y116754D1*
G1X244901Y116759D1*
G1X244401Y117059D1*
G1X244379Y117090D1*
G1X244279Y117490D1*
G1X244277Y117502D1*
G1X244277Y119402D1*
G1X244278Y119412D1*
G1X244378Y119912D1*
G1X244409Y119949D1*
G1X244909Y120149D1*
G1X244913Y120150D1*
G1X245913Y120450D1*
G1X245977Y120402D1*
G1X245977Y117142D1*
G1X247177Y116865D1*
G1X247177Y120802D1*
G1X247215Y120851D1*
G1X250077Y121542D1*
G1X250077Y122838D1*
G1X250077Y130599D2*
G1X249979Y131285D1*
G1X249689Y131768D1*
G1X249307Y132055D1*
G1X248723Y132152D1*
G1X248231Y132152D1*
G1X247645Y132055D1*
G1X247167Y131768D1*
G1X246976Y131289D1*
G1X246877Y130599D1*
G1X246877Y126902D1*
G1X246827Y126852D1*
G1X246427Y126852D1*
G1X246382Y126880D1*
G1X246282Y127080D1*
G1X246277Y127102D1*
G1X246277Y130599D1*
G1X246179Y131289D1*
G1X245987Y131768D1*
G1X245510Y132055D1*
G1X244923Y132152D1*
G1X244431Y132152D1*
G1X243847Y132055D1*
G1X243465Y131768D1*
G1X243175Y131285D1*
G1X243077Y130599D1*
G1X243077Y123652D1*
G1X250077Y123652D1*
G1X250077Y130599D1*
G1X248877Y130802D2*
G1X248877Y124902D1*
G1X248827Y124852D1*
G1X244327Y124852D1*
G1X244277Y124902D1*
G1X244277Y130802D1*
G1X244305Y130847D1*
G1X244505Y130947D1*
G1X244527Y130952D1*
G1X244827Y130952D1*
G1X244850Y130947D1*
G1X245050Y130847D1*
G1X245077Y130802D1*
G1X245077Y127106D1*
G1X245175Y126419D1*
G1X245465Y125936D1*
G1X245847Y125650D1*
G1X246431Y125552D1*
G1X246723Y125552D1*
G1X247310Y125650D1*
G1X247787Y125936D1*
G1X247979Y126415D1*
G1X248077Y127106D1*
G1X248077Y130802D1*
G1X248111Y130850D1*
G1X248411Y130950D1*
G1X248427Y130952D1*
G1X248627Y130952D1*
G1X248650Y130947D1*
G1X248850Y130847D1*
G1X248877Y130802D1*
G1X250077Y139200D2*
G1X249979Y140086D1*
G1X249590Y140767D1*
G1X249009Y141154D1*
G1X248224Y141252D1*
G1X247831Y141252D1*
G1X247145Y141154D1*
G1X246565Y140767D1*
G1X246174Y140084D1*
G1X245977Y139197D1*
G1X245977Y135102D1*
G1X245975Y135086D1*
G1X245775Y134486D1*
G1X245750Y134458D1*
G1X245350Y134258D1*
G1X245327Y134252D1*
G1X244927Y134252D1*
G1X244905Y134258D1*
G1X244705Y134358D1*
G1X244692Y134367D1*
G1X244292Y134767D1*
G1X244277Y134802D1*
G1X244277Y141152D1*
G1X243077Y141152D1*
G1X243077Y135108D1*
G1X243274Y134221D1*
G1X243665Y133537D1*
G1X244245Y133150D1*
G1X244931Y133052D1*
G1X245324Y133052D1*
G1X246009Y133150D1*
G1X246591Y133538D1*
G1X246980Y134122D1*
G1X247177Y135107D1*
G1X247177Y139202D1*
G1X247178Y139210D1*
G1X247278Y139810D1*
G1X247309Y139849D1*
G1X247809Y140049D1*
G1X247827Y140052D1*
G1X248227Y140052D1*
G1X248250Y140047D1*
G1X248450Y139947D1*
G1X248463Y139938D1*
G1X248863Y139538D1*
G1X248877Y139502D1*
G1X248877Y133152D1*
G1X250077Y133152D1*
G1X250077Y139200D1*
G1X243152Y61407D2*
G1X243152Y68252D1*
G1X243152Y69152D2*
G1X243152Y76673D1*
G1X243152Y79907D2*
G1X243152Y86852D1*
G1X243152Y90182D2*
G1X243152Y93322D1*
G1X243152Y96952D2*
G1X243152Y98152D1*
G1X243152Y104152D2*
G1X243152Y105352D1*
G1X243152Y106452D2*
G1X243152Y107652D1*
G1X243152Y116882D2*
G1X243152Y120022D1*
G1X243152Y123652D2*
G1X243152Y131122D1*
G1X243152Y134771D2*
G1X243152Y141152D1*
G1X243252Y61105D2*
G1X243252Y68252D1*
G1X243252Y69152D2*
G1X243252Y77013D1*
G1X243252Y79605D2*
G1X243252Y86852D1*
G1X243252Y89905D2*
G1X243252Y93599D1*
G1X243252Y96952D2*
G1X243252Y98152D1*
G1X243252Y104152D2*
G1X243252Y105352D1*
G1X243252Y106452D2*
G1X243252Y107652D1*
G1X243252Y116605D2*
G1X243252Y120299D1*
G1X243252Y123652D2*
G1X243252Y131413D1*
G1X243252Y134321D2*
G1X243252Y141152D1*
G1X243352Y60955D2*
G1X243352Y68252D1*
G1X243352Y69152D2*
G1X243352Y77180D1*
G1X243352Y79455D2*
G1X243352Y86852D1*
G1X243352Y89755D2*
G1X243352Y93749D1*
G1X243352Y96952D2*
G1X243352Y98152D1*
G1X243352Y104152D2*
G1X243352Y105352D1*
G1X243352Y106452D2*
G1X243352Y107652D1*
G1X243352Y116455D2*
G1X243352Y120449D1*
G1X243352Y123652D2*
G1X243352Y131580D1*
G1X243352Y134085D2*
G1X243352Y141152D1*
G1X243452Y60805D2*
G1X243452Y68252D1*
G1X243452Y69152D2*
G1X243452Y77346D1*
G1X243452Y79305D2*
G1X243452Y86852D1*
G1X243452Y89605D2*
G1X243452Y93899D1*
G1X243452Y96952D2*
G1X243452Y98152D1*
G1X243452Y104152D2*
G1X243452Y105352D1*
G1X243452Y106452D2*
G1X243452Y107652D1*
G1X243452Y116305D2*
G1X243452Y120599D1*
G1X243452Y123652D2*
G1X243452Y131746D1*
G1X243452Y133910D2*
G1X243452Y141152D1*
G1X243552Y60655D2*
G1X243552Y68252D1*
G1X243552Y69152D2*
G1X243552Y77438D1*
G1X243552Y79155D2*
G1X243552Y86852D1*
G1X243552Y89455D2*
G1X243552Y94049D1*
G1X243552Y96952D2*
G1X243552Y98152D1*
G1X243552Y104152D2*
G1X243552Y105352D1*
G1X243552Y106452D2*
G1X243552Y107652D1*
G1X243552Y116155D2*
G1X243552Y120749D1*
G1X243552Y123652D2*
G1X243552Y131833D1*
G1X243552Y133735D2*
G1X243552Y141152D1*
G1X243652Y60579D2*
G1X243652Y68252D1*
G1X243652Y69152D2*
G1X243652Y77518D1*
G1X243652Y79086D2*
G1X243652Y86852D1*
G1X243652Y89379D2*
G1X243652Y94141D1*
G1X243652Y96952D2*
G1X243652Y98152D1*
G1X243652Y104152D2*
G1X243652Y105352D1*
G1X243652Y106452D2*
G1X243652Y107652D1*
G1X243652Y116079D2*
G1X243652Y120841D1*
G1X243652Y123652D2*
G1X243652Y131908D1*
G1X243652Y133560D2*
G1X243652Y141152D1*
G1X243752Y60512D2*
G1X243752Y68252D1*
G1X243752Y69152D2*
G1X243752Y77598D1*
G1X243752Y79026D2*
G1X243752Y86852D1*
G1X243752Y89312D2*
G1X243752Y94225D1*
G1X243752Y96952D2*
G1X243752Y98152D1*
G1X243752Y104152D2*
G1X243752Y105352D1*
G1X243752Y106452D2*
G1X243752Y107652D1*
G1X243752Y116012D2*
G1X243752Y120925D1*
G1X243752Y123652D2*
G1X243752Y131983D1*
G1X243752Y133479D2*
G1X243752Y141152D1*
G1X243852Y60446D2*
G1X243852Y68252D1*
G1X243852Y69152D2*
G1X243852Y77678D1*
G1X243852Y78966D2*
G1X243852Y86852D1*
G1X243852Y89246D2*
G1X243852Y94308D1*
G1X243852Y96952D2*
G1X243852Y98152D1*
G1X243852Y104152D2*
G1X243852Y105352D1*
G1X243852Y106452D2*
G1X243852Y107652D1*
G1X243852Y115946D2*
G1X243852Y121008D1*
G1X243852Y123652D2*
G1X243852Y132056D1*
G1X243852Y133412D2*
G1X243852Y141152D1*
G1X243952Y60379D2*
G1X243952Y68252D1*
G1X243952Y69152D2*
G1X243952Y77755D1*
G1X243952Y78906D2*
G1X243952Y86852D1*
G1X243952Y89179D2*
G1X243952Y94391D1*
G1X243952Y96952D2*
G1X243952Y98152D1*
G1X243952Y104152D2*
G1X243952Y105352D1*
G1X243952Y106452D2*
G1X243952Y107652D1*
G1X243952Y115879D2*
G1X243952Y121091D1*
G1X243952Y123652D2*
G1X243952Y132072D1*
G1X243952Y133346D2*
G1X243952Y141152D1*
G1X244052Y60312D2*
G1X244052Y68252D1*
G1X244052Y69152D2*
G1X244052Y77770D1*
G1X244052Y78848D2*
G1X244052Y86852D1*
G1X244052Y89112D2*
G1X244052Y94475D1*
G1X244052Y96952D2*
G1X244052Y98152D1*
G1X244052Y104152D2*
G1X244052Y105352D1*
G1X244052Y106452D2*
G1X244052Y107652D1*
G1X244052Y115812D2*
G1X244052Y121175D1*
G1X244052Y123652D2*
G1X244052Y132089D1*
G1X244052Y133279D2*
G1X244052Y141152D1*
G1X244152Y60249D2*
G1X244152Y68252D1*
G1X244152Y69152D2*
G1X244152Y77784D1*
G1X244152Y78823D2*
G1X244152Y86852D1*
G1X244152Y89046D2*
G1X244152Y94558D1*
G1X244152Y96952D2*
G1X244152Y98152D1*
G1X244152Y104152D2*
G1X244152Y105352D1*
G1X244152Y106452D2*
G1X244152Y107652D1*
G1X244152Y115746D2*
G1X244152Y121258D1*
G1X244152Y123652D2*
G1X244152Y132106D1*
G1X244152Y133212D2*
G1X244152Y141152D1*
G1X244252Y60235D2*
G1X244252Y68252D1*
G1X244252Y69152D2*
G1X244252Y77798D1*
G1X244252Y78798D2*
G1X244252Y86852D1*
G1X244252Y89009D2*
G1X244252Y94596D1*
G1X244252Y96952D2*
G1X244252Y98152D1*
G1X244252Y104152D2*
G1X244252Y105352D1*
G1X244252Y106452D2*
G1X244252Y107652D1*
G1X244252Y115709D2*
G1X244252Y121296D1*
G1X244252Y123652D2*
G1X244252Y132122D1*
G1X244252Y133149D2*
G1X244252Y141152D1*
G1X244352Y60221D2*
G1X244352Y61623D1*
G1X244352Y69152D2*
G1X244352Y70352D1*
G1X244352Y76308D2*
G1X244352Y77812D1*
G1X244352Y78773D2*
G1X244352Y80197D1*
G1X244352Y88971D2*
G1X244352Y90497D1*
G1X244352Y93081D2*
G1X244352Y94633D1*
G1X244352Y96952D2*
G1X244352Y98152D1*
G1X244352Y104152D2*
G1X244352Y105352D1*
G1X244352Y106452D2*
G1X244352Y107652D1*
G1X244352Y115671D2*
G1X244352Y117197D1*
G1X244352Y119781D2*
G1X244352Y121333D1*
G1X244352Y123652D2*
G1X244352Y124852D1*
G1X244352Y130871D2*
G1X244352Y132139D1*
G1X244352Y133135D2*
G1X244352Y134707D1*
G1X244452Y60206D2*
G1X244452Y61445D1*
G1X244452Y69152D2*
G1X244452Y70352D1*
G1X244452Y76460D2*
G1X244452Y77827D1*
G1X244452Y78748D2*
G1X244452Y80045D1*
G1X244452Y88934D2*
G1X244452Y90329D1*
G1X244452Y93266D2*
G1X244452Y94671D1*
G1X244452Y96952D2*
G1X244452Y98152D1*
G1X244452Y104152D2*
G1X244452Y105352D1*
G1X244452Y106452D2*
G1X244452Y107652D1*
G1X244452Y115634D2*
G1X244452Y117029D1*
G1X244452Y119966D2*
G1X244452Y121371D1*
G1X244452Y123652D2*
G1X244452Y124852D1*
G1X244452Y130921D2*
G1X244452Y132152D1*
G1X244452Y133121D2*
G1X244452Y134607D1*
G1X244552Y60192D2*
G1X244552Y61420D1*
G1X244552Y69152D2*
G1X244552Y70352D1*
G1X244552Y76485D2*
G1X244552Y77841D1*
G1X244552Y78723D2*
G1X244552Y80020D1*
G1X244552Y88896D2*
G1X244552Y90269D1*
G1X244552Y93306D2*
G1X244552Y94708D1*
G1X244552Y96952D2*
G1X244552Y98152D1*
G1X244552Y104152D2*
G1X244552Y105352D1*
G1X244552Y106452D2*
G1X244552Y107652D1*
G1X244552Y115596D2*
G1X244552Y116969D1*
G1X244552Y120006D2*
G1X244552Y121408D1*
G1X244552Y123652D2*
G1X244552Y124852D1*
G1X244552Y130952D2*
G1X244552Y132152D1*
G1X244552Y133106D2*
G1X244552Y134507D1*
G1X244652Y60178D2*
G1X244652Y61395D1*
G1X244652Y69152D2*
G1X244652Y70352D1*
G1X244652Y76510D2*
G1X244652Y77852D1*
G1X244652Y78698D2*
G1X244652Y79995D1*
G1X244652Y88859D2*
G1X244652Y90209D1*
G1X244652Y93346D2*
G1X244652Y94746D1*
G1X244652Y96952D2*
G1X244652Y98152D1*
G1X244652Y104152D2*
G1X244652Y105352D1*
G1X244652Y106452D2*
G1X244652Y107652D1*
G1X244652Y115559D2*
G1X244652Y116909D1*
G1X244652Y120046D2*
G1X244652Y121446D1*
G1X244652Y123652D2*
G1X244652Y124852D1*
G1X244652Y130952D2*
G1X244652Y132152D1*
G1X244652Y133092D2*
G1X244652Y134407D1*
G1X244752Y60164D2*
G1X244752Y61370D1*
G1X244752Y69152D2*
G1X244752Y70352D1*
G1X244752Y76535D2*
G1X244752Y77852D1*
G1X244752Y78673D2*
G1X244752Y79970D1*
G1X244752Y88821D2*
G1X244752Y90149D1*
G1X244752Y93386D2*
G1X244752Y94783D1*
G1X244752Y96952D2*
G1X244752Y98152D1*
G1X244752Y104152D2*
G1X244752Y105352D1*
G1X244752Y106452D2*
G1X244752Y107652D1*
G1X244752Y115521D2*
G1X244752Y116849D1*
G1X244752Y120086D2*
G1X244752Y121483D1*
G1X244752Y123652D2*
G1X244752Y124852D1*
G1X244752Y130952D2*
G1X244752Y132152D1*
G1X244752Y133078D2*
G1X244752Y134334D1*
G1X244852Y60152D2*
G1X244852Y61352D1*
G1X244852Y69152D2*
G1X244852Y70352D1*
G1X244852Y76548D2*
G1X244852Y77852D1*
G1X244852Y78652D2*
G1X244852Y79952D1*
G1X244852Y88784D2*
G1X244852Y90089D1*
G1X244852Y93426D2*
G1X244852Y94821D1*
G1X244852Y96952D2*
G1X244852Y98152D1*
G1X244852Y104152D2*
G1X244852Y105352D1*
G1X244852Y106452D2*
G1X244852Y107652D1*
G1X244852Y115484D2*
G1X244852Y116789D1*
G1X244852Y120126D2*
G1X244852Y121521D1*
G1X244852Y123652D2*
G1X244852Y124852D1*
G1X244852Y130946D2*
G1X244852Y132152D1*
G1X244852Y133064D2*
G1X244852Y134284D1*
G1X244952Y60152D2*
G1X244952Y61352D1*
G1X244952Y69152D2*
G1X244952Y70352D1*
G1X244952Y76523D2*
G1X244952Y77849D1*
G1X244952Y78652D2*
G1X244952Y79952D1*
G1X244952Y88748D2*
G1X244952Y90045D1*
G1X244952Y93462D2*
G1X244952Y94857D1*
G1X244952Y96952D2*
G1X244952Y98152D1*
G1X244952Y104152D2*
G1X244952Y105352D1*
G1X244952Y106452D2*
G1X244952Y107652D1*
G1X244952Y115448D2*
G1X244952Y116745D1*
G1X244952Y120162D2*
G1X244952Y121557D1*
G1X244952Y123652D2*
G1X244952Y124852D1*
G1X244952Y130896D2*
G1X244952Y132147D1*
G1X244952Y133052D2*
G1X244952Y134252D1*
G1X245052Y60152D2*
G1X245052Y61352D1*
G1X245052Y69152D2*
G1X245052Y70352D1*
G1X245052Y76498D2*
G1X245052Y77836D1*
G1X245052Y78652D2*
G1X245052Y79952D1*
G1X245052Y88723D2*
G1X245052Y90020D1*
G1X245052Y93492D2*
G1X245052Y94882D1*
G1X245052Y96952D2*
G1X245052Y98152D1*
G1X245052Y104152D2*
G1X245052Y105352D1*
G1X245052Y106452D2*
G1X245052Y107652D1*
G1X245052Y115423D2*
G1X245052Y116720D1*
G1X245052Y120192D2*
G1X245052Y121582D1*
G1X245052Y123652D2*
G1X245052Y124852D1*
G1X245052Y130846D2*
G1X245052Y132131D1*
G1X245052Y133052D2*
G1X245052Y134252D1*
G1X245152Y60152D2*
G1X245152Y61352D1*
G1X245152Y69152D2*
G1X245152Y70352D1*
G1X245152Y76473D2*
G1X245152Y77824D1*
G1X245152Y78652D2*
G1X245152Y79952D1*
G1X245152Y88698D2*
G1X245152Y89995D1*
G1X245152Y93522D2*
G1X245152Y94907D1*
G1X245152Y96952D2*
G1X245152Y98152D1*
G1X245152Y104152D2*
G1X245152Y105352D1*
G1X245152Y106452D2*
G1X245152Y107652D1*
G1X245152Y115398D2*
G1X245152Y116695D1*
G1X245152Y120222D2*
G1X245152Y121607D1*
G1X245152Y123652D2*
G1X245152Y124852D1*
G1X245152Y126582D2*
G1X245152Y132114D1*
G1X245152Y133052D2*
G1X245152Y134252D1*
G1X245252Y60152D2*
G1X245252Y61352D1*
G1X245252Y69152D2*
G1X245252Y70352D1*
G1X245252Y76446D2*
G1X245252Y77811D1*
G1X245252Y78652D2*
G1X245252Y79952D1*
G1X245252Y88673D2*
G1X245252Y89970D1*
G1X245252Y93552D2*
G1X245252Y94932D1*
G1X245252Y96952D2*
G1X245252Y98152D1*
G1X245252Y104146D2*
G1X245252Y105352D1*
G1X245252Y106452D2*
G1X245252Y107652D1*
G1X245252Y115373D2*
G1X245252Y116670D1*
G1X245252Y120252D2*
G1X245252Y121632D1*
G1X245252Y123652D2*
G1X245252Y124852D1*
G1X245252Y126291D2*
G1X245252Y132097D1*
G1X245252Y133052D2*
G1X245252Y134252D1*
G1X245352Y60152D2*
G1X245352Y61352D1*
G1X245352Y69152D2*
G1X245352Y70352D1*
G1X245352Y76109D2*
G1X245352Y77799D1*
G1X245352Y78652D2*
G1X245352Y79952D1*
G1X245352Y88648D2*
G1X245352Y89945D1*
G1X245352Y93582D2*
G1X245352Y94957D1*
G1X245352Y96952D2*
G1X245352Y98152D1*
G1X245352Y104096D2*
G1X245352Y105352D1*
G1X245352Y106452D2*
G1X245352Y107652D1*
G1X245352Y115348D2*
G1X245352Y116645D1*
G1X245352Y120282D2*
G1X245352Y121657D1*
G1X245352Y123652D2*
G1X245352Y124852D1*
G1X245352Y126125D2*
G1X245352Y132081D1*
G1X245352Y133056D2*
G1X245352Y134259D1*
G1X245452Y60152D2*
G1X245452Y61352D1*
G1X245452Y69152D2*
G1X245452Y70352D1*
G1X245452Y72107D2*
G1X245452Y77786D1*
G1X245452Y78652D2*
G1X245452Y79952D1*
G1X245452Y88623D2*
G1X245452Y89920D1*
G1X245452Y93612D2*
G1X245452Y94982D1*
G1X245452Y96952D2*
G1X245452Y98152D1*
G1X245452Y104046D2*
G1X245452Y105338D1*
G1X245452Y106452D2*
G1X245452Y107652D1*
G1X245452Y115323D2*
G1X245452Y116620D1*
G1X245452Y120312D2*
G1X245452Y121682D1*
G1X245452Y123652D2*
G1X245452Y124852D1*
G1X245452Y125958D2*
G1X245452Y132064D1*
G1X245452Y133071D2*
G1X245452Y134309D1*
G1X245552Y60152D2*
G1X245552Y61352D1*
G1X245552Y69152D2*
G1X245552Y70352D1*
G1X245552Y71791D2*
G1X245552Y77774D1*
G1X245552Y78652D2*
G1X245552Y79952D1*
G1X245552Y88598D2*
G1X245552Y89895D1*
G1X245552Y93642D2*
G1X245552Y95007D1*
G1X245552Y96952D2*
G1X245552Y98152D1*
G1X245552Y103996D2*
G1X245552Y105298D1*
G1X245552Y106452D2*
G1X245552Y107652D1*
G1X245552Y115298D2*
G1X245552Y116595D1*
G1X245552Y120342D2*
G1X245552Y121707D1*
G1X245552Y123652D2*
G1X245552Y124852D1*
G1X245552Y125871D2*
G1X245552Y132029D1*
G1X245552Y133085D2*
G1X245552Y134359D1*
G1X245652Y60152D2*
G1X245652Y61352D1*
G1X245652Y69152D2*
G1X245652Y70352D1*
G1X245652Y71625D2*
G1X245652Y77761D1*
G1X245652Y78652D2*
G1X245652Y79952D1*
G1X245652Y88573D2*
G1X245652Y89870D1*
G1X245652Y93672D2*
G1X245652Y95032D1*
G1X245652Y96952D2*
G1X245652Y98152D1*
G1X245652Y103946D2*
G1X245652Y105258D1*
G1X245652Y106452D2*
G1X245652Y107652D1*
G1X245652Y115273D2*
G1X245652Y116570D1*
G1X245652Y120372D2*
G1X245652Y121732D1*
G1X245652Y123652D2*
G1X245652Y124852D1*
G1X245652Y125796D2*
G1X245652Y131969D1*
G1X245652Y133099D2*
G1X245652Y134409D1*
G1X245752Y60152D2*
G1X245752Y61352D1*
G1X245752Y69152D2*
G1X245752Y70352D1*
G1X245752Y71458D2*
G1X245752Y77718D1*
G1X245752Y78652D2*
G1X245752Y79959D1*
G1X245752Y88548D2*
G1X245752Y89845D1*
G1X245752Y93702D2*
G1X245752Y95057D1*
G1X245752Y96952D2*
G1X245752Y98152D1*
G1X245752Y103848D2*
G1X245752Y105218D1*
G1X245752Y106452D2*
G1X245752Y107652D1*
G1X245752Y115248D2*
G1X245752Y116545D1*
G1X245752Y120402D2*
G1X245752Y121757D1*
G1X245752Y123652D2*
G1X245752Y124852D1*
G1X245752Y125721D2*
G1X245752Y131909D1*
G1X245752Y133113D2*
G1X245752Y134459D1*
G1X245852Y60152D2*
G1X245852Y61352D1*
G1X245852Y69152D2*
G1X245852Y70352D1*
G1X245852Y71386D2*
G1X245852Y77638D1*
G1X245852Y78652D2*
G1X245852Y86852D1*
G1X245852Y88523D2*
G1X245852Y89820D1*
G1X245852Y93732D2*
G1X245852Y95082D1*
G1X245852Y96952D2*
G1X245852Y98152D1*
G1X245852Y103748D2*
G1X245852Y105178D1*
G1X245852Y106452D2*
G1X245852Y107652D1*
G1X245852Y115223D2*
G1X245852Y116520D1*
G1X245852Y120432D2*
G1X245852Y121782D1*
G1X245852Y123652D2*
G1X245852Y124852D1*
G1X245852Y125649D2*
G1X245852Y131849D1*
G1X245852Y133128D2*
G1X245852Y134719D1*
G1X245952Y60152D2*
G1X245952Y61359D1*
G1X245952Y69152D2*
G1X245952Y70352D1*
G1X245952Y71326D2*
G1X245952Y77558D1*
G1X245952Y78652D2*
G1X245952Y86852D1*
G1X245952Y88498D2*
G1X245952Y89795D1*
G1X245952Y93746D2*
G1X245952Y95107D1*
G1X245952Y96952D2*
G1X245952Y98159D1*
G1X245952Y103648D2*
G1X245952Y105121D1*
G1X245952Y106452D2*
G1X245952Y107652D1*
G1X245952Y115198D2*
G1X245952Y116495D1*
G1X245952Y120446D2*
G1X245952Y121807D1*
G1X245952Y123652D2*
G1X245952Y124852D1*
G1X245952Y125632D2*
G1X245952Y131789D1*
G1X245952Y133142D2*
G1X245952Y135019D1*
G1X246052Y60152D2*
G1X246052Y68252D1*
G1X246052Y69152D2*
G1X246052Y70352D1*
G1X246052Y71266D2*
G1X246052Y77478D1*
G1X246052Y78652D2*
G1X246052Y86852D1*
G1X246052Y88473D2*
G1X246052Y89770D1*
G1X246052Y90425D2*
G1X246052Y95132D1*
G1X246052Y96952D2*
G1X246052Y105046D1*
G1X246052Y106452D2*
G1X246052Y107652D1*
G1X246052Y115173D2*
G1X246052Y116470D1*
G1X246052Y117125D2*
G1X246052Y121832D1*
G1X246052Y123652D2*
G1X246052Y124852D1*
G1X246052Y125615D2*
G1X246052Y131606D1*
G1X246052Y133179D2*
G1X246052Y139533D1*
G1X246152Y60152D2*
G1X246152Y68252D1*
G1X246152Y69152D2*
G1X246152Y70352D1*
G1X246152Y71206D2*
G1X246152Y77398D1*
G1X246152Y78652D2*
G1X246152Y86852D1*
G1X246152Y88448D2*
G1X246152Y89745D1*
G1X246152Y90402D2*
G1X246152Y95157D1*
G1X246152Y96952D2*
G1X246152Y104971D1*
G1X246152Y106452D2*
G1X246152Y107652D1*
G1X246152Y115148D2*
G1X246152Y116445D1*
G1X246152Y117102D2*
G1X246152Y121857D1*
G1X246152Y123652D2*
G1X246152Y124852D1*
G1X246152Y125599D2*
G1X246152Y131356D1*
G1X246152Y133246D2*
G1X246152Y139983D1*
G1X246252Y60152D2*
G1X246252Y68252D1*
G1X246252Y69152D2*
G1X246252Y70352D1*
G1X246252Y71149D2*
G1X246252Y77264D1*
G1X246252Y78652D2*
G1X246252Y86852D1*
G1X246252Y88423D2*
G1X246252Y89720D1*
G1X246252Y90379D2*
G1X246252Y95182D1*
G1X246252Y96952D2*
G1X246252Y104896D1*
G1X246252Y106452D2*
G1X246252Y107652D1*
G1X246252Y115123D2*
G1X246252Y116420D1*
G1X246252Y117079D2*
G1X246252Y121882D1*
G1X246252Y123652D2*
G1X246252Y124852D1*
G1X246252Y125582D2*
G1X246252Y130775D1*
G1X246252Y133312D2*
G1X246252Y140220D1*
G1X246352Y60152D2*
G1X246352Y68252D1*
G1X246352Y69152D2*
G1X246352Y70352D1*
G1X246352Y71135D2*
G1X246352Y77097D1*
G1X246352Y78652D2*
G1X246352Y86852D1*
G1X246352Y88398D2*
G1X246352Y89695D1*
G1X246352Y90356D2*
G1X246352Y95207D1*
G1X246352Y96952D2*
G1X246352Y104741D1*
G1X246352Y106452D2*
G1X246352Y107652D1*
G1X246352Y115098D2*
G1X246352Y116395D1*
G1X246352Y117056D2*
G1X246352Y121907D1*
G1X246352Y123652D2*
G1X246352Y124852D1*
G1X246352Y125565D2*
G1X246352Y126941D1*
G1X246352Y133379D2*
G1X246352Y140395D1*
G1X246452Y60152D2*
G1X246452Y68252D1*
G1X246452Y69152D2*
G1X246452Y70352D1*
G1X246452Y71121D2*
G1X246452Y76930D1*
G1X246452Y78652D2*
G1X246452Y86852D1*
G1X246452Y88373D2*
G1X246452Y89670D1*
G1X246452Y90332D2*
G1X246452Y95232D1*
G1X246452Y96952D2*
G1X246452Y104541D1*
G1X246452Y106452D2*
G1X246452Y107652D1*
G1X246452Y115073D2*
G1X246452Y116370D1*
G1X246452Y117032D2*
G1X246452Y121932D1*
G1X246452Y123652D2*
G1X246452Y124852D1*
G1X246452Y125552D2*
G1X246452Y126852D1*
G1X246452Y133446D2*
G1X246452Y140570D1*
G1X246552Y60152D2*
G1X246552Y68252D1*
G1X246552Y69152D2*
G1X246552Y70352D1*
G1X246552Y71106D2*
G1X246552Y76226D1*
G1X246552Y78652D2*
G1X246552Y86852D1*
G1X246552Y88348D2*
G1X246552Y89645D1*
G1X246552Y90309D2*
G1X246552Y95257D1*
G1X246552Y96952D2*
G1X246552Y104459D1*
G1X246552Y106452D2*
G1X246552Y107652D1*
G1X246552Y115048D2*
G1X246552Y116345D1*
G1X246552Y117009D2*
G1X246552Y121957D1*
G1X246552Y123652D2*
G1X246552Y124852D1*
G1X246552Y125552D2*
G1X246552Y126852D1*
G1X246552Y133512D2*
G1X246552Y140745D1*
G1X246652Y60152D2*
G1X246652Y68252D1*
G1X246652Y69152D2*
G1X246652Y70352D1*
G1X246652Y71092D2*
G1X246652Y72597D1*
G1X246652Y78652D2*
G1X246652Y86852D1*
G1X246652Y88323D2*
G1X246652Y89620D1*
G1X246652Y90286D2*
G1X246652Y95282D1*
G1X246652Y96952D2*
G1X246652Y104585D1*
G1X246652Y106452D2*
G1X246652Y107652D1*
G1X246652Y115023D2*
G1X246652Y116320D1*
G1X246652Y116986D2*
G1X246652Y121982D1*
G1X246652Y123652D2*
G1X246652Y124852D1*
G1X246652Y125552D2*
G1X246652Y126852D1*
G1X246652Y133630D2*
G1X246652Y140825D1*
G1X246752Y60152D2*
G1X246752Y68252D1*
G1X246752Y69152D2*
G1X246752Y70352D1*
G1X246752Y71078D2*
G1X246752Y72445D1*
G1X246752Y78652D2*
G1X246752Y86852D1*
G1X246752Y88298D2*
G1X246752Y89595D1*
G1X246752Y90263D2*
G1X246752Y95307D1*
G1X246752Y96952D2*
G1X246752Y104719D1*
G1X246752Y106452D2*
G1X246752Y107652D1*
G1X246752Y114998D2*
G1X246752Y116295D1*
G1X246752Y116963D2*
G1X246752Y122007D1*
G1X246752Y123652D2*
G1X246752Y124852D1*
G1X246752Y125557D2*
G1X246752Y126852D1*
G1X246752Y133780D2*
G1X246752Y140892D1*
G1X246852Y60152D2*
G1X246852Y68252D1*
G1X246852Y69152D2*
G1X246852Y70352D1*
G1X246852Y71064D2*
G1X246852Y72420D1*
G1X246852Y78652D2*
G1X246852Y86852D1*
G1X246852Y88273D2*
G1X246852Y89570D1*
G1X246852Y90240D2*
G1X246852Y95332D1*
G1X246852Y96952D2*
G1X246852Y104852D1*
G1X246852Y106452D2*
G1X246852Y107652D1*
G1X246852Y114973D2*
G1X246852Y116270D1*
G1X246852Y116940D2*
G1X246852Y122032D1*
G1X246852Y123652D2*
G1X246852Y124852D1*
G1X246852Y125574D2*
G1X246852Y126859D1*
G1X246852Y133930D2*
G1X246852Y140959D1*
G1X246952Y60152D2*
G1X246952Y68252D1*
G1X246952Y69152D2*
G1X246952Y70352D1*
G1X246952Y71052D2*
G1X246952Y72395D1*
G1X246952Y78652D2*
G1X246952Y86852D1*
G1X246952Y88248D2*
G1X246952Y89545D1*
G1X246952Y90217D2*
G1X246952Y95357D1*
G1X246952Y96952D2*
G1X246952Y104956D1*
G1X246952Y106452D2*
G1X246952Y107652D1*
G1X246952Y114948D2*
G1X246952Y116245D1*
G1X246952Y116917D2*
G1X246952Y122057D1*
G1X246952Y123652D2*
G1X246952Y124852D1*
G1X246952Y125590D2*
G1X246952Y131122D1*
G1X246952Y134080D2*
G1X246952Y141025D1*
G1X247052Y60152D2*
G1X247052Y68252D1*
G1X247052Y69152D2*
G1X247052Y70352D1*
G1X247052Y71052D2*
G1X247052Y72370D1*
G1X247052Y78652D2*
G1X247052Y79952D1*
G1X247052Y88223D2*
G1X247052Y89520D1*
G1X247052Y90194D2*
G1X247052Y95382D1*
G1X247052Y96952D2*
G1X247052Y105056D1*
G1X247052Y106452D2*
G1X247052Y107652D1*
G1X247052Y114923D2*
G1X247052Y116220D1*
G1X247052Y116894D2*
G1X247052Y122082D1*
G1X247052Y123652D2*
G1X247052Y124852D1*
G1X247052Y125607D2*
G1X247052Y131480D1*
G1X247052Y134481D2*
G1X247052Y141092D1*
G1X247152Y60152D2*
G1X247152Y68252D1*
G1X247152Y69152D2*
G1X247152Y70352D1*
G1X247152Y71052D2*
G1X247152Y72357D1*
G1X247152Y78652D2*
G1X247152Y79952D1*
G1X247152Y88198D2*
G1X247152Y89495D1*
G1X247152Y90171D2*
G1X247152Y95407D1*
G1X247152Y96952D2*
G1X247152Y105156D1*
G1X247152Y106452D2*
G1X247152Y107652D1*
G1X247152Y114898D2*
G1X247152Y116195D1*
G1X247152Y116871D2*
G1X247152Y122107D1*
G1X247152Y123652D2*
G1X247152Y124852D1*
G1X247152Y125624D2*
G1X247152Y131730D1*
G1X247152Y134981D2*
G1X247152Y141155D1*
G1X247252Y60152D2*
G1X247252Y61352D1*
G1X247252Y69152D2*
G1X247252Y70352D1*
G1X247252Y71056D2*
G1X247252Y72382D1*
G1X247252Y78652D2*
G1X247252Y79952D1*
G1X247252Y88173D2*
G1X247252Y89470D1*
G1X247252Y94160D2*
G1X247252Y95432D1*
G1X247252Y96952D2*
G1X247252Y98152D1*
G1X247252Y103455D2*
G1X247252Y105256D1*
G1X247252Y106452D2*
G1X247252Y107652D1*
G1X247252Y114873D2*
G1X247252Y116170D1*
G1X247252Y120860D2*
G1X247252Y122132D1*
G1X247252Y123652D2*
G1X247252Y124852D1*
G1X247252Y125640D2*
G1X247252Y131819D1*
G1X247252Y139655D2*
G1X247252Y141170D1*
G1X247352Y60152D2*
G1X247352Y61352D1*
G1X247352Y69152D2*
G1X247352Y70352D1*
G1X247352Y71071D2*
G1X247352Y72407D1*
G1X247352Y78652D2*
G1X247352Y79952D1*
G1X247352Y88148D2*
G1X247352Y89445D1*
G1X247352Y94184D2*
G1X247352Y95457D1*
G1X247352Y96952D2*
G1X247352Y98152D1*
G1X247352Y103730D2*
G1X247352Y105276D1*
G1X247352Y106452D2*
G1X247352Y107652D1*
G1X247352Y114848D2*
G1X247352Y116145D1*
G1X247352Y120884D2*
G1X247352Y122157D1*
G1X247352Y123652D2*
G1X247352Y124852D1*
G1X247352Y125675D2*
G1X247352Y131879D1*
G1X247352Y139866D2*
G1X247352Y141184D1*
G1X247452Y60152D2*
G1X247452Y61352D1*
G1X247452Y69152D2*
G1X247452Y70352D1*
G1X247452Y71085D2*
G1X247452Y72432D1*
G1X247452Y78652D2*
G1X247452Y79952D1*
G1X247452Y88123D2*
G1X247452Y89420D1*
G1X247452Y94208D2*
G1X247452Y95482D1*
G1X247452Y96952D2*
G1X247452Y98152D1*
G1X247452Y103880D2*
G1X247452Y105296D1*
G1X247452Y106452D2*
G1X247452Y107652D1*
G1X247452Y114823D2*
G1X247452Y116120D1*
G1X247452Y120908D2*
G1X247452Y122182D1*
G1X247452Y123652D2*
G1X247452Y124852D1*
G1X247452Y125735D2*
G1X247452Y131939D1*
G1X247452Y139906D2*
G1X247452Y141198D1*
G1X247552Y60152D2*
G1X247552Y61352D1*
G1X247552Y69152D2*
G1X247552Y70352D1*
G1X247552Y71099D2*
G1X247552Y72459D1*
G1X247552Y78652D2*
G1X247552Y79952D1*
G1X247552Y88098D2*
G1X247552Y89395D1*
G1X247552Y94232D2*
G1X247552Y95507D1*
G1X247552Y96952D2*
G1X247552Y98152D1*
G1X247552Y103971D2*
G1X247552Y105316D1*
G1X247552Y106452D2*
G1X247552Y107652D1*
G1X247552Y114798D2*
G1X247552Y116095D1*
G1X247552Y120932D2*
G1X247552Y122207D1*
G1X247552Y123652D2*
G1X247552Y124852D1*
G1X247552Y125795D2*
G1X247552Y131999D1*
G1X247552Y139946D2*
G1X247552Y141212D1*
G1X247652Y60152D2*
G1X247652Y61352D1*
G1X247652Y69152D2*
G1X247652Y70352D1*
G1X247652Y71113D2*
G1X247652Y72795D1*
G1X247652Y78652D2*
G1X247652Y79952D1*
G1X247652Y88073D2*
G1X247652Y89370D1*
G1X247652Y94256D2*
G1X247652Y95532D1*
G1X247652Y96952D2*
G1X247652Y98152D1*
G1X247652Y104021D2*
G1X247652Y105336D1*
G1X247652Y106452D2*
G1X247652Y107652D1*
G1X247652Y114773D2*
G1X247652Y116070D1*
G1X247652Y120956D2*
G1X247652Y122232D1*
G1X247652Y123652D2*
G1X247652Y124852D1*
G1X247652Y125855D2*
G1X247652Y132056D1*
G1X247652Y139986D2*
G1X247652Y141227D1*
G1X247752Y60152D2*
G1X247752Y61352D1*
G1X247752Y69152D2*
G1X247752Y70352D1*
G1X247752Y71128D2*
G1X247752Y76795D1*
G1X247752Y78652D2*
G1X247752Y79952D1*
G1X247752Y88048D2*
G1X247752Y89345D1*
G1X247752Y94280D2*
G1X247752Y95557D1*
G1X247752Y96952D2*
G1X247752Y98152D1*
G1X247752Y104071D2*
G1X247752Y105356D1*
G1X247752Y106452D2*
G1X247752Y107652D1*
G1X247752Y114748D2*
G1X247752Y116045D1*
G1X247752Y120980D2*
G1X247752Y122257D1*
G1X247752Y123652D2*
G1X247752Y124852D1*
G1X247752Y125915D2*
G1X247752Y132072D1*
G1X247752Y140026D2*
G1X247752Y141241D1*
G1X247852Y60152D2*
G1X247852Y61352D1*
G1X247852Y69152D2*
G1X247852Y70352D1*
G1X247852Y71142D2*
G1X247852Y77040D1*
G1X247852Y78652D2*
G1X247852Y79952D1*
G1X247852Y88023D2*
G1X247852Y89320D1*
G1X247852Y94305D2*
G1X247852Y95582D1*
G1X247852Y96952D2*
G1X247852Y98152D1*
G1X247852Y104121D2*
G1X247852Y105372D1*
G1X247852Y106452D2*
G1X247852Y107652D1*
G1X247852Y114723D2*
G1X247852Y116020D1*
G1X247852Y121005D2*
G1X247852Y122282D1*
G1X247852Y123652D2*
G1X247852Y124852D1*
G1X247852Y126099D2*
G1X247852Y132089D1*
G1X247852Y140052D2*
G1X247852Y141252D1*
G1X247952Y60152D2*
G1X247952Y61352D1*
G1X247952Y69152D2*
G1X247952Y70352D1*
G1X247952Y71171D2*
G1X247952Y77240D1*
G1X247952Y78652D2*
G1X247952Y79952D1*
G1X247952Y87998D2*
G1X247952Y89295D1*
G1X247952Y94329D2*
G1X247952Y95607D1*
G1X247952Y96952D2*
G1X247952Y98152D1*
G1X247952Y104157D2*
G1X247952Y105389D1*
G1X247952Y106452D2*
G1X247952Y107652D1*
G1X247952Y114698D2*
G1X247952Y115995D1*
G1X247952Y121029D2*
G1X247952Y122307D1*
G1X247952Y123652D2*
G1X247952Y124852D1*
G1X247952Y126349D2*
G1X247952Y132106D1*
G1X247952Y140052D2*
G1X247952Y141252D1*
G1X248052Y60152D2*
G1X248052Y61352D1*
G1X248052Y69152D2*
G1X248052Y70352D1*
G1X248052Y71221D2*
G1X248052Y77440D1*
G1X248052Y78652D2*
G1X248052Y79952D1*
G1X248052Y87973D2*
G1X248052Y89270D1*
G1X248052Y94353D2*
G1X248052Y95632D1*
G1X248052Y96952D2*
G1X248052Y98152D1*
G1X248052Y104174D2*
G1X248052Y105406D1*
G1X248052Y106452D2*
G1X248052Y107652D1*
G1X248052Y114673D2*
G1X248052Y115970D1*
G1X248052Y121053D2*
G1X248052Y122332D1*
G1X248052Y123652D2*
G1X248052Y124852D1*
G1X248052Y126929D2*
G1X248052Y132122D1*
G1X248052Y140052D2*
G1X248052Y141252D1*
G1X248152Y60152D2*
G1X248152Y61352D1*
G1X248152Y69152D2*
G1X248152Y70352D1*
G1X248152Y71271D2*
G1X248152Y77498D1*
G1X248152Y78652D2*
G1X248152Y79952D1*
G1X248152Y87948D2*
G1X248152Y89245D1*
G1X248152Y94377D2*
G1X248152Y95657D1*
G1X248152Y96952D2*
G1X248152Y98152D1*
G1X248152Y104190D2*
G1X248152Y105422D1*
G1X248152Y106452D2*
G1X248152Y107652D1*
G1X248152Y114648D2*
G1X248152Y115945D1*
G1X248152Y121077D2*
G1X248152Y122357D1*
G1X248152Y123652D2*
G1X248152Y124852D1*
G1X248152Y130863D2*
G1X248152Y132139D1*
G1X248152Y140052D2*
G1X248152Y141252D1*
G1X248252Y60152D2*
G1X248252Y61352D1*
G1X248252Y69152D2*
G1X248252Y70352D1*
G1X248252Y71321D2*
G1X248252Y77538D1*
G1X248252Y78652D2*
G1X248252Y79952D1*
G1X248252Y87923D2*
G1X248252Y89220D1*
G1X248252Y94401D2*
G1X248252Y95682D1*
G1X248252Y96952D2*
G1X248252Y98152D1*
G1X248252Y104207D2*
G1X248252Y105439D1*
G1X248252Y106456D2*
G1X248252Y107658D1*
G1X248252Y114623D2*
G1X248252Y115920D1*
G1X248252Y121101D2*
G1X248252Y122382D1*
G1X248252Y123652D2*
G1X248252Y124852D1*
G1X248252Y130897D2*
G1X248252Y132152D1*
G1X248252Y140046D2*
G1X248252Y141249D1*
G1X248352Y60152D2*
G1X248352Y61352D1*
G1X248352Y69152D2*
G1X248352Y70352D1*
G1X248352Y71371D2*
G1X248352Y77578D1*
G1X248352Y78660D2*
G1X248352Y79952D1*
G1X248352Y87898D2*
G1X248352Y89195D1*
G1X248352Y94425D2*
G1X248352Y95707D1*
G1X248352Y96952D2*
G1X248352Y98152D1*
G1X248352Y104224D2*
G1X248352Y105452D1*
G1X248352Y106468D2*
G1X248352Y107698D1*
G1X248352Y114598D2*
G1X248352Y115895D1*
G1X248352Y121125D2*
G1X248352Y122407D1*
G1X248352Y123652D2*
G1X248352Y124852D1*
G1X248352Y130930D2*
G1X248352Y132152D1*
G1X248352Y139996D2*
G1X248352Y141236D1*
G1X248452Y60152D2*
G1X248452Y61352D1*
G1X248452Y69152D2*
G1X248452Y70352D1*
G1X248452Y71421D2*
G1X248452Y77618D1*
G1X248452Y78685D2*
G1X248452Y79952D1*
G1X248452Y87873D2*
G1X248452Y89170D1*
G1X248452Y94449D2*
G1X248452Y95732D1*
G1X248452Y96952D2*
G1X248452Y98152D1*
G1X248452Y104240D2*
G1X248452Y105452D1*
G1X248452Y106481D2*
G1X248452Y107738D1*
G1X248452Y114573D2*
G1X248452Y115870D1*
G1X248452Y121149D2*
G1X248452Y122432D1*
G1X248452Y123652D2*
G1X248452Y124852D1*
G1X248452Y130952D2*
G1X248452Y132152D1*
G1X248452Y139946D2*
G1X248452Y141224D1*
G1X248552Y60152D2*
G1X248552Y61352D1*
G1X248552Y69152D2*
G1X248552Y70352D1*
G1X248552Y71541D2*
G1X248552Y77655D1*
G1X248552Y78710D2*
G1X248552Y79952D1*
G1X248552Y87848D2*
G1X248552Y89145D1*
G1X248552Y94473D2*
G1X248552Y95757D1*
G1X248552Y96952D2*
G1X248552Y98152D1*
G1X248552Y104252D2*
G1X248552Y105452D1*
G1X248552Y106493D2*
G1X248552Y107778D1*
G1X248552Y114548D2*
G1X248552Y115845D1*
G1X248552Y121173D2*
G1X248552Y122457D1*
G1X248552Y123652D2*
G1X248552Y124852D1*
G1X248552Y130952D2*
G1X248552Y132152D1*
G1X248552Y139848D2*
G1X248552Y141211D1*
G1X248652Y60152D2*
G1X248652Y61352D1*
G1X248652Y69152D2*
G1X248652Y70352D1*
G1X248652Y71707D2*
G1X248652Y77670D1*
G1X248652Y78735D2*
G1X248652Y79959D1*
G1X248652Y87823D2*
G1X248652Y89120D1*
G1X248652Y94498D2*
G1X248652Y95782D1*
G1X248652Y96952D2*
G1X248652Y98152D1*
G1X248652Y104252D2*
G1X248652Y105452D1*
G1X248652Y106506D2*
G1X248652Y107818D1*
G1X248652Y114523D2*
G1X248652Y115820D1*
G1X248652Y121198D2*
G1X248652Y122482D1*
G1X248652Y123652D2*
G1X248652Y124852D1*
G1X248652Y130946D2*
G1X248652Y132152D1*
G1X248652Y139748D2*
G1X248652Y141199D1*
G1X248752Y60152D2*
G1X248752Y61352D1*
G1X248752Y69152D2*
G1X248752Y70352D1*
G1X248752Y71874D2*
G1X248752Y77684D1*
G1X248752Y78760D2*
G1X248752Y80056D1*
G1X248752Y87798D2*
G1X248752Y89095D1*
G1X248752Y94522D2*
G1X248752Y95807D1*
G1X248752Y96952D2*
G1X248752Y98152D1*
G1X248752Y104252D2*
G1X248752Y105452D1*
G1X248752Y106518D2*
G1X248752Y107859D1*
G1X248752Y114498D2*
G1X248752Y115795D1*
G1X248752Y121222D2*
G1X248752Y122507D1*
G1X248752Y123652D2*
G1X248752Y124852D1*
G1X248752Y130896D2*
G1X248752Y132147D1*
G1X248752Y139648D2*
G1X248752Y141186D1*
G1X248852Y60152D2*
G1X248852Y61352D1*
G1X248852Y69152D2*
G1X248852Y70352D1*
G1X248852Y72504D2*
G1X248852Y77698D1*
G1X248852Y78785D2*
G1X248852Y80156D1*
G1X248852Y87773D2*
G1X248852Y89070D1*
G1X248852Y94546D2*
G1X248852Y95832D1*
G1X248852Y96952D2*
G1X248852Y98152D1*
G1X248852Y104252D2*
G1X248852Y105452D1*
G1X248852Y106531D2*
G1X248852Y108271D1*
G1X248852Y114473D2*
G1X248852Y115770D1*
G1X248852Y121246D2*
G1X248852Y122532D1*
G1X248852Y123652D2*
G1X248852Y124859D1*
G1X248852Y130846D2*
G1X248852Y132131D1*
G1X248852Y139548D2*
G1X248852Y141174D1*
G1X248952Y60152D2*
G1X248952Y61352D1*
G1X248952Y69152D2*
G1X248952Y70352D1*
G1X248952Y76308D2*
G1X248952Y77712D1*
G1X248952Y78810D2*
G1X248952Y86852D1*
G1X248952Y87748D2*
G1X248952Y89045D1*
G1X248952Y94570D2*
G1X248952Y95857D1*
G1X248952Y96952D2*
G1X248952Y98152D1*
G1X248952Y104252D2*
G1X248952Y105452D1*
G1X248952Y106543D2*
G1X248952Y113652D1*
G1X248952Y114448D2*
G1X248952Y115745D1*
G1X248952Y121270D2*
G1X248952Y122557D1*
G1X248952Y123652D2*
G1X248952Y132114D1*
G1X248952Y133152D2*
G1X248952Y141161D1*
G1X249052Y60152D2*
G1X249052Y61352D1*
G1X249052Y69152D2*
G1X249052Y70352D1*
G1X249052Y76460D2*
G1X249052Y77727D1*
G1X249052Y78835D2*
G1X249052Y86852D1*
G1X249052Y87723D2*
G1X249052Y89020D1*
G1X249052Y94594D2*
G1X249052Y95882D1*
G1X249052Y96952D2*
G1X249052Y98152D1*
G1X249052Y104252D2*
G1X249052Y105452D1*
G1X249052Y106579D2*
G1X249052Y113652D1*
G1X249052Y114423D2*
G1X249052Y115720D1*
G1X249052Y121294D2*
G1X249052Y122582D1*
G1X249052Y123652D2*
G1X249052Y132097D1*
G1X249052Y133152D2*
G1X249052Y141126D1*
G1X249152Y60152D2*
G1X249152Y61352D1*
G1X249152Y69152D2*
G1X249152Y70352D1*
G1X249152Y76485D2*
G1X249152Y77741D1*
G1X249152Y78871D2*
G1X249152Y86852D1*
G1X249152Y87698D2*
G1X249152Y88995D1*
G1X249152Y94618D2*
G1X249152Y95907D1*
G1X249152Y96952D2*
G1X249152Y98152D1*
G1X249152Y104252D2*
G1X249152Y105452D1*
G1X249152Y106646D2*
G1X249152Y113652D1*
G1X249152Y114398D2*
G1X249152Y115695D1*
G1X249152Y121318D2*
G1X249152Y122607D1*
G1X249152Y123652D2*
G1X249152Y132081D1*
G1X249152Y133152D2*
G1X249152Y141059D1*
G1X249252Y60152D2*
G1X249252Y61352D1*
G1X249252Y69152D2*
G1X249252Y70352D1*
G1X249252Y76510D2*
G1X249252Y77752D1*
G1X249252Y78921D2*
G1X249252Y86852D1*
G1X249252Y87673D2*
G1X249252Y88970D1*
G1X249252Y94642D2*
G1X249252Y95932D1*
G1X249252Y96952D2*
G1X249252Y98152D1*
G1X249252Y104252D2*
G1X249252Y105452D1*
G1X249252Y106712D2*
G1X249252Y113652D1*
G1X249252Y114373D2*
G1X249252Y115670D1*
G1X249252Y121342D2*
G1X249252Y122632D1*
G1X249252Y123652D2*
G1X249252Y132064D1*
G1X249252Y133152D2*
G1X249252Y140992D1*
G1X249352Y60152D2*
G1X249352Y61352D1*
G1X249352Y69152D2*
G1X249352Y70352D1*
G1X249352Y76535D2*
G1X249352Y77752D1*
G1X249352Y78971D2*
G1X249352Y86852D1*
G1X249352Y87648D2*
G1X249352Y88945D1*
G1X249352Y94667D2*
G1X249352Y95957D1*
G1X249352Y96952D2*
G1X249352Y98152D1*
G1X249352Y104252D2*
G1X249352Y105452D1*
G1X249352Y106779D2*
G1X249352Y113652D1*
G1X249352Y114348D2*
G1X249352Y115645D1*
G1X249352Y121367D2*
G1X249352Y122657D1*
G1X249352Y123652D2*
G1X249352Y132021D1*
G1X249352Y133152D2*
G1X249352Y140926D1*
G1X249452Y60152D2*
G1X249452Y61352D1*
G1X249452Y69152D2*
G1X249452Y70352D1*
G1X249452Y76552D2*
G1X249452Y77752D1*
G1X249452Y79021D2*
G1X249452Y86852D1*
G1X249452Y87623D2*
G1X249452Y88920D1*
G1X249452Y94691D2*
G1X249452Y95982D1*
G1X249452Y96952D2*
G1X249452Y98152D1*
G1X249452Y104252D2*
G1X249452Y105452D1*
G1X249452Y106846D2*
G1X249452Y113652D1*
G1X249452Y114323D2*
G1X249452Y115620D1*
G1X249452Y121391D2*
G1X249452Y122682D1*
G1X249452Y123652D2*
G1X249452Y131946D1*
G1X249452Y133152D2*
G1X249452Y140859D1*
G1X249552Y60152D2*
G1X249552Y61352D1*
G1X249552Y69152D2*
G1X249552Y70352D1*
G1X249552Y76552D2*
G1X249552Y77752D1*
G1X249552Y79071D2*
G1X249552Y86852D1*
G1X249552Y87598D2*
G1X249552Y88895D1*
G1X249552Y94715D2*
G1X249552Y96007D1*
G1X249552Y96952D2*
G1X249552Y98152D1*
G1X249552Y104252D2*
G1X249552Y105452D1*
G1X249552Y106912D2*
G1X249552Y113652D1*
G1X249552Y114298D2*
G1X249552Y115595D1*
G1X249552Y121415D2*
G1X249552Y122707D1*
G1X249552Y123652D2*
G1X249552Y131871D1*
G1X249552Y133152D2*
G1X249552Y140792D1*
G1X249652Y60152D2*
G1X249652Y61352D1*
G1X249652Y69152D2*
G1X249652Y70352D1*
G1X249652Y76552D2*
G1X249652Y77752D1*
G1X249652Y79121D2*
G1X249652Y86852D1*
G1X249652Y87573D2*
G1X249652Y88870D1*
G1X249652Y94739D2*
G1X249652Y96032D1*
G1X249652Y96952D2*
G1X249652Y98152D1*
G1X249652Y104252D2*
G1X249652Y105452D1*
G1X249652Y107030D2*
G1X249652Y113652D1*
G1X249652Y114273D2*
G1X249652Y115570D1*
G1X249652Y121439D2*
G1X249652Y122732D1*
G1X249652Y123652D2*
G1X249652Y131796D1*
G1X249652Y133152D2*
G1X249652Y140658D1*
G1X249752Y60152D2*
G1X249752Y61352D1*
G1X249752Y69152D2*
G1X249752Y70352D1*
G1X249752Y76552D2*
G1X249752Y77752D1*
G1X249752Y79264D2*
G1X249752Y86852D1*
G1X249752Y87548D2*
G1X249752Y88845D1*
G1X249752Y94763D2*
G1X249752Y96057D1*
G1X249752Y96952D2*
G1X249752Y98152D1*
G1X249752Y104252D2*
G1X249752Y105452D1*
G1X249752Y107180D2*
G1X249752Y113652D1*
G1X249752Y114248D2*
G1X249752Y115545D1*
G1X249752Y121463D2*
G1X249752Y122757D1*
G1X249752Y123652D2*
G1X249752Y131664D1*
G1X249752Y133152D2*
G1X249752Y140483D1*
G1X249852Y60152D2*
G1X249852Y61352D1*
G1X249852Y69152D2*
G1X249852Y70352D1*
G1X249852Y76552D2*
G1X249852Y77752D1*
G1X249852Y79464D2*
G1X249852Y86852D1*
G1X249852Y87523D2*
G1X249852Y88820D1*
G1X249852Y94787D2*
G1X249852Y96082D1*
G1X249852Y96952D2*
G1X249852Y98152D1*
G1X249852Y104252D2*
G1X249852Y105452D1*
G1X249852Y107330D2*
G1X249852Y113652D1*
G1X249852Y114223D2*
G1X249852Y115520D1*
G1X249852Y121487D2*
G1X249852Y122782D1*
G1X249852Y123652D2*
G1X249852Y131497D1*
G1X249852Y133152D2*
G1X249852Y140308D1*
G1X249952Y60152D2*
G1X249952Y61352D1*
G1X249952Y69152D2*
G1X249952Y70352D1*
G1X249952Y76552D2*
G1X249952Y77752D1*
G1X249952Y79664D2*
G1X249952Y86852D1*
G1X249952Y87498D2*
G1X249952Y88795D1*
G1X249952Y94811D2*
G1X249952Y96107D1*
G1X249952Y96952D2*
G1X249952Y98152D1*
G1X249952Y104252D2*
G1X249952Y105452D1*
G1X249952Y107480D2*
G1X249952Y113652D1*
G1X249952Y114198D2*
G1X249952Y115495D1*
G1X249952Y121511D2*
G1X249952Y122807D1*
G1X249952Y123652D2*
G1X249952Y131330D1*
G1X249952Y133152D2*
G1X249952Y140133D1*
G1X250052Y60152D2*
G1X250052Y61352D1*
G1X250052Y69152D2*
G1X250052Y70352D1*
G1X250052Y76552D2*
G1X250052Y77752D1*
G1X250052Y80304D2*
G1X250052Y86852D1*
G1X250052Y87473D2*
G1X250052Y88770D1*
G1X250052Y94836D2*
G1X250052Y96132D1*
G1X250052Y96952D2*
G1X250052Y98152D1*
G1X250052Y104252D2*
G1X250052Y105452D1*
G1X250052Y108178D2*
G1X250052Y113652D1*
G1X250052Y114173D2*
G1X250052Y115470D1*
G1X250052Y121536D2*
G1X250052Y122832D1*
G1X250052Y123652D2*
G1X250052Y130775D1*
G1X250052Y133152D2*
G1X250052Y139426D1*
G1X254752Y85592D2*
G1X254752Y86560D1*
G1X254852Y72869D2*
G1X254852Y74140D1*
G1X254852Y75672D2*
G1X254852Y76943D1*
G1X254852Y78663D2*
G1X254852Y80979D1*
G1X254852Y85282D2*
G1X254852Y87044D1*
G1X254852Y87927D2*
G1X254852Y88054D1*
G1X254852Y89598D2*
G1X254852Y91336D1*
G1X254852Y92775D2*
G1X254852Y94140D1*
G1X254852Y95205D2*
G1X254852Y99249D1*
G1X254852Y100813D2*
G1X254852Y103772D1*
G1X254852Y106794D2*
G1X254852Y111024D1*
G1X254852Y112308D2*
G1X254852Y114624D1*
G1X254852Y117635D2*
G1X254852Y120595D1*
G1X254852Y122869D2*
G1X254852Y123981D1*
G1X254852Y126682D2*
G1X254852Y127784D1*
G1X254952Y72842D2*
G1X254952Y74167D1*
G1X254952Y75645D2*
G1X254952Y76970D1*
G1X254952Y78636D2*
G1X254952Y81014D1*
G1X254952Y85012D2*
G1X254952Y86135D1*
G1X254952Y86308D2*
G1X254952Y87204D1*
G1X254952Y87877D2*
G1X254952Y88104D1*
G1X254952Y89571D2*
G1X254952Y91363D1*
G1X254952Y92748D2*
G1X254952Y94167D1*
G1X254952Y95178D2*
G1X254952Y99249D1*
G1X254952Y100786D2*
G1X254952Y103922D1*
G1X254952Y106767D2*
G1X254952Y111024D1*
G1X254952Y112281D2*
G1X254952Y114659D1*
G1X254952Y117608D2*
G1X254952Y120745D1*
G1X254952Y122842D2*
G1X254952Y124026D1*
G1X254952Y126646D2*
G1X254952Y127812D1*
G1X255052Y73265D2*
G1X255052Y73556D1*
G1X255052Y76256D2*
G1X255052Y76547D1*
G1X255052Y79994D2*
G1X255052Y80285D1*
G1X255052Y80742D2*
G1X255052Y81049D1*
G1X255052Y84912D2*
G1X255052Y85655D1*
G1X255052Y86836D2*
G1X255052Y87364D1*
G1X255052Y87853D2*
G1X255052Y88127D1*
G1X255052Y90181D2*
G1X255052Y90472D1*
G1X255052Y93358D2*
G1X255052Y93835D1*
G1X255052Y95788D2*
G1X255052Y96080D1*
G1X255052Y98966D2*
G1X255052Y99249D1*
G1X255052Y101396D2*
G1X255052Y101687D1*
G1X255052Y103243D2*
G1X255052Y104072D1*
G1X255052Y107377D2*
G1X255052Y107669D1*
G1X255052Y110742D2*
G1X255052Y111024D1*
G1X255052Y113639D2*
G1X255052Y113930D1*
G1X255052Y114386D2*
G1X255052Y114694D1*
G1X255052Y118218D2*
G1X255052Y118510D1*
G1X255052Y120065D2*
G1X255052Y120895D1*
G1X255052Y123265D2*
G1X255052Y123556D1*
G1X255052Y123732D2*
G1X255052Y124070D1*
G1X255052Y126610D2*
G1X255052Y126921D1*
G1X255052Y127097D2*
G1X255052Y127388D1*
G1X255152Y73274D2*
G1X255152Y73548D1*
G1X255152Y76264D2*
G1X255152Y76538D1*
G1X255152Y79980D2*
G1X255152Y80247D1*
G1X255152Y80780D2*
G1X255152Y81084D1*
G1X255152Y84812D2*
G1X255152Y85321D1*
G1X255152Y87069D2*
G1X255152Y87524D1*
G1X255152Y87853D2*
G1X255152Y88127D1*
G1X255152Y90190D2*
G1X255152Y90463D1*
G1X255152Y93311D2*
G1X255152Y93720D1*
G1X255152Y95797D2*
G1X255152Y96071D1*
G1X255152Y98975D2*
G1X255152Y99249D1*
G1X255152Y101405D2*
G1X255152Y101678D1*
G1X255152Y103658D2*
G1X255152Y104222D1*
G1X255152Y107386D2*
G1X255152Y107660D1*
G1X255152Y110750D2*
G1X255152Y111024D1*
G1X255152Y113625D2*
G1X255152Y113892D1*
G1X255152Y114425D2*
G1X255152Y114729D1*
G1X255152Y118227D2*
G1X255152Y118501D1*
G1X255152Y120481D2*
G1X255152Y121045D1*
G1X255152Y123274D2*
G1X255152Y123548D1*
G1X255152Y123778D2*
G1X255152Y124115D1*
G1X255152Y126574D2*
G1X255152Y126881D1*
G1X255152Y127106D2*
G1X255152Y127379D1*
G1X255252Y73274D2*
G1X255252Y73548D1*
G1X255252Y76264D2*
G1X255252Y76538D1*
G1X255252Y79944D2*
G1X255252Y80210D1*
G1X255252Y80817D2*
G1X255252Y81120D1*
G1X255252Y84712D2*
G1X255252Y85196D1*
G1X255252Y87302D2*
G1X255252Y87684D1*
G1X255252Y87853D2*
G1X255252Y88127D1*
G1X255252Y90190D2*
G1X255252Y90463D1*
G1X255252Y93196D2*
G1X255252Y93606D1*
G1X255252Y95797D2*
G1X255252Y96071D1*
G1X255252Y98975D2*
G1X255252Y99249D1*
G1X255252Y101405D2*
G1X255252Y101678D1*
G1X255252Y103825D2*
G1X255252Y104344D1*
G1X255252Y107386D2*
G1X255252Y107660D1*
G1X255252Y110750D2*
G1X255252Y111024D1*
G1X255252Y113589D2*
G1X255252Y113855D1*
G1X255252Y114461D2*
G1X255252Y114765D1*
G1X255252Y118227D2*
G1X255252Y118501D1*
G1X255252Y120647D2*
G1X255252Y121166D1*
G1X255252Y123274D2*
G1X255252Y123548D1*
G1X255252Y123822D2*
G1X255252Y124159D1*
G1X255252Y126538D2*
G1X255252Y126842D1*
G1X255252Y127106D2*
G1X255252Y127379D1*
G1X255352Y73274D2*
G1X255352Y73548D1*
G1X255352Y76264D2*
G1X255352Y76538D1*
G1X255352Y79908D2*
G1X255352Y80174D1*
G1X255352Y80853D2*
G1X255352Y81155D1*
G1X255352Y84612D2*
G1X255352Y85071D1*
G1X255352Y87485D2*
G1X255352Y88127D1*
G1X255352Y90190D2*
G1X255352Y90463D1*
G1X255352Y93080D2*
G1X255352Y93492D1*
G1X255352Y95797D2*
G1X255352Y96071D1*
G1X255352Y98975D2*
G1X255352Y99249D1*
G1X255352Y101405D2*
G1X255352Y101678D1*
G1X255352Y103992D2*
G1X255352Y104424D1*
G1X255352Y107386D2*
G1X255352Y107660D1*
G1X255352Y110750D2*
G1X255352Y111024D1*
G1X255352Y113553D2*
G1X255352Y113819D1*
G1X255352Y114498D2*
G1X255352Y114800D1*
G1X255352Y118227D2*
G1X255352Y118501D1*
G1X255352Y120814D2*
G1X255352Y121246D1*
G1X255352Y123274D2*
G1X255352Y123548D1*
G1X255352Y123866D2*
G1X255352Y124204D1*
G1X255352Y126502D2*
G1X255352Y126803D1*
G1X255352Y127106D2*
G1X255352Y127379D1*
G1X255452Y73274D2*
G1X255452Y73548D1*
G1X255452Y76264D2*
G1X255452Y76538D1*
G1X255452Y79872D2*
G1X255452Y80137D1*
G1X255452Y80890D2*
G1X255452Y81190D1*
G1X255452Y84523D2*
G1X255452Y84946D1*
G1X255452Y87560D2*
G1X255452Y88127D1*
G1X255452Y90190D2*
G1X255452Y90463D1*
G1X255452Y92965D2*
G1X255452Y93377D1*
G1X255452Y95797D2*
G1X255452Y96071D1*
G1X255452Y98975D2*
G1X255452Y99249D1*
G1X255452Y101405D2*
G1X255452Y101678D1*
G1X255452Y104126D2*
G1X255452Y104504D1*
G1X255452Y107386D2*
G1X255452Y107660D1*
G1X255452Y110750D2*
G1X255452Y111024D1*
G1X255452Y113517D2*
G1X255452Y113782D1*
G1X255452Y114535D2*
G1X255452Y114835D1*
G1X255452Y118227D2*
G1X255452Y118501D1*
G1X255452Y120948D2*
G1X255452Y121326D1*
G1X255452Y123274D2*
G1X255452Y123548D1*
G1X255452Y123911D2*
G1X255452Y124248D1*
G1X255452Y126466D2*
G1X255452Y126764D1*
G1X255452Y127106D2*
G1X255452Y127379D1*
G1X255552Y73274D2*
G1X255552Y73548D1*
G1X255552Y76264D2*
G1X255552Y76538D1*
G1X255552Y79836D2*
G1X255552Y80100D1*
G1X255552Y80927D2*
G1X255552Y81225D1*
G1X255552Y84443D2*
G1X255552Y84843D1*
G1X255552Y87635D2*
G1X255552Y88127D1*
G1X255552Y90190D2*
G1X255552Y90463D1*
G1X255552Y92849D2*
G1X255552Y93263D1*
G1X255552Y95797D2*
G1X255552Y96071D1*
G1X255552Y98975D2*
G1X255552Y99249D1*
G1X255552Y101405D2*
G1X255552Y101678D1*
G1X255552Y104201D2*
G1X255552Y104584D1*
G1X255552Y107386D2*
G1X255552Y107660D1*
G1X255552Y110750D2*
G1X255552Y111024D1*
G1X255552Y113481D2*
G1X255552Y113745D1*
G1X255552Y114571D2*
G1X255552Y114870D1*
G1X255552Y118227D2*
G1X255552Y118501D1*
G1X255552Y121023D2*
G1X255552Y121406D1*
G1X255552Y123274D2*
G1X255552Y123548D1*
G1X255552Y123955D2*
G1X255552Y124292D1*
G1X255552Y126430D2*
G1X255552Y126725D1*
G1X255552Y127106D2*
G1X255552Y127379D1*
G1X255652Y73274D2*
G1X255652Y73548D1*
G1X255652Y76264D2*
G1X255652Y76538D1*
G1X255652Y79800D2*
G1X255652Y80064D1*
G1X255652Y80963D2*
G1X255652Y81260D1*
G1X255652Y84363D2*
G1X255652Y84776D1*
G1X255652Y87710D2*
G1X255652Y88127D1*
G1X255652Y90190D2*
G1X255652Y90463D1*
G1X255652Y92734D2*
G1X255652Y93149D1*
G1X255652Y95797D2*
G1X255652Y96071D1*
G1X255652Y98975D2*
G1X255652Y99249D1*
G1X255652Y101405D2*
G1X255652Y101678D1*
G1X255652Y104276D2*
G1X255652Y104664D1*
G1X255652Y107386D2*
G1X255652Y107660D1*
G1X255652Y110750D2*
G1X255652Y111024D1*
G1X255652Y113445D2*
G1X255652Y113709D1*
G1X255652Y114608D2*
G1X255652Y114905D1*
G1X255652Y118227D2*
G1X255652Y118501D1*
G1X255652Y121098D2*
G1X255652Y121486D1*
G1X255652Y123274D2*
G1X255652Y123548D1*
G1X255652Y124000D2*
G1X255652Y124337D1*
G1X255652Y126393D2*
G1X255652Y126686D1*
G1X255652Y127106D2*
G1X255652Y127379D1*
G1X255752Y73274D2*
G1X255752Y73548D1*
G1X255752Y76264D2*
G1X255752Y76538D1*
G1X255752Y79764D2*
G1X255752Y80027D1*
G1X255752Y81000D2*
G1X255752Y81296D1*
G1X255752Y84283D2*
G1X255752Y84710D1*
G1X255752Y87766D2*
G1X255752Y88127D1*
G1X255752Y90190D2*
G1X255752Y90463D1*
G1X255752Y92619D2*
G1X255752Y93035D1*
G1X255752Y95797D2*
G1X255752Y96071D1*
G1X255752Y98975D2*
G1X255752Y99249D1*
G1X255752Y101405D2*
G1X255752Y101678D1*
G1X255752Y104351D2*
G1X255752Y104687D1*
G1X255752Y107386D2*
G1X255752Y107660D1*
G1X255752Y110750D2*
G1X255752Y111024D1*
G1X255752Y113409D2*
G1X255752Y113672D1*
G1X255752Y114645D2*
G1X255752Y114940D1*
G1X255752Y118227D2*
G1X255752Y118501D1*
G1X255752Y121173D2*
G1X255752Y121509D1*
G1X255752Y123274D2*
G1X255752Y123548D1*
G1X255752Y124044D2*
G1X255752Y124381D1*
G1X255752Y126357D2*
G1X255752Y126647D1*
G1X255752Y127106D2*
G1X255752Y127379D1*
G1X255852Y73274D2*
G1X255852Y73548D1*
G1X255852Y76264D2*
G1X255852Y76538D1*
G1X255852Y79728D2*
G1X255852Y79990D1*
G1X255852Y81037D2*
G1X255852Y81331D1*
G1X255852Y84203D2*
G1X255852Y84643D1*
G1X255852Y87791D2*
G1X255852Y88127D1*
G1X255852Y90190D2*
G1X255852Y90463D1*
G1X255852Y92503D2*
G1X255852Y92920D1*
G1X255852Y95797D2*
G1X255852Y96071D1*
G1X255852Y98975D2*
G1X255852Y99249D1*
G1X255852Y101405D2*
G1X255852Y101678D1*
G1X255852Y104403D2*
G1X255852Y104704D1*
G1X255852Y107386D2*
G1X255852Y107660D1*
G1X255852Y110750D2*
G1X255852Y111024D1*
G1X255852Y113373D2*
G1X255852Y113635D1*
G1X255852Y114681D2*
G1X255852Y114976D1*
G1X255852Y118227D2*
G1X255852Y118501D1*
G1X255852Y121225D2*
G1X255852Y121526D1*
G1X255852Y123274D2*
G1X255852Y123548D1*
G1X255852Y124089D2*
G1X255852Y124426D1*
G1X255852Y126321D2*
G1X255852Y126608D1*
G1X255852Y127106D2*
G1X255852Y127379D1*
G1X255952Y73274D2*
G1X255952Y73548D1*
G1X255952Y76264D2*
G1X255952Y76538D1*
G1X255952Y79692D2*
G1X255952Y79954D1*
G1X255952Y81073D2*
G1X255952Y81366D1*
G1X255952Y84170D2*
G1X255952Y84576D1*
G1X255952Y87816D2*
G1X255952Y88127D1*
G1X255952Y90190D2*
G1X255952Y90463D1*
G1X255952Y92388D2*
G1X255952Y92806D1*
G1X255952Y95797D2*
G1X255952Y96071D1*
G1X255952Y98975D2*
G1X255952Y99249D1*
G1X255952Y101405D2*
G1X255952Y101678D1*
G1X255952Y104428D2*
G1X255952Y104720D1*
G1X255952Y107386D2*
G1X255952Y107660D1*
G1X255952Y110750D2*
G1X255952Y111024D1*
G1X255952Y113337D2*
G1X255952Y113599D1*
G1X255952Y114718D2*
G1X255952Y115011D1*
G1X255952Y118227D2*
G1X255952Y118501D1*
G1X255952Y121250D2*
G1X255952Y121543D1*
G1X255952Y123274D2*
G1X255952Y123548D1*
G1X255952Y124133D2*
G1X255952Y124470D1*
G1X255952Y126285D2*
G1X255952Y126570D1*
G1X255952Y127106D2*
G1X255952Y127379D1*
G1X256052Y73274D2*
G1X256052Y73548D1*
G1X256052Y76264D2*
G1X256052Y76538D1*
G1X256052Y79656D2*
G1X256052Y79917D1*
G1X256052Y81110D2*
G1X256052Y81401D1*
G1X256052Y84136D2*
G1X256052Y84510D1*
G1X256052Y87841D2*
G1X256052Y88103D1*
G1X256052Y90190D2*
G1X256052Y90463D1*
G1X256052Y92273D2*
G1X256052Y92692D1*
G1X256052Y95797D2*
G1X256052Y96071D1*
G1X256052Y98999D2*
G1X256052Y99224D1*
G1X256052Y101405D2*
G1X256052Y101678D1*
G1X256052Y104453D2*
G1X256052Y104737D1*
G1X256052Y107386D2*
G1X256052Y107660D1*
G1X256052Y110775D2*
G1X256052Y111000D1*
G1X256052Y113301D2*
G1X256052Y113562D1*
G1X256052Y114755D2*
G1X256052Y115046D1*
G1X256052Y118227D2*
G1X256052Y118501D1*
G1X256052Y121275D2*
G1X256052Y121559D1*
G1X256052Y123274D2*
G1X256052Y123548D1*
G1X256052Y124178D2*
G1X256052Y124515D1*
G1X256052Y126249D2*
G1X256052Y126531D1*
G1X256052Y127106D2*
G1X256052Y127379D1*
G1X256152Y73274D2*
G1X256152Y73548D1*
G1X256152Y76264D2*
G1X256152Y76538D1*
G1X256152Y79620D2*
G1X256152Y79880D1*
G1X256152Y81147D2*
G1X256152Y81436D1*
G1X256152Y84103D2*
G1X256152Y84443D1*
G1X256152Y87881D2*
G1X256152Y88053D1*
G1X256152Y90190D2*
G1X256152Y90463D1*
G1X256152Y92157D2*
G1X256152Y92577D1*
G1X256152Y95797D2*
G1X256152Y96071D1*
G1X256152Y99049D2*
G1X256152Y99174D1*
G1X256152Y101405D2*
G1X256152Y101678D1*
G1X256152Y104478D2*
G1X256152Y104754D1*
G1X256152Y107386D2*
G1X256152Y107660D1*
G1X256152Y110825D2*
G1X256152Y110950D1*
G1X256152Y113265D2*
G1X256152Y113525D1*
G1X256152Y114791D2*
G1X256152Y115081D1*
G1X256152Y118227D2*
G1X256152Y118501D1*
G1X256152Y121300D2*
G1X256152Y121576D1*
G1X256152Y123274D2*
G1X256152Y123548D1*
G1X256152Y124222D2*
G1X256152Y124559D1*
G1X256152Y126213D2*
G1X256152Y126492D1*
G1X256152Y127106D2*
G1X256152Y127379D1*
G1X256252Y73274D2*
G1X256252Y73548D1*
G1X256252Y76264D2*
G1X256252Y76538D1*
G1X256252Y79584D2*
G1X256252Y79844D1*
G1X256252Y81183D2*
G1X256252Y81472D1*
G1X256252Y84070D2*
G1X256252Y84376D1*
G1X256252Y90190D2*
G1X256252Y90463D1*
G1X256252Y92042D2*
G1X256252Y92463D1*
G1X256252Y95797D2*
G1X256252Y96071D1*
G1X256252Y101405D2*
G1X256252Y101678D1*
G1X256252Y104489D2*
G1X256252Y104749D1*
G1X256252Y107386D2*
G1X256252Y107660D1*
G1X256252Y113229D2*
G1X256252Y113489D1*
G1X256252Y114828D2*
G1X256252Y115116D1*
G1X256252Y118227D2*
G1X256252Y118501D1*
G1X256252Y121311D2*
G1X256252Y121571D1*
G1X256252Y123274D2*
G1X256252Y123548D1*
G1X256252Y124266D2*
G1X256252Y124604D1*
G1X256252Y126177D2*
G1X256252Y126453D1*
G1X256252Y127106D2*
G1X256252Y127379D1*
G1X256352Y73274D2*
G1X256352Y73548D1*
G1X256352Y76264D2*
G1X256352Y76538D1*
G1X256352Y79548D2*
G1X256352Y79807D1*
G1X256352Y81220D2*
G1X256352Y81507D1*
G1X256352Y84036D2*
G1X256352Y84310D1*
G1X256352Y90190D2*
G1X256352Y90463D1*
G1X256352Y91926D2*
G1X256352Y92349D1*
G1X256352Y95797D2*
G1X256352Y96071D1*
G1X256352Y101405D2*
G1X256352Y101678D1*
G1X256352Y104489D2*
G1X256352Y104724D1*
G1X256352Y107386D2*
G1X256352Y107660D1*
G1X256352Y113193D2*
G1X256352Y113452D1*
G1X256352Y114865D2*
G1X256352Y115152D1*
G1X256352Y118227D2*
G1X256352Y118501D1*
G1X256352Y121311D2*
G1X256352Y121546D1*
G1X256352Y123274D2*
G1X256352Y123548D1*
G1X256352Y124311D2*
G1X256352Y124648D1*
G1X256352Y126141D2*
G1X256352Y126414D1*
G1X256352Y127106D2*
G1X256352Y127379D1*
G1X256452Y73274D2*
G1X256452Y73548D1*
G1X256452Y76264D2*
G1X256452Y76538D1*
G1X256452Y79512D2*
G1X256452Y79770D1*
G1X256452Y81257D2*
G1X256452Y81542D1*
G1X256452Y84013D2*
G1X256452Y84286D1*
G1X256452Y90190D2*
G1X256452Y90463D1*
G1X256452Y91811D2*
G1X256452Y92235D1*
G1X256452Y95797D2*
G1X256452Y96071D1*
G1X256452Y101405D2*
G1X256452Y101678D1*
G1X256452Y104489D2*
G1X256452Y104699D1*
G1X256452Y107386D2*
G1X256452Y107660D1*
G1X256452Y113157D2*
G1X256452Y113415D1*
G1X256452Y114901D2*
G1X256452Y115187D1*
G1X256452Y118227D2*
G1X256452Y118501D1*
G1X256452Y121311D2*
G1X256452Y121521D1*
G1X256452Y123274D2*
G1X256452Y123548D1*
G1X256452Y124355D2*
G1X256452Y124692D1*
G1X256452Y126105D2*
G1X256452Y126375D1*
G1X256452Y127106D2*
G1X256452Y127379D1*
G1X256552Y73274D2*
G1X256552Y73548D1*
G1X256552Y76264D2*
G1X256552Y76538D1*
G1X256552Y79476D2*
G1X256552Y79734D1*
G1X256552Y81293D2*
G1X256552Y81577D1*
G1X256552Y83999D2*
G1X256552Y84271D1*
G1X256552Y90190D2*
G1X256552Y90463D1*
G1X256552Y91696D2*
G1X256552Y92120D1*
G1X256552Y95797D2*
G1X256552Y96071D1*
G1X256552Y101405D2*
G1X256552Y101678D1*
G1X256552Y104440D2*
G1X256552Y104673D1*
G1X256552Y107386D2*
G1X256552Y107660D1*
G1X256552Y113121D2*
G1X256552Y113379D1*
G1X256552Y114938D2*
G1X256552Y115222D1*
G1X256552Y118227D2*
G1X256552Y118501D1*
G1X256552Y121262D2*
G1X256552Y121496D1*
G1X256552Y123274D2*
G1X256552Y123548D1*
G1X256552Y124400D2*
G1X256552Y124737D1*
G1X256552Y126068D2*
G1X256552Y126336D1*
G1X256552Y127106D2*
G1X256552Y127379D1*
G1X256652Y73274D2*
G1X256652Y73548D1*
G1X256652Y76264D2*
G1X256652Y76538D1*
G1X256652Y79440D2*
G1X256652Y79697D1*
G1X256652Y81330D2*
G1X256652Y81612D1*
G1X256652Y83984D2*
G1X256652Y84257D1*
G1X256652Y90190D2*
G1X256652Y90463D1*
G1X256652Y91580D2*
G1X256652Y92006D1*
G1X256652Y95797D2*
G1X256652Y96071D1*
G1X256652Y97541D2*
G1X256652Y97692D1*
G1X256652Y101405D2*
G1X256652Y101678D1*
G1X256652Y104340D2*
G1X256652Y104635D1*
G1X256652Y107386D2*
G1X256652Y107660D1*
G1X256652Y109129D2*
G1X256652Y109281D1*
G1X256652Y113085D2*
G1X256652Y113342D1*
G1X256652Y114975D2*
G1X256652Y115257D1*
G1X256652Y118227D2*
G1X256652Y118501D1*
G1X256652Y121162D2*
G1X256652Y121457D1*
G1X256652Y123274D2*
G1X256652Y123548D1*
G1X256652Y124444D2*
G1X256652Y124781D1*
G1X256652Y126032D2*
G1X256652Y126297D1*
G1X256652Y127106D2*
G1X256652Y127379D1*
G1X256752Y73274D2*
G1X256752Y73548D1*
G1X256752Y76264D2*
G1X256752Y76538D1*
G1X256752Y79404D2*
G1X256752Y79660D1*
G1X256752Y81367D2*
G1X256752Y81647D1*
G1X256752Y83970D2*
G1X256752Y84243D1*
G1X256752Y90190D2*
G1X256752Y90463D1*
G1X256752Y91465D2*
G1X256752Y91892D1*
G1X256752Y95797D2*
G1X256752Y96071D1*
G1X256752Y97491D2*
G1X256752Y97742D1*
G1X256752Y101405D2*
G1X256752Y101678D1*
G1X256752Y104257D2*
G1X256752Y104595D1*
G1X256752Y107386D2*
G1X256752Y107660D1*
G1X256752Y109079D2*
G1X256752Y109331D1*
G1X256752Y113049D2*
G1X256752Y113305D1*
G1X256752Y115011D2*
G1X256752Y115292D1*
G1X256752Y118227D2*
G1X256752Y118501D1*
G1X256752Y121079D2*
G1X256752Y121417D1*
G1X256752Y123274D2*
G1X256752Y123548D1*
G1X256752Y124489D2*
G1X256752Y124826D1*
G1X256752Y125996D2*
G1X256752Y126258D1*
G1X256752Y127106D2*
G1X256752Y127379D1*
G1X256852Y73274D2*
G1X256852Y73548D1*
G1X256852Y76264D2*
G1X256852Y76538D1*
G1X256852Y79368D2*
G1X256852Y79624D1*
G1X256852Y81403D2*
G1X256852Y81683D1*
G1X256852Y83956D2*
G1X256852Y84229D1*
G1X256852Y90190D2*
G1X256852Y90463D1*
G1X256852Y91349D2*
G1X256852Y91777D1*
G1X256852Y95797D2*
G1X256852Y96071D1*
G1X256852Y97479D2*
G1X256852Y97753D1*
G1X256852Y101405D2*
G1X256852Y101678D1*
G1X256852Y104190D2*
G1X256852Y104555D1*
G1X256852Y107386D2*
G1X256852Y107660D1*
G1X256852Y109068D2*
G1X256852Y109342D1*
G1X256852Y113013D2*
G1X256852Y113269D1*
G1X256852Y115048D2*
G1X256852Y115327D1*
G1X256852Y118227D2*
G1X256852Y118501D1*
G1X256852Y121012D2*
G1X256852Y121377D1*
G1X256852Y123274D2*
G1X256852Y123548D1*
G1X256852Y124533D2*
G1X256852Y124870D1*
G1X256852Y125960D2*
G1X256852Y126220D1*
G1X256852Y127106D2*
G1X256852Y127379D1*
G1X256952Y73274D2*
G1X256952Y73548D1*
G1X256952Y76264D2*
G1X256952Y76538D1*
G1X256952Y79332D2*
G1X256952Y79587D1*
G1X256952Y81440D2*
G1X256952Y81718D1*
G1X256952Y83941D2*
G1X256952Y84214D1*
G1X256952Y90190D2*
G1X256952Y90463D1*
G1X256952Y91234D2*
G1X256952Y91663D1*
G1X256952Y95797D2*
G1X256952Y96071D1*
G1X256952Y97479D2*
G1X256952Y97753D1*
G1X256952Y101405D2*
G1X256952Y101678D1*
G1X256952Y104123D2*
G1X256952Y104515D1*
G1X256952Y107386D2*
G1X256952Y107660D1*
G1X256952Y109068D2*
G1X256952Y109342D1*
G1X256952Y112977D2*
G1X256952Y113232D1*
G1X256952Y115085D2*
G1X256952Y115363D1*
G1X256952Y118227D2*
G1X256952Y118501D1*
G1X256952Y120946D2*
G1X256952Y121337D1*
G1X256952Y123274D2*
G1X256952Y123548D1*
G1X256952Y124578D2*
G1X256952Y124915D1*
G1X256952Y125924D2*
G1X256952Y126181D1*
G1X256952Y127106D2*
G1X256952Y127379D1*
G1X257052Y73274D2*
G1X257052Y73548D1*
G1X257052Y76264D2*
G1X257052Y76538D1*
G1X257052Y79296D2*
G1X257052Y79550D1*
G1X257052Y81477D2*
G1X257052Y81753D1*
G1X257052Y83928D2*
G1X257052Y84202D1*
G1X257052Y90190D2*
G1X257052Y90463D1*
G1X257052Y91119D2*
G1X257052Y91586D1*
G1X257052Y95797D2*
G1X257052Y96071D1*
G1X257052Y97479D2*
G1X257052Y97753D1*
G1X257052Y101405D2*
G1X257052Y101678D1*
G1X257052Y103972D2*
G1X257052Y104420D1*
G1X257052Y107386D2*
G1X257052Y107660D1*
G1X257052Y109068D2*
G1X257052Y109342D1*
G1X257052Y112941D2*
G1X257052Y113195D1*
G1X257052Y115121D2*
G1X257052Y115398D1*
G1X257052Y118227D2*
G1X257052Y118501D1*
G1X257052Y120794D2*
G1X257052Y121243D1*
G1X257052Y123274D2*
G1X257052Y123548D1*
G1X257052Y124622D2*
G1X257052Y124959D1*
G1X257052Y125888D2*
G1X257052Y126142D1*
G1X257052Y127106D2*
G1X257052Y127379D1*
G1X257152Y73274D2*
G1X257152Y73550D1*
G1X257152Y76262D2*
G1X257152Y76538D1*
G1X257152Y79260D2*
G1X257152Y79514D1*
G1X257152Y81513D2*
G1X257152Y81788D1*
G1X257152Y83928D2*
G1X257152Y84202D1*
G1X257152Y90190D2*
G1X257152Y90463D1*
G1X257152Y91003D2*
G1X257152Y91715D1*
G1X257152Y95797D2*
G1X257152Y96073D1*
G1X257152Y97477D2*
G1X257152Y97753D1*
G1X257152Y101405D2*
G1X257152Y101678D1*
G1X257152Y103772D2*
G1X257152Y104253D1*
G1X257152Y107386D2*
G1X257152Y107662D1*
G1X257152Y109066D2*
G1X257152Y109342D1*
G1X257152Y112905D2*
G1X257152Y113159D1*
G1X257152Y115158D2*
G1X257152Y115433D1*
G1X257152Y118227D2*
G1X257152Y118501D1*
G1X257152Y120594D2*
G1X257152Y121076D1*
G1X257152Y123274D2*
G1X257152Y123548D1*
G1X257152Y124666D2*
G1X257152Y125004D1*
G1X257152Y125852D2*
G1X257152Y126103D1*
G1X257152Y127106D2*
G1X257152Y127379D1*
G1X257252Y73274D2*
G1X257252Y76538D1*
G1X257252Y79224D2*
G1X257252Y79477D1*
G1X257252Y81550D2*
G1X257252Y81823D1*
G1X257252Y83928D2*
G1X257252Y84202D1*
G1X257252Y90190D2*
G1X257252Y90463D1*
G1X257252Y90888D2*
G1X257252Y91875D1*
G1X257252Y95797D2*
G1X257252Y97753D1*
G1X257252Y101405D2*
G1X257252Y101678D1*
G1X257252Y103537D2*
G1X257252Y104087D1*
G1X257252Y107386D2*
G1X257252Y109342D1*
G1X257252Y112869D2*
G1X257252Y113122D1*
G1X257252Y115195D2*
G1X257252Y115468D1*
G1X257252Y118227D2*
G1X257252Y118501D1*
G1X257252Y120359D2*
G1X257252Y120909D1*
G1X257252Y123274D2*
G1X257252Y123548D1*
G1X257252Y124711D2*
G1X257252Y125048D1*
G1X257252Y125816D2*
G1X257252Y126064D1*
G1X257252Y127106D2*
G1X257252Y127379D1*
G1X257352Y73274D2*
G1X257352Y76538D1*
G1X257352Y79188D2*
G1X257352Y79440D1*
G1X257352Y81587D2*
G1X257352Y81859D1*
G1X257352Y83928D2*
G1X257352Y84202D1*
G1X257352Y90190D2*
G1X257352Y90463D1*
G1X257352Y90773D2*
G1X257352Y91153D1*
G1X257352Y91430D2*
G1X257352Y92035D1*
G1X257352Y95797D2*
G1X257352Y97753D1*
G1X257352Y101405D2*
G1X257352Y101687D1*
G1X257352Y103287D2*
G1X257352Y103896D1*
G1X257352Y107386D2*
G1X257352Y109342D1*
G1X257352Y112833D2*
G1X257352Y113085D1*
G1X257352Y115231D2*
G1X257352Y115503D1*
G1X257352Y118227D2*
G1X257352Y118510D1*
G1X257352Y120109D2*
G1X257352Y120718D1*
G1X257352Y123274D2*
G1X257352Y123548D1*
G1X257352Y124755D2*
G1X257352Y125092D1*
G1X257352Y125780D2*
G1X257352Y126025D1*
G1X257352Y127106D2*
G1X257352Y127379D1*
G1X257452Y73274D2*
G1X257452Y76538D1*
G1X257452Y79152D2*
G1X257452Y79404D1*
G1X257452Y81623D2*
G1X257452Y81894D1*
G1X257452Y83928D2*
G1X257452Y84202D1*
G1X257452Y90190D2*
G1X257452Y90463D1*
G1X257452Y90657D2*
G1X257452Y91038D1*
G1X257452Y91630D2*
G1X257452Y92195D1*
G1X257452Y95797D2*
G1X257452Y97753D1*
G1X257452Y101405D2*
G1X257452Y103696D1*
G1X257452Y107386D2*
G1X257452Y109342D1*
G1X257452Y112797D2*
G1X257452Y113049D1*
G1X257452Y115268D2*
G1X257452Y115539D1*
G1X257452Y118227D2*
G1X257452Y120518D1*
G1X257452Y123274D2*
G1X257452Y123548D1*
G1X257452Y124800D2*
G1X257452Y125137D1*
G1X257452Y125743D2*
G1X257452Y125986D1*
G1X257452Y127106D2*
G1X257452Y127379D1*
G1X257552Y73274D2*
G1X257552Y73548D1*
G1X257552Y76264D2*
G1X257552Y76538D1*
G1X257552Y79116D2*
G1X257552Y79367D1*
G1X257552Y81660D2*
G1X257552Y81929D1*
G1X257552Y83928D2*
G1X257552Y84202D1*
G1X257552Y90190D2*
G1X257552Y90486D1*
G1X257552Y90541D2*
G1X257552Y90924D1*
G1X257552Y91830D2*
G1X257552Y92351D1*
G1X257552Y95797D2*
G1X257552Y96071D1*
G1X257552Y97479D2*
G1X257552Y97753D1*
G1X257552Y101405D2*
G1X257552Y103496D1*
G1X257552Y107386D2*
G1X257552Y107660D1*
G1X257552Y109068D2*
G1X257552Y109342D1*
G1X257552Y112761D2*
G1X257552Y113012D1*
G1X257552Y115305D2*
G1X257552Y115574D1*
G1X257552Y118227D2*
G1X257552Y120318D1*
G1X257552Y123274D2*
G1X257552Y123548D1*
G1X257552Y124844D2*
G1X257552Y125181D1*
G1X257552Y125707D2*
G1X257552Y125947D1*
G1X257552Y127106D2*
G1X257552Y127379D1*
G1X257652Y73274D2*
G1X257652Y73548D1*
G1X257652Y76264D2*
G1X257652Y76538D1*
G1X257652Y79080D2*
G1X257652Y79330D1*
G1X257652Y81697D2*
G1X257652Y81964D1*
G1X257652Y83928D2*
G1X257652Y84202D1*
G1X257652Y90190D2*
G1X257652Y90810D1*
G1X257652Y91962D2*
G1X257652Y92426D1*
G1X257652Y95797D2*
G1X257652Y96071D1*
G1X257652Y97479D2*
G1X257652Y97753D1*
G1X257652Y101405D2*
G1X257652Y101707D1*
G1X257652Y102965D2*
G1X257652Y103482D1*
G1X257652Y107386D2*
G1X257652Y107660D1*
G1X257652Y109068D2*
G1X257652Y109342D1*
G1X257652Y112725D2*
G1X257652Y112975D1*
G1X257652Y115341D2*
G1X257652Y115609D1*
G1X257652Y118227D2*
G1X257652Y118530D1*
G1X257652Y119787D2*
G1X257652Y120304D1*
G1X257652Y123274D2*
G1X257652Y123548D1*
G1X257652Y124889D2*
G1X257652Y125226D1*
G1X257652Y125671D2*
G1X257652Y125908D1*
G1X257652Y127106D2*
G1X257652Y127379D1*
G1X257752Y73274D2*
G1X257752Y73548D1*
G1X257752Y76264D2*
G1X257752Y76538D1*
G1X257752Y79044D2*
G1X257752Y79294D1*
G1X257752Y81733D2*
G1X257752Y81999D1*
G1X257752Y83928D2*
G1X257752Y84213D1*
G1X257752Y90190D2*
G1X257752Y90695D1*
G1X257752Y92087D2*
G1X257752Y92501D1*
G1X257752Y95797D2*
G1X257752Y96071D1*
G1X257752Y97479D2*
G1X257752Y97753D1*
G1X257752Y101405D2*
G1X257752Y101678D1*
G1X257752Y103132D2*
G1X257752Y103582D1*
G1X257752Y107386D2*
G1X257752Y107660D1*
G1X257752Y109068D2*
G1X257752Y109342D1*
G1X257752Y112689D2*
G1X257752Y112939D1*
G1X257752Y115378D2*
G1X257752Y115644D1*
G1X257752Y118227D2*
G1X257752Y118501D1*
G1X257752Y119954D2*
G1X257752Y120404D1*
G1X257752Y123274D2*
G1X257752Y123548D1*
G1X257752Y124933D2*
G1X257752Y125270D1*
G1X257752Y125635D2*
G1X257752Y125870D1*
G1X257752Y127106D2*
G1X257752Y127379D1*
G1X257852Y73274D2*
G1X257852Y73548D1*
G1X257852Y76264D2*
G1X257852Y76538D1*
G1X257852Y79008D2*
G1X257852Y79257D1*
G1X257852Y81770D2*
G1X257852Y82034D1*
G1X257852Y83936D2*
G1X257852Y84235D1*
G1X257852Y90190D2*
G1X257852Y90581D1*
G1X257852Y92212D2*
G1X257852Y92576D1*
G1X257852Y95797D2*
G1X257852Y96071D1*
G1X257852Y97479D2*
G1X257852Y97753D1*
G1X257852Y101405D2*
G1X257852Y101678D1*
G1X257852Y103298D2*
G1X257852Y103682D1*
G1X257852Y107386D2*
G1X257852Y107660D1*
G1X257852Y109068D2*
G1X257852Y109342D1*
G1X257852Y112653D2*
G1X257852Y112902D1*
G1X257852Y115415D2*
G1X257852Y115679D1*
G1X257852Y118227D2*
G1X257852Y118501D1*
G1X257852Y120121D2*
G1X257852Y120504D1*
G1X257852Y123274D2*
G1X257852Y123548D1*
G1X257852Y124978D2*
G1X257852Y125315D1*
G1X257852Y125599D2*
G1X257852Y125831D1*
G1X257852Y127106D2*
G1X257852Y127379D1*
G1X257952Y73274D2*
G1X257952Y73548D1*
G1X257952Y76264D2*
G1X257952Y76538D1*
G1X257952Y78972D2*
G1X257952Y82070D1*
G1X257952Y83949D2*
G1X257952Y84257D1*
G1X257952Y90190D2*
G1X257952Y90471D1*
G1X257952Y92332D2*
G1X257952Y92653D1*
G1X257952Y95797D2*
G1X257952Y96071D1*
G1X257952Y97519D2*
G1X257952Y97713D1*
G1X257952Y101405D2*
G1X257952Y101678D1*
G1X257952Y103456D2*
G1X257952Y103782D1*
G1X257952Y107386D2*
G1X257952Y107660D1*
G1X257952Y109108D2*
G1X257952Y109302D1*
G1X257952Y112617D2*
G1X257952Y115715D1*
G1X257952Y118227D2*
G1X257952Y118501D1*
G1X257952Y120278D2*
G1X257952Y120604D1*
G1X257952Y123274D2*
G1X257952Y123548D1*
G1X257952Y125022D2*
G1X257952Y125359D1*
G1X257952Y125563D2*
G1X257952Y125792D1*
G1X257952Y127106D2*
G1X257952Y127379D1*
G1X258052Y73274D2*
G1X258052Y73548D1*
G1X258052Y76264D2*
G1X258052Y76538D1*
G1X258052Y78936D2*
G1X258052Y82105D1*
G1X258052Y83961D2*
G1X258052Y84279D1*
G1X258052Y90190D2*
G1X258052Y90463D1*
G1X258052Y92407D2*
G1X258052Y92733D1*
G1X258052Y95797D2*
G1X258052Y96071D1*
G1X258052Y97574D2*
G1X258052Y97658D1*
G1X258052Y101405D2*
G1X258052Y101678D1*
G1X258052Y103556D2*
G1X258052Y103882D1*
G1X258052Y107386D2*
G1X258052Y107660D1*
G1X258052Y109163D2*
G1X258052Y109247D1*
G1X258052Y112581D2*
G1X258052Y115750D1*
G1X258052Y118227D2*
G1X258052Y118501D1*
G1X258052Y120378D2*
G1X258052Y120704D1*
G1X258052Y123274D2*
G1X258052Y123548D1*
G1X258052Y125066D2*
G1X258052Y125404D1*
G1X258052Y125527D2*
G1X258052Y125753D1*
G1X258052Y127106D2*
G1X258052Y127379D1*
G1X258152Y73274D2*
G1X258152Y73548D1*
G1X258152Y76264D2*
G1X258152Y76538D1*
G1X258152Y78900D2*
G1X258152Y82140D1*
G1X258152Y83974D2*
G1X258152Y84302D1*
G1X258152Y90190D2*
G1X258152Y90463D1*
G1X258152Y92482D2*
G1X258152Y92813D1*
G1X258152Y95797D2*
G1X258152Y96071D1*
G1X258152Y101405D2*
G1X258152Y101678D1*
G1X258152Y103656D2*
G1X258152Y103982D1*
G1X258152Y107386D2*
G1X258152Y107660D1*
G1X258152Y112545D2*
G1X258152Y115785D1*
G1X258152Y118227D2*
G1X258152Y118501D1*
G1X258152Y120478D2*
G1X258152Y120804D1*
G1X258152Y123274D2*
G1X258152Y123548D1*
G1X258152Y125111D2*
G1X258152Y125714D1*
G1X258152Y127106D2*
G1X258152Y127379D1*
G1X258252Y73274D2*
G1X258252Y73548D1*
G1X258252Y76264D2*
G1X258252Y76538D1*
G1X258252Y78864D2*
G1X258252Y79154D1*
G1X258252Y81873D2*
G1X258252Y82175D1*
G1X258252Y83986D2*
G1X258252Y84324D1*
G1X258252Y90190D2*
G1X258252Y90463D1*
G1X258252Y92557D2*
G1X258252Y92893D1*
G1X258252Y95797D2*
G1X258252Y96071D1*
G1X258252Y101405D2*
G1X258252Y101678D1*
G1X258252Y103756D2*
G1X258252Y104082D1*
G1X258252Y107386D2*
G1X258252Y107660D1*
G1X258252Y112509D2*
G1X258252Y112799D1*
G1X258252Y115518D2*
G1X258252Y115820D1*
G1X258252Y118227D2*
G1X258252Y118501D1*
G1X258252Y120578D2*
G1X258252Y120904D1*
G1X258252Y123274D2*
G1X258252Y123548D1*
G1X258252Y125155D2*
G1X258252Y125675D1*
G1X258252Y127106D2*
G1X258252Y127379D1*
G1X258352Y73274D2*
G1X258352Y73548D1*
G1X258352Y76264D2*
G1X258352Y76538D1*
G1X258352Y78828D2*
G1X258352Y79116D1*
G1X258352Y81911D2*
G1X258352Y82210D1*
G1X258352Y83999D2*
G1X258352Y84346D1*
G1X258352Y90190D2*
G1X258352Y90463D1*
G1X258352Y92624D2*
G1X258352Y92973D1*
G1X258352Y95797D2*
G1X258352Y96071D1*
G1X258352Y101405D2*
G1X258352Y101678D1*
G1X258352Y103856D2*
G1X258352Y104161D1*
G1X258352Y107386D2*
G1X258352Y107660D1*
G1X258352Y112473D2*
G1X258352Y112761D1*
G1X258352Y115555D2*
G1X258352Y115855D1*
G1X258352Y118227D2*
G1X258352Y118501D1*
G1X258352Y120678D2*
G1X258352Y120983D1*
G1X258352Y123274D2*
G1X258352Y123548D1*
G1X258352Y125200D2*
G1X258352Y125636D1*
G1X258352Y127106D2*
G1X258352Y127379D1*
G1X258452Y73274D2*
G1X258452Y73548D1*
G1X258452Y76264D2*
G1X258452Y76538D1*
G1X258452Y78792D2*
G1X258452Y79079D1*
G1X258452Y81948D2*
G1X258452Y82246D1*
G1X258452Y84011D2*
G1X258452Y84368D1*
G1X258452Y90190D2*
G1X258452Y90463D1*
G1X258452Y92664D2*
G1X258452Y93031D1*
G1X258452Y95797D2*
G1X258452Y96071D1*
G1X258452Y99269D2*
G1X258452Y99328D1*
G1X258452Y101405D2*
G1X258452Y101678D1*
G1X258452Y103956D2*
G1X258452Y104228D1*
G1X258452Y107386D2*
G1X258452Y107660D1*
G1X258452Y112437D2*
G1X258452Y112724D1*
G1X258452Y115593D2*
G1X258452Y115890D1*
G1X258452Y118227D2*
G1X258452Y118501D1*
G1X258452Y120778D2*
G1X258452Y121050D1*
G1X258452Y123274D2*
G1X258452Y123548D1*
G1X258452Y127106D2*
G1X258452Y127379D1*
G1X258552Y73274D2*
G1X258552Y73548D1*
G1X258552Y76264D2*
G1X258552Y76538D1*
G1X258552Y78756D2*
G1X258552Y79041D1*
G1X258552Y81986D2*
G1X258552Y82281D1*
G1X258552Y84041D2*
G1X258552Y84391D1*
G1X258552Y90190D2*
G1X258552Y90463D1*
G1X258552Y92704D2*
G1X258552Y93081D1*
G1X258552Y95797D2*
G1X258552Y96071D1*
G1X258552Y99207D2*
G1X258552Y99390D1*
G1X258552Y101405D2*
G1X258552Y101678D1*
G1X258552Y104056D2*
G1X258552Y104294D1*
G1X258552Y107386D2*
G1X258552Y107660D1*
G1X258552Y112401D2*
G1X258552Y112686D1*
G1X258552Y115630D2*
G1X258552Y115926D1*
G1X258552Y118227D2*
G1X258552Y118501D1*
G1X258552Y120878D2*
G1X258552Y121117D1*
G1X258552Y123274D2*
G1X258552Y123548D1*
G1X258552Y127106D2*
G1X258552Y127379D1*
G1X258652Y73274D2*
G1X258652Y73548D1*
G1X258652Y76264D2*
G1X258652Y76538D1*
G1X258652Y78720D2*
G1X258652Y79004D1*
G1X258652Y82023D2*
G1X258652Y82316D1*
G1X258652Y84107D2*
G1X258652Y84458D1*
G1X258652Y90190D2*
G1X258652Y90463D1*
G1X258652Y92744D2*
G1X258652Y93115D1*
G1X258652Y95797D2*
G1X258652Y96071D1*
G1X258652Y99162D2*
G1X258652Y99435D1*
G1X258652Y101405D2*
G1X258652Y101678D1*
G1X258652Y104127D2*
G1X258652Y104361D1*
G1X258652Y107386D2*
G1X258652Y107660D1*
G1X258652Y112365D2*
G1X258652Y112649D1*
G1X258652Y115668D2*
G1X258652Y115961D1*
G1X258652Y118227D2*
G1X258652Y118501D1*
G1X258652Y120949D2*
G1X258652Y121183D1*
G1X258652Y123274D2*
G1X258652Y123548D1*
G1X258652Y127106D2*
G1X258652Y127379D1*
G1X258752Y73274D2*
G1X258752Y73548D1*
G1X258752Y76264D2*
G1X258752Y76538D1*
G1X258752Y78684D2*
G1X258752Y78966D1*
G1X258752Y82061D2*
G1X258752Y82351D1*
G1X258752Y84174D2*
G1X258752Y84530D1*
G1X258752Y90190D2*
G1X258752Y90463D1*
G1X258752Y92784D2*
G1X258752Y93149D1*
G1X258752Y95797D2*
G1X258752Y96071D1*
G1X258752Y99162D2*
G1X258752Y99435D1*
G1X258752Y101405D2*
G1X258752Y101678D1*
G1X258752Y104167D2*
G1X258752Y104428D1*
G1X258752Y107386D2*
G1X258752Y107660D1*
G1X258752Y112329D2*
G1X258752Y112611D1*
G1X258752Y115705D2*
G1X258752Y115996D1*
G1X258752Y118227D2*
G1X258752Y118501D1*
G1X258752Y120989D2*
G1X258752Y121250D1*
G1X258752Y123274D2*
G1X258752Y123548D1*
G1X258752Y127106D2*
G1X258752Y127379D1*
G1X258852Y73274D2*
G1X258852Y73548D1*
G1X258852Y76264D2*
G1X258852Y76538D1*
G1X258852Y78648D2*
G1X258852Y78929D1*
G1X258852Y82098D2*
G1X258852Y82386D1*
G1X258852Y84246D2*
G1X258852Y84601D1*
G1X258852Y90190D2*
G1X258852Y90463D1*
G1X258852Y92829D2*
G1X258852Y93183D1*
G1X258852Y95797D2*
G1X258852Y96071D1*
G1X258852Y99162D2*
G1X258852Y99435D1*
G1X258852Y101405D2*
G1X258852Y101678D1*
G1X258852Y104207D2*
G1X258852Y104494D1*
G1X258852Y107386D2*
G1X258852Y107660D1*
G1X258852Y112293D2*
G1X258852Y112574D1*
G1X258852Y115743D2*
G1X258852Y116031D1*
G1X258852Y118227D2*
G1X258852Y118501D1*
G1X258852Y121029D2*
G1X258852Y121316D1*
G1X258852Y123274D2*
G1X258852Y123548D1*
G1X258852Y127106D2*
G1X258852Y127379D1*
G1X258952Y73274D2*
G1X258952Y73548D1*
G1X258952Y76264D2*
G1X258952Y76538D1*
G1X258952Y78612D2*
G1X258952Y78891D1*
G1X258952Y82136D2*
G1X258952Y82422D1*
G1X258952Y84321D2*
G1X258952Y84673D1*
G1X258952Y90190D2*
G1X258952Y90463D1*
G1X258952Y92879D2*
G1X258952Y93223D1*
G1X258952Y95797D2*
G1X258952Y96071D1*
G1X258952Y99162D2*
G1X258952Y99435D1*
G1X258952Y101405D2*
G1X258952Y101678D1*
G1X258952Y104247D2*
G1X258952Y104554D1*
G1X258952Y107386D2*
G1X258952Y107660D1*
G1X258952Y112257D2*
G1X258952Y112536D1*
G1X258952Y115780D2*
G1X258952Y116066D1*
G1X258952Y118227D2*
G1X258952Y118501D1*
G1X258952Y121069D2*
G1X258952Y121376D1*
G1X258952Y123274D2*
G1X258952Y123548D1*
G1X258952Y127106D2*
G1X258952Y127379D1*
G1X259052Y73274D2*
G1X259052Y73548D1*
G1X259052Y76264D2*
G1X259052Y76538D1*
G1X259052Y78576D2*
G1X259052Y78854D1*
G1X259052Y82173D2*
G1X259052Y82457D1*
G1X259052Y84396D2*
G1X259052Y84744D1*
G1X259052Y88015D2*
G1X259052Y88246D1*
G1X259052Y90190D2*
G1X259052Y90463D1*
G1X259052Y92929D2*
G1X259052Y93263D1*
G1X259052Y95797D2*
G1X259052Y96071D1*
G1X259052Y99162D2*
G1X259052Y99435D1*
G1X259052Y101405D2*
G1X259052Y101678D1*
G1X259052Y104287D2*
G1X259052Y104614D1*
G1X259052Y107386D2*
G1X259052Y107660D1*
G1X259052Y112221D2*
G1X259052Y112499D1*
G1X259052Y115818D2*
G1X259052Y116102D1*
G1X259052Y118227D2*
G1X259052Y118501D1*
G1X259052Y121109D2*
G1X259052Y121436D1*
G1X259052Y123274D2*
G1X259052Y123548D1*
G1X259052Y127106D2*
G1X259052Y127379D1*
G1X259152Y73274D2*
G1X259152Y73548D1*
G1X259152Y76264D2*
G1X259152Y76538D1*
G1X259152Y78540D2*
G1X259152Y78816D1*
G1X259152Y82211D2*
G1X259152Y82492D1*
G1X259152Y84471D2*
G1X259152Y84816D1*
G1X259152Y87915D2*
G1X259152Y88314D1*
G1X259152Y90190D2*
G1X259152Y90463D1*
G1X259152Y92979D2*
G1X259152Y93303D1*
G1X259152Y95797D2*
G1X259152Y96071D1*
G1X259152Y99162D2*
G1X259152Y99435D1*
G1X259152Y101405D2*
G1X259152Y101678D1*
G1X259152Y104342D2*
G1X259152Y104674D1*
G1X259152Y107386D2*
G1X259152Y107660D1*
G1X259152Y112185D2*
G1X259152Y112461D1*
G1X259152Y115855D2*
G1X259152Y116137D1*
G1X259152Y118227D2*
G1X259152Y118501D1*
G1X259152Y121164D2*
G1X259152Y121496D1*
G1X259152Y123274D2*
G1X259152Y123548D1*
G1X259152Y127106D2*
G1X259152Y127379D1*
G1X259252Y73274D2*
G1X259252Y73548D1*
G1X259252Y76264D2*
G1X259252Y76538D1*
G1X259252Y78504D2*
G1X259252Y78779D1*
G1X259252Y82248D2*
G1X259252Y82527D1*
G1X259252Y84546D2*
G1X259252Y84903D1*
G1X259252Y87815D2*
G1X259252Y88234D1*
G1X259252Y90190D2*
G1X259252Y90463D1*
G1X259252Y93029D2*
G1X259252Y93343D1*
G1X259252Y95797D2*
G1X259252Y96071D1*
G1X259252Y99162D2*
G1X259252Y99435D1*
G1X259252Y101405D2*
G1X259252Y101678D1*
G1X259252Y104402D2*
G1X259252Y104734D1*
G1X259252Y107386D2*
G1X259252Y107660D1*
G1X259252Y112149D2*
G1X259252Y112424D1*
G1X259252Y115893D2*
G1X259252Y116172D1*
G1X259252Y118227D2*
G1X259252Y118501D1*
G1X259252Y121224D2*
G1X259252Y121556D1*
G1X259252Y123274D2*
G1X259252Y123548D1*
G1X259252Y127106D2*
G1X259252Y127379D1*
G1X259352Y73274D2*
G1X259352Y73548D1*
G1X259352Y76264D2*
G1X259352Y76538D1*
G1X259352Y78468D2*
G1X259352Y78741D1*
G1X259352Y82286D2*
G1X259352Y82562D1*
G1X259352Y84621D2*
G1X259352Y85043D1*
G1X259352Y87715D2*
G1X259352Y88134D1*
G1X259352Y90190D2*
G1X259352Y90463D1*
G1X259352Y93079D2*
G1X259352Y93383D1*
G1X259352Y95797D2*
G1X259352Y96071D1*
G1X259352Y99162D2*
G1X259352Y99435D1*
G1X259352Y101405D2*
G1X259352Y101678D1*
G1X259352Y104462D2*
G1X259352Y104794D1*
G1X259352Y107386D2*
G1X259352Y107660D1*
G1X259352Y112113D2*
G1X259352Y112386D1*
G1X259352Y115930D2*
G1X259352Y116207D1*
G1X259352Y118227D2*
G1X259352Y118501D1*
G1X259352Y121284D2*
G1X259352Y121616D1*
G1X259352Y123274D2*
G1X259352Y123548D1*
G1X259352Y127106D2*
G1X259352Y127379D1*
G1X259452Y73274D2*
G1X259452Y73548D1*
G1X259452Y76264D2*
G1X259452Y76538D1*
G1X259452Y78432D2*
G1X259452Y78704D1*
G1X259452Y82323D2*
G1X259452Y82597D1*
G1X259452Y84696D2*
G1X259452Y85183D1*
G1X259452Y87603D2*
G1X259452Y88034D1*
G1X259452Y90190D2*
G1X259452Y90463D1*
G1X259452Y93129D2*
G1X259452Y93423D1*
G1X259452Y95797D2*
G1X259452Y96071D1*
G1X259452Y99162D2*
G1X259452Y99435D1*
G1X259452Y101405D2*
G1X259452Y101678D1*
G1X259452Y104522D2*
G1X259452Y104854D1*
G1X259452Y107386D2*
G1X259452Y107660D1*
G1X259452Y112077D2*
G1X259452Y112349D1*
G1X259452Y115968D2*
G1X259452Y116242D1*
G1X259452Y118227D2*
G1X259452Y118501D1*
G1X259452Y121344D2*
G1X259452Y121676D1*
G1X259452Y123274D2*
G1X259452Y123548D1*
G1X259452Y127106D2*
G1X259452Y127379D1*
G1X259552Y73274D2*
G1X259552Y73548D1*
G1X259552Y76264D2*
G1X259552Y76538D1*
G1X259552Y78396D2*
G1X259552Y78666D1*
G1X259552Y82361D2*
G1X259552Y82633D1*
G1X259552Y84788D2*
G1X259552Y85323D1*
G1X259552Y87470D2*
G1X259552Y87934D1*
G1X259552Y90190D2*
G1X259552Y90463D1*
G1X259552Y93179D2*
G1X259552Y93463D1*
G1X259552Y95797D2*
G1X259552Y96071D1*
G1X259552Y99162D2*
G1X259552Y99435D1*
G1X259552Y101405D2*
G1X259552Y101678D1*
G1X259552Y104583D2*
G1X259552Y104914D1*
G1X259552Y107386D2*
G1X259552Y107660D1*
G1X259552Y112041D2*
G1X259552Y112311D1*
G1X259552Y116005D2*
G1X259552Y116277D1*
G1X259552Y118227D2*
G1X259552Y118501D1*
G1X259552Y121405D2*
G1X259552Y121736D1*
G1X259552Y123274D2*
G1X259552Y123548D1*
G1X259552Y127106D2*
G1X259552Y127379D1*
G1X259652Y73274D2*
G1X259652Y73548D1*
G1X259652Y76264D2*
G1X259652Y76538D1*
G1X259652Y78360D2*
G1X259652Y78629D1*
G1X259652Y82398D2*
G1X259652Y82668D1*
G1X259652Y84938D2*
G1X259652Y85463D1*
G1X259652Y87336D2*
G1X259652Y87834D1*
G1X259652Y90190D2*
G1X259652Y90463D1*
G1X259652Y93229D2*
G1X259652Y93503D1*
G1X259652Y95797D2*
G1X259652Y96071D1*
G1X259652Y99162D2*
G1X259652Y99435D1*
G1X259652Y101405D2*
G1X259652Y101678D1*
G1X259652Y104649D2*
G1X259652Y104974D1*
G1X259652Y107386D2*
G1X259652Y107660D1*
G1X259652Y112005D2*
G1X259652Y112274D1*
G1X259652Y116043D2*
G1X259652Y116313D1*
G1X259652Y118227D2*
G1X259652Y118501D1*
G1X259652Y121472D2*
G1X259652Y121796D1*
G1X259652Y123274D2*
G1X259652Y123548D1*
G1X259652Y127106D2*
G1X259652Y127379D1*
G1X259752Y73274D2*
G1X259752Y73548D1*
G1X259752Y76264D2*
G1X259752Y76538D1*
G1X259752Y78324D2*
G1X259752Y78594D1*
G1X259752Y82433D2*
G1X259752Y82703D1*
G1X259752Y85094D2*
G1X259752Y85722D1*
G1X259752Y87147D2*
G1X259752Y87708D1*
G1X259752Y90190D2*
G1X259752Y90463D1*
G1X259752Y93279D2*
G1X259752Y93543D1*
G1X259752Y95797D2*
G1X259752Y96071D1*
G1X259752Y99162D2*
G1X259752Y99435D1*
G1X259752Y101405D2*
G1X259752Y101678D1*
G1X259752Y104716D2*
G1X259752Y105034D1*
G1X259752Y107386D2*
G1X259752Y107660D1*
G1X259752Y111969D2*
G1X259752Y112239D1*
G1X259752Y116077D2*
G1X259752Y116348D1*
G1X259752Y118227D2*
G1X259752Y118501D1*
G1X259752Y121538D2*
G1X259752Y121856D1*
G1X259752Y123274D2*
G1X259752Y123548D1*
G1X259752Y127106D2*
G1X259752Y127379D1*
G1X259852Y72764D2*
G1X259852Y74057D1*
G1X259852Y75755D2*
G1X259852Y77048D1*
G1X259852Y77905D2*
G1X259852Y79384D1*
G1X259852Y81550D2*
G1X259852Y83029D1*
G1X259852Y85261D2*
G1X259852Y86122D1*
G1X259852Y86897D2*
G1X259852Y87542D1*
G1X259852Y89680D2*
G1X259852Y91253D1*
G1X259852Y93329D2*
G1X259852Y94150D1*
G1X259852Y95288D2*
G1X259852Y99435D1*
G1X259852Y100895D2*
G1X259852Y102468D1*
G1X259852Y104783D2*
G1X259852Y105401D1*
G1X259852Y106877D2*
G1X259852Y109104D1*
G1X259852Y111550D2*
G1X259852Y113029D1*
G1X259852Y115194D2*
G1X259852Y116674D1*
G1X259852Y117718D2*
G1X259852Y119291D1*
G1X259852Y121605D2*
G1X259852Y122224D1*
G1X259852Y122951D2*
G1X259852Y124337D1*
G1X259852Y126316D2*
G1X259852Y127702D1*
G1X259952Y72631D2*
G1X259952Y74190D1*
G1X259952Y75622D2*
G1X259952Y77181D1*
G1X259952Y77772D2*
G1X259952Y79517D1*
G1X259952Y81416D2*
G1X259952Y83162D1*
G1X259952Y85428D2*
G1X259952Y87375D1*
G1X259952Y89547D2*
G1X259952Y91386D1*
G1X259952Y93379D2*
G1X259952Y94283D1*
G1X259952Y95155D2*
G1X259952Y99435D1*
G1X259952Y100762D2*
G1X259952Y102601D1*
G1X259952Y104849D2*
G1X259952Y105498D1*
G1X259952Y106743D2*
G1X259952Y109237D1*
G1X259952Y111416D2*
G1X259952Y113162D1*
G1X259952Y115061D2*
G1X259952Y116807D1*
G1X259952Y117585D2*
G1X259952Y119424D1*
G1X259952Y121672D2*
G1X259952Y122321D1*
G1X259952Y122818D2*
G1X259952Y124470D1*
G1X259952Y126183D2*
G1X259952Y127835D1*
G1X260052Y72681D2*
G1X260052Y74140D1*
G1X260052Y75672D2*
G1X260052Y77131D1*
G1X260052Y77822D2*
G1X260052Y79467D1*
G1X260052Y81466D2*
G1X260052Y83112D1*
G1X260052Y85813D2*
G1X260052Y87156D1*
G1X260052Y89597D2*
G1X260052Y91336D1*
G1X260052Y93429D2*
G1X260052Y94233D1*
G1X260052Y95205D2*
G1X260052Y99435D1*
G1X260052Y100812D2*
G1X260052Y102551D1*
G1X260052Y104916D2*
G1X260052Y105448D1*
G1X260052Y106793D2*
G1X260052Y109187D1*
G1X260052Y111466D2*
G1X260052Y113112D1*
G1X260052Y115111D2*
G1X260052Y116757D1*
G1X260052Y117635D2*
G1X260052Y119374D1*
G1X260052Y121738D2*
G1X260052Y122271D1*
G1X260052Y122868D2*
G1X260052Y124420D1*
G1X260052Y126233D2*
G1X260052Y127785D1*
G1X260152Y86313D2*
G1X260152Y86906D1*
G1X263352Y73817D2*
G1X263352Y74412D1*
G1X263352Y76486D2*
G1X263352Y76967D1*
G1X263352Y79060D2*
G1X263352Y79674D1*
G1X263352Y81942D2*
G1X263352Y82422D1*
G1X263352Y84573D2*
G1X263352Y85187D1*
G1X263352Y87397D2*
G1X263352Y89466D1*
G1X263352Y93200D2*
G1X263352Y95427D1*
G1X263352Y97379D2*
G1X263352Y100297D1*
G1X263352Y101267D2*
G1X263352Y101748D1*
G1X263352Y105582D2*
G1X263352Y106196D1*
G1X263352Y108021D2*
G1X263352Y108595D1*
G1X263352Y111020D2*
G1X263352Y111593D1*
G1X263352Y118044D2*
G1X263352Y118346D1*
G1X263352Y122321D2*
G1X263352Y122953D1*
G1X263452Y73817D2*
G1X263452Y74477D1*
G1X263452Y76486D2*
G1X263452Y76967D1*
G1X263452Y79020D2*
G1X263452Y79714D1*
G1X263452Y81942D2*
G1X263452Y82422D1*
G1X263452Y84533D2*
G1X263452Y85228D1*
G1X263452Y87397D2*
G1X263452Y89772D1*
G1X263452Y93200D2*
G1X263452Y95810D1*
G1X263452Y97379D2*
G1X263452Y100297D1*
G1X263452Y101267D2*
G1X263452Y101748D1*
G1X263452Y105542D2*
G1X263452Y106237D1*
G1X263452Y108087D2*
G1X263452Y108658D1*
G1X263452Y110958D2*
G1X263452Y111526D1*
G1X263452Y117984D2*
G1X263452Y118346D1*
G1X263452Y122106D2*
G1X263452Y123304D1*
G1X263552Y73817D2*
G1X263552Y74542D1*
G1X263552Y76486D2*
G1X263552Y76967D1*
G1X263552Y78980D2*
G1X263552Y79754D1*
G1X263552Y81942D2*
G1X263552Y82422D1*
G1X263552Y84493D2*
G1X263552Y85268D1*
G1X263552Y87397D2*
G1X263552Y89961D1*
G1X263552Y93200D2*
G1X263552Y95977D1*
G1X263552Y97379D2*
G1X263552Y100297D1*
G1X263552Y101267D2*
G1X263552Y101748D1*
G1X263552Y105502D2*
G1X263552Y106277D1*
G1X263552Y108154D2*
G1X263552Y108722D1*
G1X263552Y110896D2*
G1X263552Y111460D1*
G1X263552Y117924D2*
G1X263552Y118346D1*
G1X263552Y121943D2*
G1X263552Y123437D1*
G1X263652Y73817D2*
G1X263652Y74607D1*
G1X263652Y76486D2*
G1X263652Y76967D1*
G1X263652Y78939D2*
G1X263652Y79795D1*
G1X263652Y81942D2*
G1X263652Y82422D1*
G1X263652Y84453D2*
G1X263652Y85308D1*
G1X263652Y87397D2*
G1X263652Y90114D1*
G1X263652Y93200D2*
G1X263652Y96075D1*
G1X263652Y97379D2*
G1X263652Y100297D1*
G1X263652Y101267D2*
G1X263652Y101748D1*
G1X263652Y105462D2*
G1X263652Y106317D1*
G1X263652Y108221D2*
G1X263652Y108785D1*
G1X263652Y110835D2*
G1X263652Y111393D1*
G1X263652Y117831D2*
G1X263652Y118346D1*
G1X263652Y121863D2*
G1X263652Y123526D1*
G1X263752Y73817D2*
G1X263752Y74672D1*
G1X263752Y76486D2*
G1X263752Y76967D1*
G1X263752Y78899D2*
G1X263752Y79327D1*
G1X263752Y79459D2*
G1X263752Y79835D1*
G1X263752Y81942D2*
G1X263752Y82422D1*
G1X263752Y84412D2*
G1X263752Y84841D1*
G1X263752Y84973D2*
G1X263752Y85348D1*
G1X263752Y87397D2*
G1X263752Y87877D1*
G1X263752Y89436D2*
G1X263752Y90197D1*
G1X263752Y93200D2*
G1X263752Y93681D1*
G1X263752Y95443D2*
G1X263752Y96150D1*
G1X263752Y97379D2*
G1X263752Y97859D1*
G1X263752Y101267D2*
G1X263752Y101748D1*
G1X263752Y105421D2*
G1X263752Y105850D1*
G1X263752Y105982D2*
G1X263752Y106357D1*
G1X263752Y108287D2*
G1X263752Y108849D1*
G1X263752Y110773D2*
G1X263752Y111326D1*
G1X263752Y117731D2*
G1X263752Y118346D1*
G1X263752Y121783D2*
G1X263752Y122344D1*
G1X263752Y123088D2*
G1X263752Y123601D1*
G1X263852Y73817D2*
G1X263852Y74736D1*
G1X263852Y76486D2*
G1X263852Y76967D1*
G1X263852Y78859D2*
G1X263852Y79289D1*
G1X263852Y79488D2*
G1X263852Y79875D1*
G1X263852Y81942D2*
G1X263852Y82422D1*
G1X263852Y84372D2*
G1X263852Y84802D1*
G1X263852Y85001D2*
G1X263852Y85389D1*
G1X263852Y87397D2*
G1X263852Y87877D1*
G1X263852Y89608D2*
G1X263852Y90280D1*
G1X263852Y93200D2*
G1X263852Y93681D1*
G1X263852Y95682D2*
G1X263852Y96205D1*
G1X263852Y97379D2*
G1X263852Y97859D1*
G1X263852Y101267D2*
G1X263852Y101748D1*
G1X263852Y105381D2*
G1X263852Y105811D1*
G1X263852Y106010D2*
G1X263852Y106398D1*
G1X263852Y108354D2*
G1X263852Y108913D1*
G1X263852Y110711D2*
G1X263852Y111260D1*
G1X263852Y117631D2*
G1X263852Y118346D1*
G1X263852Y121724D2*
G1X263852Y122219D1*
G1X263852Y123168D2*
G1X263852Y123654D1*
G1X263952Y73817D2*
G1X263952Y74801D1*
G1X263952Y76486D2*
G1X263952Y76967D1*
G1X263952Y78818D2*
G1X263952Y79250D1*
G1X263952Y79516D2*
G1X263952Y79916D1*
G1X263952Y81942D2*
G1X263952Y82422D1*
G1X263952Y84332D2*
G1X263952Y84764D1*
G1X263952Y85030D2*
G1X263952Y85429D1*
G1X263952Y87397D2*
G1X263952Y87877D1*
G1X263952Y89742D2*
G1X263952Y90364D1*
G1X263952Y93200D2*
G1X263952Y93681D1*
G1X263952Y95734D2*
G1X263952Y96245D1*
G1X263952Y97379D2*
G1X263952Y97859D1*
G1X263952Y101267D2*
G1X263952Y101748D1*
G1X263952Y105341D2*
G1X263952Y105773D1*
G1X263952Y106039D2*
G1X263952Y106438D1*
G1X263952Y108421D2*
G1X263952Y108976D1*
G1X263952Y110649D2*
G1X263952Y111193D1*
G1X263952Y117489D2*
G1X263952Y118346D1*
G1X263952Y121681D2*
G1X263952Y122094D1*
G1X263952Y123248D2*
G1X263952Y123690D1*
G1X264052Y73817D2*
G1X264052Y74866D1*
G1X264052Y76486D2*
G1X264052Y76967D1*
G1X264052Y78778D2*
G1X264052Y79212D1*
G1X264052Y79545D2*
G1X264052Y79956D1*
G1X264052Y81942D2*
G1X264052Y82422D1*
G1X264052Y84292D2*
G1X264052Y84725D1*
G1X264052Y85058D2*
G1X264052Y85469D1*
G1X264052Y87397D2*
G1X264052Y87877D1*
G1X264052Y89830D2*
G1X264052Y90414D1*
G1X264052Y93200D2*
G1X264052Y93681D1*
G1X264052Y95784D2*
G1X264052Y96285D1*
G1X264052Y97379D2*
G1X264052Y97859D1*
G1X264052Y101267D2*
G1X264052Y101748D1*
G1X264052Y105300D2*
G1X264052Y105734D1*
G1X264052Y106067D2*
G1X264052Y106478D1*
G1X264052Y108487D2*
G1X264052Y109040D1*
G1X264052Y110587D2*
G1X264052Y111126D1*
G1X264052Y117339D2*
G1X264052Y118346D1*
G1X264052Y121638D2*
G1X264052Y122030D1*
G1X264052Y123325D2*
G1X264052Y123726D1*
G1X264152Y73817D2*
G1X264152Y74931D1*
G1X264152Y76486D2*
G1X264152Y76967D1*
G1X264152Y78738D2*
G1X264152Y79174D1*
G1X264152Y79578D2*
G1X264152Y79996D1*
G1X264152Y81942D2*
G1X264152Y82422D1*
G1X264152Y84251D2*
G1X264152Y84687D1*
G1X264152Y85091D2*
G1X264152Y85510D1*
G1X264152Y87397D2*
G1X264152Y87877D1*
G1X264152Y89910D2*
G1X264152Y90457D1*
G1X264152Y93200D2*
G1X264152Y93681D1*
G1X264152Y95820D2*
G1X264152Y96307D1*
G1X264152Y97379D2*
G1X264152Y97859D1*
G1X264152Y101267D2*
G1X264152Y101748D1*
G1X264152Y105260D2*
G1X264152Y105696D1*
G1X264152Y106100D2*
G1X264152Y106518D1*
G1X264152Y108554D2*
G1X264152Y109104D1*
G1X264152Y110525D2*
G1X264152Y111060D1*
G1X264152Y117177D2*
G1X264152Y117824D1*
G1X264152Y117917D2*
G1X264152Y118346D1*
G1X264152Y121595D2*
G1X264152Y121980D1*
G1X264152Y123392D2*
G1X264152Y123763D1*
G1X264252Y73817D2*
G1X264252Y74319D1*
G1X264252Y74375D2*
G1X264252Y74996D1*
G1X264252Y76486D2*
G1X264252Y76967D1*
G1X264252Y78698D2*
G1X264252Y79135D1*
G1X264252Y79615D2*
G1X264252Y80036D1*
G1X264252Y81942D2*
G1X264252Y82422D1*
G1X264252Y84211D2*
G1X264252Y84648D1*
G1X264252Y85129D2*
G1X264252Y85550D1*
G1X264252Y87397D2*
G1X264252Y87877D1*
G1X264252Y89990D2*
G1X264252Y90500D1*
G1X264252Y93200D2*
G1X264252Y93681D1*
G1X264252Y95840D2*
G1X264252Y96324D1*
G1X264252Y97379D2*
G1X264252Y97859D1*
G1X264252Y101267D2*
G1X264252Y101748D1*
G1X264252Y105220D2*
G1X264252Y105657D1*
G1X264252Y106138D2*
G1X264252Y106559D1*
G1X264252Y108621D2*
G1X264252Y109167D1*
G1X264252Y110463D2*
G1X264252Y110993D1*
G1X264252Y117002D2*
G1X264252Y117691D1*
G1X264252Y117924D2*
G1X264252Y118346D1*
G1X264252Y121565D2*
G1X264252Y121940D1*
G1X264252Y123441D2*
G1X264252Y123799D1*
G1X264352Y73817D2*
G1X264352Y74297D1*
G1X264352Y74445D2*
G1X264352Y75061D1*
G1X264352Y76486D2*
G1X264352Y76967D1*
G1X264352Y78657D2*
G1X264352Y79097D1*
G1X264352Y79653D2*
G1X264352Y80077D1*
G1X264352Y81942D2*
G1X264352Y82422D1*
G1X264352Y84171D2*
G1X264352Y84610D1*
G1X264352Y85166D2*
G1X264352Y85590D1*
G1X264352Y87397D2*
G1X264352Y87877D1*
G1X264352Y90038D2*
G1X264352Y90543D1*
G1X264352Y93200D2*
G1X264352Y93681D1*
G1X264352Y95860D2*
G1X264352Y96340D1*
G1X264352Y97379D2*
G1X264352Y97859D1*
G1X264352Y101267D2*
G1X264352Y101748D1*
G1X264352Y105180D2*
G1X264352Y105619D1*
G1X264352Y106175D2*
G1X264352Y106599D1*
G1X264352Y108687D2*
G1X264352Y109231D1*
G1X264352Y110401D2*
G1X264352Y110926D1*
G1X264352Y116879D2*
G1X264352Y117557D1*
G1X264352Y117924D2*
G1X264352Y118346D1*
G1X264352Y121542D2*
G1X264352Y121920D1*
G1X264352Y123461D2*
G1X264352Y123835D1*
G1X264452Y73817D2*
G1X264452Y74297D1*
G1X264452Y74509D2*
G1X264452Y75125D1*
G1X264452Y76486D2*
G1X264452Y76967D1*
G1X264452Y78617D2*
G1X264452Y79058D1*
G1X264452Y79690D2*
G1X264452Y80117D1*
G1X264452Y81942D2*
G1X264452Y82422D1*
G1X264452Y84130D2*
G1X264452Y84572D1*
G1X264452Y85204D2*
G1X264452Y85630D1*
G1X264452Y87397D2*
G1X264452Y87877D1*
G1X264452Y90081D2*
G1X264452Y90571D1*
G1X264452Y93200D2*
G1X264452Y93681D1*
G1X264452Y95859D2*
G1X264452Y96344D1*
G1X264452Y97379D2*
G1X264452Y97859D1*
G1X264452Y101267D2*
G1X264452Y101748D1*
G1X264452Y105139D2*
G1X264452Y105581D1*
G1X264452Y106213D2*
G1X264452Y106639D1*
G1X264452Y108754D2*
G1X264452Y109295D1*
G1X264452Y110339D2*
G1X264452Y110860D1*
G1X264452Y116879D2*
G1X264452Y117424D1*
G1X264452Y117924D2*
G1X264452Y118346D1*
G1X264452Y121520D2*
G1X264452Y121900D1*
G1X264452Y123481D2*
G1X264452Y123870D1*
G1X264452Y125699D2*
G1X264452Y126464D1*
G1X264552Y73817D2*
G1X264552Y74297D1*
G1X264552Y74574D2*
G1X264552Y75190D1*
G1X264552Y76486D2*
G1X264552Y76967D1*
G1X264552Y78577D2*
G1X264552Y79020D1*
G1X264552Y79728D2*
G1X264552Y80157D1*
G1X264552Y81942D2*
G1X264552Y82422D1*
G1X264552Y84090D2*
G1X264552Y84533D1*
G1X264552Y85241D2*
G1X264552Y85671D1*
G1X264552Y87397D2*
G1X264552Y87877D1*
G1X264552Y90124D2*
G1X264552Y90596D1*
G1X264552Y93200D2*
G1X264552Y93681D1*
G1X264552Y95825D2*
G1X264552Y96330D1*
G1X264552Y97379D2*
G1X264552Y97859D1*
G1X264552Y101267D2*
G1X264552Y101748D1*
G1X264552Y105099D2*
G1X264552Y105542D1*
G1X264552Y106250D2*
G1X264552Y106680D1*
G1X264552Y108821D2*
G1X264552Y109358D1*
G1X264552Y110280D2*
G1X264552Y110793D1*
G1X264552Y113510D2*
G1X264552Y113979D1*
G1X264552Y115560D2*
G1X264552Y116030D1*
G1X264552Y116879D2*
G1X264552Y117244D1*
G1X264552Y117924D2*
G1X264552Y118346D1*
G1X264552Y121498D2*
G1X264552Y121882D1*
G1X264552Y123499D2*
G1X264552Y123898D1*
G1X264552Y125225D2*
G1X264552Y126733D1*
G1X264652Y73817D2*
G1X264652Y74297D1*
G1X264652Y74639D2*
G1X264652Y75255D1*
G1X264652Y76486D2*
G1X264652Y76967D1*
G1X264652Y78536D2*
G1X264652Y78982D1*
G1X264652Y79765D2*
G1X264652Y80198D1*
G1X264652Y81942D2*
G1X264652Y82422D1*
G1X264652Y84050D2*
G1X264652Y84495D1*
G1X264652Y85278D2*
G1X264652Y85711D1*
G1X264652Y87397D2*
G1X264652Y87877D1*
G1X264652Y90167D2*
G1X264652Y90621D1*
G1X264652Y93200D2*
G1X264652Y93681D1*
G1X264652Y95792D2*
G1X264652Y96315D1*
G1X264652Y97379D2*
G1X264652Y97859D1*
G1X264652Y101267D2*
G1X264652Y101748D1*
G1X264652Y105059D2*
G1X264652Y105504D1*
G1X264652Y106287D2*
G1X264652Y106720D1*
G1X264652Y108887D2*
G1X264652Y109438D1*
G1X264652Y110223D2*
G1X264652Y110726D1*
G1X264652Y113547D2*
G1X264652Y114011D1*
G1X264652Y115529D2*
G1X264652Y115996D1*
G1X264652Y116879D2*
G1X264652Y117044D1*
G1X264652Y117924D2*
G1X264652Y118346D1*
G1X264652Y121476D2*
G1X264652Y121868D1*
G1X264652Y123514D2*
G1X264652Y123927D1*
G1X264652Y125014D2*
G1X264652Y126867D1*
G1X264752Y73817D2*
G1X264752Y74297D1*
G1X264752Y74704D2*
G1X264752Y75320D1*
G1X264752Y76486D2*
G1X264752Y76967D1*
G1X264752Y78496D2*
G1X264752Y78944D1*
G1X264752Y79802D2*
G1X264752Y80238D1*
G1X264752Y81942D2*
G1X264752Y82422D1*
G1X264752Y84010D2*
G1X264752Y84457D1*
G1X264752Y85315D2*
G1X264752Y85751D1*
G1X264752Y87397D2*
G1X264752Y87877D1*
G1X264752Y90188D2*
G1X264752Y90646D1*
G1X264752Y93200D2*
G1X264752Y93681D1*
G1X264752Y95759D2*
G1X264752Y96301D1*
G1X264752Y97379D2*
G1X264752Y97859D1*
G1X264752Y101267D2*
G1X264752Y101748D1*
G1X264752Y105019D2*
G1X264752Y105466D1*
G1X264752Y106324D2*
G1X264752Y106760D1*
G1X264752Y108954D2*
G1X264752Y109518D1*
G1X264752Y110166D2*
G1X264752Y110660D1*
G1X264752Y113583D2*
G1X264752Y114043D1*
G1X264752Y115498D2*
G1X264752Y115961D1*
G1X264752Y117924D2*
G1X264752Y118346D1*
G1X264752Y121460D2*
G1X264752Y121853D1*
G1X264752Y123528D2*
G1X264752Y123955D1*
G1X264752Y124914D2*
G1X264752Y126956D1*
G1X264852Y73817D2*
G1X264852Y74297D1*
G1X264852Y74769D2*
G1X264852Y75385D1*
G1X264852Y76486D2*
G1X264852Y76967D1*
G1X264852Y78456D2*
G1X264852Y78906D1*
G1X264852Y79838D2*
G1X264852Y80278D1*
G1X264852Y81942D2*
G1X264852Y82422D1*
G1X264852Y83969D2*
G1X264852Y84419D1*
G1X264852Y85352D2*
G1X264852Y85791D1*
G1X264852Y87397D2*
G1X264852Y87877D1*
G1X264852Y90197D2*
G1X264852Y90667D1*
G1X264852Y93200D2*
G1X264852Y93681D1*
G1X264852Y95680D2*
G1X264852Y96249D1*
G1X264852Y97379D2*
G1X264852Y97859D1*
G1X264852Y101267D2*
G1X264852Y101748D1*
G1X264852Y104978D2*
G1X264852Y105428D1*
G1X264852Y106361D2*
G1X264852Y106800D1*
G1X264852Y109021D2*
G1X264852Y109598D1*
G1X264852Y110109D2*
G1X264852Y110593D1*
G1X264852Y113620D2*
G1X264852Y114076D1*
G1X264852Y115466D2*
G1X264852Y115926D1*
G1X264852Y117924D2*
G1X264852Y118346D1*
G1X264852Y121451D2*
G1X264852Y121839D1*
G1X264852Y123542D2*
G1X264852Y123975D1*
G1X264852Y124847D2*
G1X264852Y125473D1*
G1X264852Y126299D2*
G1X264852Y127006D1*
G1X264952Y73817D2*
G1X264952Y74297D1*
G1X264952Y74833D2*
G1X264952Y75449D1*
G1X264952Y76486D2*
G1X264952Y76967D1*
G1X264952Y78416D2*
G1X264952Y78868D1*
G1X264952Y79875D2*
G1X264952Y80318D1*
G1X264952Y81942D2*
G1X264952Y82422D1*
G1X264952Y83929D2*
G1X264952Y84381D1*
G1X264952Y85389D2*
G1X264952Y85832D1*
G1X264952Y87397D2*
G1X264952Y87877D1*
G1X264952Y90206D2*
G1X264952Y90678D1*
G1X264952Y93200D2*
G1X264952Y93681D1*
G1X264952Y95580D2*
G1X264952Y96169D1*
G1X264952Y97379D2*
G1X264952Y97859D1*
G1X264952Y101267D2*
G1X264952Y101748D1*
G1X264952Y104938D2*
G1X264952Y105390D1*
G1X264952Y106398D2*
G1X264952Y106841D1*
G1X264952Y109087D2*
G1X264952Y109678D1*
G1X264952Y110043D2*
G1X264952Y110526D1*
G1X264952Y113656D2*
G1X264952Y114108D1*
G1X264952Y115435D2*
G1X264952Y115892D1*
G1X264952Y117924D2*
G1X264952Y118346D1*
G1X264952Y121443D2*
G1X264952Y121828D1*
G1X264952Y123553D2*
G1X264952Y123975D1*
G1X264952Y124797D2*
G1X264952Y125287D1*
G1X264952Y126496D2*
G1X264952Y127056D1*
G1X265052Y73817D2*
G1X265052Y74297D1*
G1X265052Y74898D2*
G1X265052Y75514D1*
G1X265052Y76486D2*
G1X265052Y76967D1*
G1X265052Y78375D2*
G1X265052Y78830D1*
G1X265052Y79912D2*
G1X265052Y80359D1*
G1X265052Y81942D2*
G1X265052Y82422D1*
G1X265052Y83889D2*
G1X265052Y84343D1*
G1X265052Y85425D2*
G1X265052Y85872D1*
G1X265052Y87397D2*
G1X265052Y87877D1*
G1X265052Y90215D2*
G1X265052Y90689D1*
G1X265052Y93200D2*
G1X265052Y93681D1*
G1X265052Y95480D2*
G1X265052Y96089D1*
G1X265052Y97379D2*
G1X265052Y97860D1*
G1X265052Y101267D2*
G1X265052Y101748D1*
G1X265052Y104898D2*
G1X265052Y105352D1*
G1X265052Y106434D2*
G1X265052Y106881D1*
G1X265052Y109154D2*
G1X265052Y109758D1*
G1X265052Y109968D2*
G1X265052Y110460D1*
G1X265052Y113693D2*
G1X265052Y114140D1*
G1X265052Y115404D2*
G1X265052Y115857D1*
G1X265052Y117924D2*
G1X265052Y118346D1*
G1X265052Y121435D2*
G1X265052Y121828D1*
G1X265052Y123553D2*
G1X265052Y123975D1*
G1X265052Y124751D2*
G1X265052Y125220D1*
G1X265052Y126536D2*
G1X265052Y127106D1*
G1X265152Y73817D2*
G1X265152Y74297D1*
G1X265152Y74963D2*
G1X265152Y75579D1*
G1X265152Y76486D2*
G1X265152Y76967D1*
G1X265152Y78335D2*
G1X265152Y78792D1*
G1X265152Y79949D2*
G1X265152Y80399D1*
G1X265152Y81942D2*
G1X265152Y82422D1*
G1X265152Y83848D2*
G1X265152Y84305D1*
G1X265152Y85462D2*
G1X265152Y85912D1*
G1X265152Y87397D2*
G1X265152Y87877D1*
G1X265152Y90224D2*
G1X265152Y90700D1*
G1X265152Y93200D2*
G1X265152Y93712D1*
G1X265152Y95203D2*
G1X265152Y95977D1*
G1X265152Y97379D2*
G1X265152Y100123D1*
G1X265152Y101267D2*
G1X265152Y101748D1*
G1X265152Y104857D2*
G1X265152Y105314D1*
G1X265152Y106471D2*
G1X265152Y106921D1*
G1X265152Y109221D2*
G1X265152Y109846D1*
G1X265152Y109884D2*
G1X265152Y110393D1*
G1X265152Y113730D2*
G1X265152Y114172D1*
G1X265152Y115373D2*
G1X265152Y115823D1*
G1X265152Y117924D2*
G1X265152Y118346D1*
G1X265152Y121426D2*
G1X265152Y121828D1*
G1X265152Y123553D2*
G1X265152Y123975D1*
G1X265152Y124711D2*
G1X265152Y125165D1*
G1X265152Y126570D2*
G1X265152Y127109D1*
G1X265252Y73817D2*
G1X265252Y74297D1*
G1X265252Y75028D2*
G1X265252Y75644D1*
G1X265252Y76486D2*
G1X265252Y76967D1*
G1X265252Y78295D2*
G1X265252Y78753D1*
G1X265252Y79986D2*
G1X265252Y80439D1*
G1X265252Y81942D2*
G1X265252Y82422D1*
G1X265252Y83808D2*
G1X265252Y84267D1*
G1X265252Y85499D2*
G1X265252Y85953D1*
G1X265252Y87397D2*
G1X265252Y87877D1*
G1X265252Y90233D2*
G1X265252Y90711D1*
G1X265252Y93200D2*
G1X265252Y95857D1*
G1X265252Y97379D2*
G1X265252Y100123D1*
G1X265252Y101267D2*
G1X265252Y101748D1*
G1X265252Y104817D2*
G1X265252Y105276D1*
G1X265252Y106508D2*
G1X265252Y106962D1*
G1X265252Y109287D2*
G1X265252Y110326D1*
G1X265252Y113766D2*
G1X265252Y114205D1*
G1X265252Y115341D2*
G1X265252Y115788D1*
G1X265252Y117924D2*
G1X265252Y118346D1*
G1X265252Y121418D2*
G1X265252Y121828D1*
G1X265252Y123553D2*
G1X265252Y123975D1*
G1X265252Y124808D2*
G1X265252Y125115D1*
G1X265252Y126595D2*
G1X265252Y127109D1*
G1X265352Y73817D2*
G1X265352Y74297D1*
G1X265352Y75093D2*
G1X265352Y75709D1*
G1X265352Y76486D2*
G1X265352Y76967D1*
G1X265352Y78255D2*
G1X265352Y78715D1*
G1X265352Y80023D2*
G1X265352Y80479D1*
G1X265352Y81942D2*
G1X265352Y82422D1*
G1X265352Y83768D2*
G1X265352Y84229D1*
G1X265352Y85536D2*
G1X265352Y85993D1*
G1X265352Y87397D2*
G1X265352Y87877D1*
G1X265352Y90241D2*
G1X265352Y90721D1*
G1X265352Y93200D2*
G1X265352Y95732D1*
G1X265352Y97379D2*
G1X265352Y100123D1*
G1X265352Y101267D2*
G1X265352Y101748D1*
G1X265352Y104777D2*
G1X265352Y105238D1*
G1X265352Y106545D2*
G1X265352Y107002D1*
G1X265352Y109354D2*
G1X265352Y110260D1*
G1X265352Y113803D2*
G1X265352Y114237D1*
G1X265352Y115310D2*
G1X265352Y115753D1*
G1X265352Y117924D2*
G1X265352Y118346D1*
G1X265352Y121410D2*
G1X265352Y121828D1*
G1X265352Y123553D2*
G1X265352Y123975D1*
G1X265352Y126620D2*
G1X265352Y127109D1*
G1X265452Y73817D2*
G1X265452Y74297D1*
G1X265452Y75158D2*
G1X265452Y75773D1*
G1X265452Y76486D2*
G1X265452Y76967D1*
G1X265452Y78214D2*
G1X265452Y78677D1*
G1X265452Y80059D2*
G1X265452Y80520D1*
G1X265452Y81942D2*
G1X265452Y82422D1*
G1X265452Y83728D2*
G1X265452Y84191D1*
G1X265452Y85573D2*
G1X265452Y86033D1*
G1X265452Y87397D2*
G1X265452Y87877D1*
G1X265452Y90241D2*
G1X265452Y90721D1*
G1X265452Y93200D2*
G1X265452Y95332D1*
G1X265452Y97379D2*
G1X265452Y100123D1*
G1X265452Y101267D2*
G1X265452Y101748D1*
G1X265452Y104737D2*
G1X265452Y105200D1*
G1X265452Y106582D2*
G1X265452Y107042D1*
G1X265452Y109421D2*
G1X265452Y110193D1*
G1X265452Y113839D2*
G1X265452Y114269D1*
G1X265452Y115279D2*
G1X265452Y115719D1*
G1X265452Y117924D2*
G1X265452Y118346D1*
G1X265452Y121406D2*
G1X265452Y121828D1*
G1X265452Y123553D2*
G1X265452Y123970D1*
G1X265452Y126629D2*
G1X265452Y127109D1*
G1X265552Y73817D2*
G1X265552Y74297D1*
G1X265552Y75222D2*
G1X265552Y75838D1*
G1X265552Y76486D2*
G1X265552Y76967D1*
G1X265552Y78174D2*
G1X265552Y78639D1*
G1X265552Y80096D2*
G1X265552Y80560D1*
G1X265552Y81942D2*
G1X265552Y82422D1*
G1X265552Y83687D2*
G1X265552Y84153D1*
G1X265552Y85610D2*
G1X265552Y86073D1*
G1X265552Y87397D2*
G1X265552Y87877D1*
G1X265552Y90241D2*
G1X265552Y90721D1*
G1X265552Y93200D2*
G1X265552Y93684D1*
G1X265552Y94735D2*
G1X265552Y95268D1*
G1X265552Y97379D2*
G1X265552Y97859D1*
G1X265552Y101267D2*
G1X265552Y101748D1*
G1X265552Y104696D2*
G1X265552Y105161D1*
G1X265552Y106619D2*
G1X265552Y107082D1*
G1X265552Y109487D2*
G1X265552Y110126D1*
G1X265552Y113876D2*
G1X265552Y114301D1*
G1X265552Y115248D2*
G1X265552Y115684D1*
G1X265552Y117924D2*
G1X265552Y118346D1*
G1X265552Y121406D2*
G1X265552Y121828D1*
G1X265552Y123553D2*
G1X265552Y123961D1*
G1X265552Y126609D2*
G1X265552Y127109D1*
G1X265652Y73817D2*
G1X265652Y74297D1*
G1X265652Y75287D2*
G1X265652Y75903D1*
G1X265652Y76486D2*
G1X265652Y76967D1*
G1X265652Y78134D2*
G1X265652Y78601D1*
G1X265652Y80133D2*
G1X265652Y80600D1*
G1X265652Y81942D2*
G1X265652Y82422D1*
G1X265652Y83647D2*
G1X265652Y84114D1*
G1X265652Y85647D2*
G1X265652Y86114D1*
G1X265652Y87397D2*
G1X265652Y87877D1*
G1X265652Y90241D2*
G1X265652Y90721D1*
G1X265652Y93200D2*
G1X265652Y93681D1*
G1X265652Y94928D2*
G1X265652Y95393D1*
G1X265652Y97379D2*
G1X265652Y97859D1*
G1X265652Y101267D2*
G1X265652Y101748D1*
G1X265652Y104656D2*
G1X265652Y105123D1*
G1X265652Y106655D2*
G1X265652Y107123D1*
G1X265652Y109554D2*
G1X265652Y110060D1*
G1X265652Y113912D2*
G1X265652Y114334D1*
G1X265652Y115216D2*
G1X265652Y115650D1*
G1X265652Y117924D2*
G1X265652Y118346D1*
G1X265652Y121406D2*
G1X265652Y121828D1*
G1X265652Y123553D2*
G1X265652Y123952D1*
G1X265652Y126317D2*
G1X265652Y127109D1*
G1X265752Y73817D2*
G1X265752Y74297D1*
G1X265752Y75352D2*
G1X265752Y75968D1*
G1X265752Y76486D2*
G1X265752Y76967D1*
G1X265752Y78093D2*
G1X265752Y80641D1*
G1X265752Y81942D2*
G1X265752Y82422D1*
G1X265752Y83607D2*
G1X265752Y86154D1*
G1X265752Y87397D2*
G1X265752Y87877D1*
G1X265752Y90240D2*
G1X265752Y90717D1*
G1X265752Y93200D2*
G1X265752Y93681D1*
G1X265752Y95028D2*
G1X265752Y95518D1*
G1X265752Y97379D2*
G1X265752Y97859D1*
G1X265752Y101267D2*
G1X265752Y101748D1*
G1X265752Y104616D2*
G1X265752Y107163D1*
G1X265752Y109567D2*
G1X265752Y110047D1*
G1X265752Y113949D2*
G1X265752Y114366D1*
G1X265752Y115185D2*
G1X265752Y115615D1*
G1X265752Y117924D2*
G1X265752Y118346D1*
G1X265752Y121406D2*
G1X265752Y121828D1*
G1X265752Y123553D2*
G1X265752Y123943D1*
G1X265752Y125634D2*
G1X265752Y127109D1*
G1X265852Y73817D2*
G1X265852Y74297D1*
G1X265852Y75417D2*
G1X265852Y76033D1*
G1X265852Y76486D2*
G1X265852Y76967D1*
G1X265852Y78053D2*
G1X265852Y80681D1*
G1X265852Y81942D2*
G1X265852Y82422D1*
G1X265852Y83567D2*
G1X265852Y86194D1*
G1X265852Y87397D2*
G1X265852Y87877D1*
G1X265852Y90212D2*
G1X265852Y90688D1*
G1X265852Y93200D2*
G1X265852Y93681D1*
G1X265852Y95101D2*
G1X265852Y95625D1*
G1X265852Y97379D2*
G1X265852Y97859D1*
G1X265852Y101267D2*
G1X265852Y101748D1*
G1X265852Y104575D2*
G1X265852Y107203D1*
G1X265852Y109567D2*
G1X265852Y110047D1*
G1X265852Y113985D2*
G1X265852Y114398D1*
G1X265852Y115154D2*
G1X265852Y115580D1*
G1X265852Y117924D2*
G1X265852Y118346D1*
G1X265852Y121406D2*
G1X265852Y121828D1*
G1X265852Y123553D2*
G1X265852Y123934D1*
G1X265852Y125140D2*
G1X265852Y127109D1*
G1X265952Y73817D2*
G1X265952Y74297D1*
G1X265952Y75482D2*
G1X265952Y76098D1*
G1X265952Y76486D2*
G1X265952Y76967D1*
G1X265952Y78013D2*
G1X265952Y80721D1*
G1X265952Y81942D2*
G1X265952Y82422D1*
G1X265952Y83526D2*
G1X265952Y86235D1*
G1X265952Y87397D2*
G1X265952Y87877D1*
G1X265952Y90183D2*
G1X265952Y90660D1*
G1X265952Y93200D2*
G1X265952Y93681D1*
G1X265952Y95168D2*
G1X265952Y95725D1*
G1X265952Y97379D2*
G1X265952Y97859D1*
G1X265952Y101267D2*
G1X265952Y101748D1*
G1X265952Y104535D2*
G1X265952Y107243D1*
G1X265952Y109567D2*
G1X265952Y110047D1*
G1X265952Y114022D2*
G1X265952Y114430D1*
G1X265952Y115123D2*
G1X265952Y115546D1*
G1X265952Y117924D2*
G1X265952Y118346D1*
G1X265952Y121416D2*
G1X265952Y121843D1*
G1X265952Y123539D2*
G1X265952Y123925D1*
G1X265952Y124940D2*
G1X265952Y126494D1*
G1X265952Y126623D2*
G1X265952Y127109D1*
G1X266052Y73817D2*
G1X266052Y74297D1*
G1X266052Y75546D2*
G1X266052Y76162D1*
G1X266052Y76486D2*
G1X266052Y76967D1*
G1X266052Y77973D2*
G1X266052Y80761D1*
G1X266052Y81942D2*
G1X266052Y82422D1*
G1X266052Y83486D2*
G1X266052Y86275D1*
G1X266052Y87397D2*
G1X266052Y87877D1*
G1X266052Y90155D2*
G1X266052Y90631D1*
G1X266052Y93200D2*
G1X266052Y93681D1*
G1X266052Y95243D2*
G1X266052Y95817D1*
G1X266052Y97379D2*
G1X266052Y97859D1*
G1X266052Y101267D2*
G1X266052Y101748D1*
G1X266052Y104495D2*
G1X266052Y107284D1*
G1X266052Y109567D2*
G1X266052Y110047D1*
G1X266052Y114058D2*
G1X266052Y114463D1*
G1X266052Y115091D2*
G1X266052Y115511D1*
G1X266052Y117924D2*
G1X266052Y118346D1*
G1X266052Y121441D2*
G1X266052Y121859D1*
G1X266052Y123522D2*
G1X266052Y123912D1*
G1X266052Y124853D2*
G1X266052Y126151D1*
G1X266052Y126629D2*
G1X266052Y127109D1*
G1X266152Y73817D2*
G1X266152Y74297D1*
G1X266152Y75611D2*
G1X266152Y76227D1*
G1X266152Y76486D2*
G1X266152Y76967D1*
G1X266152Y77932D2*
G1X266152Y78414D1*
G1X266152Y80320D2*
G1X266152Y80802D1*
G1X266152Y81942D2*
G1X266152Y82422D1*
G1X266152Y83446D2*
G1X266152Y83927D1*
G1X266152Y85834D2*
G1X266152Y86315D1*
G1X266152Y87397D2*
G1X266152Y87877D1*
G1X266152Y90126D2*
G1X266152Y90602D1*
G1X266152Y93200D2*
G1X266152Y93681D1*
G1X266152Y95318D2*
G1X266152Y95897D1*
G1X266152Y97379D2*
G1X266152Y97859D1*
G1X266152Y101267D2*
G1X266152Y101748D1*
G1X266152Y104455D2*
G1X266152Y104936D1*
G1X266152Y106843D2*
G1X266152Y107324D1*
G1X266152Y109567D2*
G1X266152Y110047D1*
G1X266152Y114095D2*
G1X266152Y114495D1*
G1X266152Y115060D2*
G1X266152Y115476D1*
G1X266152Y117924D2*
G1X266152Y118346D1*
G1X266152Y121466D2*
G1X266152Y121876D1*
G1X266152Y123505D2*
G1X266152Y123890D1*
G1X266152Y124773D2*
G1X266152Y125554D1*
G1X266152Y126629D2*
G1X266152Y127109D1*
G1X266252Y73817D2*
G1X266252Y74297D1*
G1X266252Y75676D2*
G1X266252Y76292D1*
G1X266252Y76486D2*
G1X266252Y76967D1*
G1X266252Y77892D2*
G1X266252Y78377D1*
G1X266252Y80357D2*
G1X266252Y80842D1*
G1X266252Y81942D2*
G1X266252Y82422D1*
G1X266252Y83405D2*
G1X266252Y83891D1*
G1X266252Y85870D2*
G1X266252Y86355D1*
G1X266252Y87397D2*
G1X266252Y87877D1*
G1X266252Y90088D2*
G1X266252Y90568D1*
G1X266252Y93200D2*
G1X266252Y93681D1*
G1X266252Y95387D2*
G1X266252Y95977D1*
G1X266252Y97379D2*
G1X266252Y97859D1*
G1X266252Y101267D2*
G1X266252Y101748D1*
G1X266252Y104414D2*
G1X266252Y104900D1*
G1X266252Y106879D2*
G1X266252Y107364D1*
G1X266252Y109567D2*
G1X266252Y110047D1*
G1X266252Y114131D2*
G1X266252Y114528D1*
G1X266252Y115029D2*
G1X266252Y115442D1*
G1X266252Y117924D2*
G1X266252Y118346D1*
G1X266252Y121491D2*
G1X266252Y121894D1*
G1X266252Y123487D2*
G1X266252Y123868D1*
G1X266252Y124703D2*
G1X266252Y125277D1*
G1X266252Y126629D2*
G1X266252Y127109D1*
G1X266352Y73817D2*
G1X266352Y74297D1*
G1X266352Y75741D2*
G1X266352Y76357D1*
G1X266352Y76486D2*
G1X266352Y76967D1*
G1X266352Y77852D2*
G1X266352Y78341D1*
G1X266352Y80393D2*
G1X266352Y80882D1*
G1X266352Y81942D2*
G1X266352Y82422D1*
G1X266352Y83365D2*
G1X266352Y83854D1*
G1X266352Y85906D2*
G1X266352Y86396D1*
G1X266352Y87397D2*
G1X266352Y87877D1*
G1X266352Y90048D2*
G1X266352Y90535D1*
G1X266352Y93200D2*
G1X266352Y93681D1*
G1X266352Y95454D2*
G1X266352Y96045D1*
G1X266352Y97379D2*
G1X266352Y97859D1*
G1X266352Y101267D2*
G1X266352Y101748D1*
G1X266352Y104374D2*
G1X266352Y104863D1*
G1X266352Y106915D2*
G1X266352Y107405D1*
G1X266352Y109567D2*
G1X266352Y110047D1*
G1X266352Y114168D2*
G1X266352Y114565D1*
G1X266352Y114992D2*
G1X266352Y115407D1*
G1X266352Y117924D2*
G1X266352Y118346D1*
G1X266352Y121516D2*
G1X266352Y121914D1*
G1X266352Y123467D2*
G1X266352Y123846D1*
G1X266352Y124675D2*
G1X266352Y125089D1*
G1X266352Y126629D2*
G1X266352Y127109D1*
G1X266452Y73817D2*
G1X266452Y74297D1*
G1X266452Y75806D2*
G1X266452Y76967D1*
G1X266452Y77811D2*
G1X266452Y78305D1*
G1X266452Y80429D2*
G1X266452Y80923D1*
G1X266452Y81942D2*
G1X266452Y82422D1*
G1X266452Y83325D2*
G1X266452Y83818D1*
G1X266452Y85943D2*
G1X266452Y86436D1*
G1X266452Y87397D2*
G1X266452Y87877D1*
G1X266452Y90008D2*
G1X266452Y90502D1*
G1X266452Y93200D2*
G1X266452Y93681D1*
G1X266452Y95520D2*
G1X266452Y96105D1*
G1X266452Y97379D2*
G1X266452Y97859D1*
G1X266452Y101267D2*
G1X266452Y101748D1*
G1X266452Y104334D2*
G1X266452Y104827D1*
G1X266452Y106952D2*
G1X266452Y107445D1*
G1X266452Y109567D2*
G1X266452Y110047D1*
G1X266452Y114205D2*
G1X266452Y114601D1*
G1X266452Y114952D2*
G1X266452Y115373D1*
G1X266452Y117924D2*
G1X266452Y118346D1*
G1X266452Y121544D2*
G1X266452Y121934D1*
G1X266452Y123447D2*
G1X266452Y123823D1*
G1X266452Y124646D2*
G1X266452Y125059D1*
G1X266452Y126609D2*
G1X266452Y127109D1*
G1X266552Y73817D2*
G1X266552Y74297D1*
G1X266552Y75870D2*
G1X266552Y76967D1*
G1X266552Y77771D2*
G1X266552Y78268D1*
G1X266552Y80466D2*
G1X266552Y80963D1*
G1X266552Y81942D2*
G1X266552Y82422D1*
G1X266552Y83285D2*
G1X266552Y83782D1*
G1X266552Y85979D2*
G1X266552Y86476D1*
G1X266552Y87397D2*
G1X266552Y87877D1*
G1X266552Y89937D2*
G1X266552Y90449D1*
G1X266552Y93200D2*
G1X266552Y93681D1*
G1X266552Y95585D2*
G1X266552Y96165D1*
G1X266552Y97379D2*
G1X266552Y97859D1*
G1X266552Y101267D2*
G1X266552Y101748D1*
G1X266552Y104294D2*
G1X266552Y104791D1*
G1X266552Y106988D2*
G1X266552Y107485D1*
G1X266552Y109567D2*
G1X266552Y110047D1*
G1X266552Y114241D2*
G1X266552Y114637D1*
G1X266552Y114912D2*
G1X266552Y115338D1*
G1X266552Y117924D2*
G1X266552Y118346D1*
G1X266552Y121572D2*
G1X266552Y121965D1*
G1X266552Y123416D2*
G1X266552Y123799D1*
G1X266552Y124618D2*
G1X266552Y125034D1*
G1X266552Y126575D2*
G1X266552Y127109D1*
G1X266652Y73817D2*
G1X266652Y74297D1*
G1X266652Y75935D2*
G1X266652Y76967D1*
G1X266652Y77731D2*
G1X266652Y78232D1*
G1X266652Y80502D2*
G1X266652Y81003D1*
G1X266652Y81942D2*
G1X266652Y82422D1*
G1X266652Y83244D2*
G1X266652Y83745D1*
G1X266652Y86016D2*
G1X266652Y86516D1*
G1X266652Y87397D2*
G1X266652Y87877D1*
G1X266652Y89862D2*
G1X266652Y90389D1*
G1X266652Y93200D2*
G1X266652Y93681D1*
G1X266652Y95645D2*
G1X266652Y96225D1*
G1X266652Y97379D2*
G1X266652Y97859D1*
G1X266652Y101267D2*
G1X266652Y101748D1*
G1X266652Y104253D2*
G1X266652Y104754D1*
G1X266652Y107024D2*
G1X266652Y107525D1*
G1X266652Y109567D2*
G1X266652Y110047D1*
G1X266652Y114278D2*
G1X266652Y114674D1*
G1X266652Y114888D2*
G1X266652Y115303D1*
G1X266652Y117924D2*
G1X266652Y118346D1*
G1X266652Y121601D2*
G1X266652Y122015D1*
G1X266652Y123366D2*
G1X266652Y123756D1*
G1X266652Y124605D2*
G1X266652Y125030D1*
G1X266652Y126512D2*
G1X266652Y127109D1*
G1X266752Y73817D2*
G1X266752Y74297D1*
G1X266752Y76000D2*
G1X266752Y76967D1*
G1X266752Y77691D2*
G1X266752Y78195D1*
G1X266752Y80539D2*
G1X266752Y81043D1*
G1X266752Y81942D2*
G1X266752Y82422D1*
G1X266752Y83204D2*
G1X266752Y83709D1*
G1X266752Y86052D2*
G1X266752Y86557D1*
G1X266752Y87397D2*
G1X266752Y87877D1*
G1X266752Y89756D2*
G1X266752Y90329D1*
G1X266752Y93200D2*
G1X266752Y93681D1*
G1X266752Y95705D2*
G1X266752Y96285D1*
G1X266752Y97379D2*
G1X266752Y97859D1*
G1X266752Y101267D2*
G1X266752Y101748D1*
G1X266752Y104213D2*
G1X266752Y104718D1*
G1X266752Y107061D2*
G1X266752Y107566D1*
G1X266752Y109567D2*
G1X266752Y110047D1*
G1X266752Y114314D2*
G1X266752Y114710D1*
G1X266752Y114868D2*
G1X266752Y115269D1*
G1X266752Y117924D2*
G1X266752Y118346D1*
G1X266752Y121629D2*
G1X266752Y122065D1*
G1X266752Y123316D2*
G1X266752Y123713D1*
G1X266752Y124621D2*
G1X266752Y125063D1*
G1X266752Y126437D2*
G1X266752Y127109D1*
G1X266852Y73817D2*
G1X266852Y74297D1*
G1X266852Y76065D2*
G1X266852Y76967D1*
G1X266852Y77650D2*
G1X266852Y78159D1*
G1X266852Y80575D2*
G1X266852Y81084D1*
G1X266852Y81942D2*
G1X266852Y82422D1*
G1X266852Y83164D2*
G1X266852Y83673D1*
G1X266852Y86088D2*
G1X266852Y86597D1*
G1X266852Y87397D2*
G1X266852Y87877D1*
G1X266852Y89606D2*
G1X266852Y90231D1*
G1X266852Y93200D2*
G1X266852Y93681D1*
G1X266852Y95765D2*
G1X266852Y96345D1*
G1X266852Y97379D2*
G1X266852Y97859D1*
G1X266852Y101267D2*
G1X266852Y101748D1*
G1X266852Y104173D2*
G1X266852Y104681D1*
G1X266852Y107097D2*
G1X266852Y107606D1*
G1X266852Y109567D2*
G1X266852Y110047D1*
G1X266852Y114351D2*
G1X266852Y114746D1*
G1X266852Y114848D2*
G1X266852Y115234D1*
G1X266852Y117924D2*
G1X266852Y118346D1*
G1X266852Y121684D2*
G1X266852Y122182D1*
G1X266852Y123200D2*
G1X266852Y123670D1*
G1X266852Y124638D2*
G1X266852Y125121D1*
G1X266852Y126342D2*
G1X266852Y127109D1*
G1X266952Y73817D2*
G1X266952Y74297D1*
G1X266952Y76130D2*
G1X266952Y76967D1*
G1X266952Y77610D2*
G1X266952Y78123D1*
G1X266952Y80611D2*
G1X266952Y81124D1*
G1X266952Y81942D2*
G1X266952Y82422D1*
G1X266952Y83123D2*
G1X266952Y83636D1*
G1X266952Y86125D2*
G1X266952Y86637D1*
G1X266952Y87397D2*
G1X266952Y87877D1*
G1X266952Y89453D2*
G1X266952Y90131D1*
G1X266952Y93200D2*
G1X266952Y93681D1*
G1X266952Y95825D2*
G1X266952Y96405D1*
G1X266952Y97379D2*
G1X266952Y97859D1*
G1X266952Y101267D2*
G1X266952Y101748D1*
G1X266952Y104132D2*
G1X266952Y104645D1*
G1X266952Y107134D2*
G1X266952Y107646D1*
G1X266952Y109567D2*
G1X266952Y110047D1*
G1X266952Y114387D2*
G1X266952Y115200D1*
G1X266952Y117924D2*
G1X266952Y118346D1*
G1X266952Y121744D2*
G1X266952Y122307D1*
G1X266952Y123075D2*
G1X266952Y123622D1*
G1X266952Y124658D2*
G1X266952Y125225D1*
G1X266952Y126190D2*
G1X266952Y127127D1*
G1X267052Y73817D2*
G1X267052Y74297D1*
G1X267052Y76195D2*
G1X267052Y76967D1*
G1X267052Y77570D2*
G1X267052Y78086D1*
G1X267052Y80648D2*
G1X267052Y81164D1*
G1X267052Y81942D2*
G1X267052Y82422D1*
G1X267052Y83083D2*
G1X267052Y83600D1*
G1X267052Y86161D2*
G1X267052Y86678D1*
G1X267052Y87397D2*
G1X267052Y90031D1*
G1X267052Y93200D2*
G1X267052Y93681D1*
G1X267052Y95885D2*
G1X267052Y96465D1*
G1X267052Y97379D2*
G1X267052Y100413D1*
G1X267052Y101267D2*
G1X267052Y103779D1*
G1X267052Y104092D2*
G1X267052Y104609D1*
G1X267052Y107170D2*
G1X267052Y107687D1*
G1X267052Y109567D2*
G1X267052Y110047D1*
G1X267052Y114424D2*
G1X267052Y115165D1*
G1X267052Y117924D2*
G1X267052Y118346D1*
G1X267052Y120013D2*
G1X267052Y120435D1*
G1X267052Y121810D2*
G1X267052Y122591D1*
G1X267052Y122790D2*
G1X267052Y123542D1*
G1X267052Y124718D2*
G1X267052Y125375D1*
G1X267052Y125990D2*
G1X267052Y126518D1*
G1X267052Y126705D2*
G1X267052Y127174D1*
G1X267152Y73817D2*
G1X267152Y74297D1*
G1X267152Y76259D2*
G1X267152Y76967D1*
G1X267152Y77530D2*
G1X267152Y78050D1*
G1X267152Y80684D2*
G1X267152Y81204D1*
G1X267152Y81942D2*
G1X267152Y82422D1*
G1X267152Y83043D2*
G1X267152Y83563D1*
G1X267152Y86197D2*
G1X267152Y86718D1*
G1X267152Y87397D2*
G1X267152Y89860D1*
G1X267152Y93200D2*
G1X267152Y93681D1*
G1X267152Y95945D2*
G1X267152Y96525D1*
G1X267152Y97379D2*
G1X267152Y100413D1*
G1X267152Y101267D2*
G1X267152Y103779D1*
G1X267152Y104052D2*
G1X267152Y104572D1*
G1X267152Y107206D2*
G1X267152Y107727D1*
G1X267152Y109567D2*
G1X267152Y110047D1*
G1X267152Y114460D2*
G1X267152Y115130D1*
G1X267152Y117924D2*
G1X267152Y118346D1*
G1X267152Y120013D2*
G1X267152Y120435D1*
G1X267152Y121950D2*
G1X267152Y123462D1*
G1X267152Y124778D2*
G1X267152Y126393D1*
G1X267152Y126748D2*
G1X267152Y127203D1*
G1X267252Y73817D2*
G1X267252Y74297D1*
G1X267252Y76324D2*
G1X267252Y76967D1*
G1X267252Y77489D2*
G1X267252Y78014D1*
G1X267252Y80720D2*
G1X267252Y81245D1*
G1X267252Y81942D2*
G1X267252Y82422D1*
G1X267252Y83003D2*
G1X267252Y83527D1*
G1X267252Y86234D2*
G1X267252Y86758D1*
G1X267252Y87397D2*
G1X267252Y89635D1*
G1X267252Y93200D2*
G1X267252Y93681D1*
G1X267252Y96005D2*
G1X267252Y96585D1*
G1X267252Y97379D2*
G1X267252Y100413D1*
G1X267252Y101267D2*
G1X267252Y103779D1*
G1X267252Y104012D2*
G1X267252Y104536D1*
G1X267252Y107243D2*
G1X267252Y107767D1*
G1X267252Y109567D2*
G1X267252Y110047D1*
G1X267252Y114497D2*
G1X267252Y115096D1*
G1X267252Y117924D2*
G1X267252Y118346D1*
G1X267252Y120013D2*
G1X267252Y120435D1*
G1X267252Y122090D2*
G1X267252Y123336D1*
G1X267252Y124890D2*
G1X267252Y126237D1*
G1X267252Y126791D2*
G1X267252Y127231D1*
G1X267352Y73817D2*
G1X267352Y74297D1*
G1X267352Y76389D2*
G1X267352Y76967D1*
G1X267352Y77449D2*
G1X267352Y77977D1*
G1X267352Y80757D2*
G1X267352Y81285D1*
G1X267352Y81942D2*
G1X267352Y82422D1*
G1X267352Y82962D2*
G1X267352Y83491D1*
G1X267352Y86270D2*
G1X267352Y86798D1*
G1X267352Y87397D2*
G1X267352Y89131D1*
G1X267352Y93200D2*
G1X267352Y93681D1*
G1X267352Y96065D2*
G1X267352Y96645D1*
G1X267352Y97379D2*
G1X267352Y100413D1*
G1X267352Y101267D2*
G1X267352Y103779D1*
G1X267352Y103971D2*
G1X267352Y104500D1*
G1X267352Y107279D2*
G1X267352Y107807D1*
G1X267352Y109567D2*
G1X267352Y110047D1*
G1X267352Y114533D2*
G1X267352Y115061D1*
G1X267352Y117924D2*
G1X267352Y118346D1*
G1X267352Y120013D2*
G1X267352Y120435D1*
G1X267352Y122322D2*
G1X267352Y123136D1*
G1X267352Y125090D2*
G1X267352Y125946D1*
G1X267352Y126833D2*
G1X267352Y127260D1*
G1X69612Y122650D2*
G54D11*
G1X69612Y122256D1*
G1X80242Y122256D1*
G1X80242Y122650D1*
G1X69612Y128555D2*
G1X69612Y128949D1*
G1X80242Y128949D1*
G1X80242Y128555D1*
G1X44415Y131803D2*
G1X55439Y131803D1*
G1X44415Y144401D2*
G1X55439Y144401D1*
G1X44415Y136921D2*
G1X44415Y139283D1*
G1X71738Y200602D2*
G75*
G3X71738Y200602I-11811J0D1*
G74*
G1X104945Y143485D2*
G1X104945Y168288D1*
G1X94709Y168288D1*
G1X94709Y143485D1*
G1X104945Y143485D1*
G1X94709Y166516D2*
G1X104945Y166516D1*
G1X104945Y167107D2*
G1X94709Y167107D1*
G1X94709Y167698D2*
G1X104945Y167698D1*
G1X73510Y177984D2*
G1X98313Y177984D1*
G1X98313Y188220D1*
G1X73510Y188220D1*
G1X73510Y177984D1*
G1X96541Y188220D2*
G1X96541Y177984D1*
G1X97132Y177984D2*
G1X97132Y188220D1*
G1X97722Y188220D2*
G1X97722Y177984D1*
G1X331541Y186488D2*
G1X331541Y209716D1*
G1X308313Y209716D1*
G1X308313Y186488D1*
G1X331541Y186488D1*
G1X92939Y276901D2*
G1X81915Y276901D1*
G1X92939Y264303D2*
G1X81915Y264303D1*
G1X92939Y271783D2*
G1X92939Y269421D1*
G1X304652Y255701D2*
G1X345203Y255701D1*
G1X345203Y280504D1*
G1X304652Y280504D1*
G1X304652Y255701D1*
G1X73510Y240484D2*
G1X98313Y240484D1*
G1X98313Y250720D1*
G1X73510Y250720D1*
G1X73510Y240484D1*
G1X96541Y250720D2*
G1X96541Y240484D1*
G1X97132Y240484D2*
G1X97132Y250720D1*
G1X97722Y250720D2*
G1X97722Y240484D1*
G1X71738Y228102D2*
G75*
G3X71738Y228102I-11811J0D1*
G74*
G1X234829Y271606D2*
G1X234829Y284598D1*
G1X260026Y284598D1*
G1X260026Y271606D1*
G1X234829Y271606D1*
G1X186710Y146984D2*
G1X211513Y146984D1*
G1X211513Y157220D1*
G1X186710Y157220D1*
G1X186710Y146984D1*
G1X209741Y157220D2*
G1X209741Y146984D1*
G1X210332Y146984D2*
G1X210332Y157220D1*
G1X210922Y157220D2*
G1X210922Y146984D1*
G1X328785Y205779D2*
G75*
G54D16*
G3X328785Y205779I-1181J0D1*
G1X309770Y259638D2*
G3X309770Y259638I-1181J0D1*
G1X239947Y275543D2*
G3X239947Y275543I-1181J0D1*
G1X67545Y129146D2*
G54D27*
G3X67545Y129146I-492J0D1*
G1X334593Y214638D2*
G3X334593Y214638I-493J0D1*
G1X304553Y249992D2*
G3X304553Y249992I-492J0D1*
G1X237033Y266685D2*
G3X237033Y266685I-492J0D1*
G74*
G1X99927Y192602D2*
G54D37*
G1X99927Y191702D1*
G1X74927Y191702D1*
G1X74927Y209502D1*
G1X99927Y209502D1*
G1X99927Y209102D1*
G1X99927Y198102D2*
G1X99927Y203102D1*
G1X99927Y220102D2*
G1X99927Y219202D1*
G1X74927Y219202D1*
G1X74927Y237002D1*
G1X99927Y237002D1*
G1X99927Y236602D1*
G1X99927Y225602D2*
G1X99927Y230602D1*
G1X72966Y117102D2*
G54D38*
G1X76576Y117102D1*
G1X72966Y117102D2*
G1X72966Y117977D1*
G1X73138Y118352D1*
G1X73482Y118602D1*
G1X73826Y118727D1*
G1X74341Y118852D1*
G1X75201Y118852D1*
G1X75716Y118727D1*
G1X76060Y118602D1*
G1X76404Y118352D1*
G1X76576Y117977D1*
G1X76576Y117102D1*
G1X73654Y119977D2*
G1X73482Y120227D1*
G1X72966Y120602D1*
G1X76576Y120602D1*
G1X29818Y129002D2*
G1X33427Y129002D1*
G1X29818Y129002D2*
G1X29818Y130127D1*
G1X29990Y130502D1*
G1X30162Y130627D1*
G1X30505Y130752D1*
G1X30849Y130752D1*
G1X31193Y130627D1*
G1X31365Y130502D1*
G1X31537Y130127D1*
G1X31537Y129002D1*
G1X31537Y129877D2*
G1X33427Y130752D1*
G1X30677Y132002D2*
G1X30505Y132002D1*
G1X30162Y132127D1*
G1X29990Y132252D1*
G1X29818Y132502D1*
G1X29818Y133002D1*
G1X29990Y133252D1*
G1X30162Y133377D1*
G1X30505Y133502D1*
G1X30849Y133502D1*
G1X31193Y133377D1*
G1X31708Y133127D1*
G1X33427Y131877D1*
G1X33427Y133627D1*
G1X266818Y159102D2*
G1X270427Y159102D1*
G1X266818Y159102D2*
G1X266818Y160227D1*
G1X266990Y160602D1*
G1X267162Y160727D1*
G1X267505Y160852D1*
G1X267849Y160852D1*
G1X268193Y160727D1*
G1X268365Y160602D1*
G1X268537Y160227D1*
G1X268537Y159102D1*
G1X268537Y159977D2*
G1X270427Y160852D1*
G1X267505Y161977D2*
G1X267333Y162227D1*
G1X266818Y162602D1*
G1X270427Y162602D1*
G1X267333Y165227D2*
G1X266990Y165102D1*
G1X266818Y164727D1*
G1X266818Y164477D1*
G1X266990Y164102D1*
G1X267505Y163852D1*
G1X268365Y163727D1*
G1X269224Y163727D1*
G1X269912Y163852D1*
G1X270255Y164102D1*
G1X270427Y164477D1*
G1X270427Y164602D1*
G1X270255Y164977D1*
G1X269912Y165227D1*
G1X269396Y165352D1*
G1X269224Y165352D1*
G1X268708Y165227D1*
G1X268365Y164977D1*
G1X268193Y164602D1*
G1X268193Y164477D1*
G1X268365Y164102D1*
G1X268708Y163852D1*
G1X269224Y163727D1*
G1X266818Y149102D2*
G1X270427Y149102D1*
G1X266818Y149102D2*
G1X266818Y150227D1*
G1X266990Y150602D1*
G1X267162Y150727D1*
G1X267505Y150852D1*
G1X267849Y150852D1*
G1X268193Y150727D1*
G1X268365Y150602D1*
G1X268537Y150227D1*
G1X268537Y149102D1*
G1X268537Y149977D2*
G1X270427Y150852D1*
G1X267505Y151977D2*
G1X267333Y152227D1*
G1X266818Y152602D1*
G1X270427Y152602D1*
G1X266818Y155352D2*
G1X266818Y154102D1*
G1X268365Y153977D1*
G1X268193Y154102D1*
G1X268021Y154477D1*
G1X268021Y154852D1*
G1X268193Y155227D1*
G1X268537Y155477D1*
G1X269052Y155602D1*
G1X269396Y155477D1*
G1X269912Y155352D1*
G1X270255Y155102D1*
G1X270427Y154727D1*
G1X270427Y154352D1*
G1X270255Y153977D1*
G1X270083Y153852D1*
G1X269740Y153727D1*
G1X256527Y40412D2*
G1X256527Y36802D1*
G1X256527Y40412D2*
G1X257652Y40412D1*
G1X258027Y40240D1*
G1X258152Y40068D1*
G1X258277Y39724D1*
G1X258277Y39380D1*
G1X258152Y39037D1*
G1X258027Y38865D1*
G1X257652Y38693D1*
G1X256527Y38693D1*
G1X257402Y38693D2*
G1X258277Y36802D1*
G1X259402Y39724D2*
G1X259652Y39896D1*
G1X260027Y40412D1*
G1X260027Y36802D1*
G1X261402Y40412D2*
G1X262777Y40412D1*
G1X262027Y39037D1*
G1X262402Y39037D1*
G1X262652Y38865D1*
G1X262777Y38693D1*
G1X262902Y38177D1*
G1X262902Y37834D1*
G1X262777Y37318D1*
G1X262527Y36974D1*
G1X262152Y36802D1*
G1X261777Y36802D1*
G1X261402Y36974D1*
G1X261277Y37146D1*
G1X261152Y37490D1*
G1X30818Y157002D2*
G1X34427Y157002D1*
G1X30818Y157002D2*
G1X30818Y158127D1*
G1X30990Y158502D1*
G1X31162Y158627D1*
G1X31505Y158752D1*
G1X31849Y158752D1*
G1X32193Y158627D1*
G1X32365Y158502D1*
G1X32537Y158127D1*
G1X32537Y157002D1*
G1X32537Y157877D2*
G1X34427Y158752D1*
G1X30818Y160127D2*
G1X30818Y161502D1*
G1X32193Y160752D1*
G1X32193Y161127D1*
G1X32365Y161377D1*
G1X32537Y161502D1*
G1X33052Y161627D1*
G1X33396Y161627D1*
G1X33912Y161502D1*
G1X34255Y161252D1*
G1X34427Y160877D1*
G1X34427Y160502D1*
G1X34255Y160127D1*
G1X34083Y160002D1*
G1X33740Y159877D1*
G1X287818Y247102D2*
G1X291427Y247102D1*
G1X287818Y247102D2*
G1X287818Y248227D1*
G1X287990Y248602D1*
G1X288162Y248727D1*
G1X288505Y248852D1*
G1X288849Y248852D1*
G1X289193Y248727D1*
G1X289365Y248602D1*
G1X289537Y248227D1*
G1X289537Y247102D1*
G1X289537Y247977D2*
G1X291427Y248852D1*
G1X288505Y249977D2*
G1X288333Y250227D1*
G1X287818Y250602D1*
G1X291427Y250602D1*
G1X289021Y253352D2*
G1X289537Y253227D1*
G1X289880Y252977D1*
G1X290052Y252602D1*
G1X290052Y252477D1*
G1X289880Y252102D1*
G1X289537Y251852D1*
G1X289021Y251727D1*
G1X288849Y251727D1*
G1X288333Y251852D1*
G1X287990Y252102D1*
G1X287818Y252477D1*
G1X287818Y252602D1*
G1X287990Y252977D1*
G1X288333Y253227D1*
G1X289021Y253352D1*
G1X289880Y253352D1*
G1X290740Y253227D1*
G1X291255Y252977D1*
G1X291427Y252602D1*
G1X291427Y252352D1*
G1X291255Y251977D1*
G1X290912Y251852D1*
G1X256318Y245602D2*
G1X259927Y245602D1*
G1X256318Y245602D2*
G1X256318Y246727D1*
G1X256490Y247102D1*
G1X256662Y247227D1*
G1X257005Y247352D1*
G1X257349Y247352D1*
G1X257693Y247227D1*
G1X257865Y247102D1*
G1X258037Y246727D1*
G1X258037Y245602D1*
G1X258037Y246477D2*
G1X259927Y247352D1*
G1X257005Y248477D2*
G1X256833Y248727D1*
G1X256318Y249102D1*
G1X259927Y249102D1*
G1X257177Y250352D2*
G1X257005Y250352D1*
G1X256662Y250477D1*
G1X256490Y250602D1*
G1X256318Y250852D1*
G1X256318Y251352D1*
G1X256490Y251602D1*
G1X256662Y251727D1*
G1X257005Y251852D1*
G1X257349Y251852D1*
G1X257693Y251727D1*
G1X258208Y251477D1*
G1X259927Y250227D1*
G1X259927Y251977D1*
G1X30818Y139102D2*
G1X34427Y139102D1*
G1X30818Y139102D2*
G1X30818Y140227D1*
G1X30990Y140602D1*
G1X31162Y140727D1*
G1X31505Y140852D1*
G1X31849Y140852D1*
G1X32193Y140727D1*
G1X32365Y140602D1*
G1X32537Y140227D1*
G1X32537Y139102D1*
G1X32537Y139977D2*
G1X34427Y140852D1*
G1X31505Y141977D2*
G1X31333Y142227D1*
G1X30818Y142602D1*
G1X34427Y142602D1*
G1X46966Y146102D2*
G1X49544Y146102D1*
G1X50060Y146227D1*
G1X50404Y146477D1*
G1X50576Y146852D1*
G1X50576Y147102D1*
G1X50404Y147477D1*
G1X50060Y147727D1*
G1X49544Y147852D1*
G1X46966Y147852D1*
G1X47654Y148977D2*
G1X47482Y149227D1*
G1X46966Y149602D1*
G1X50576Y149602D1*
G1X319527Y40412D2*
G1X319527Y36802D1*
G1X319527Y40412D2*
G1X320652Y40412D1*
G1X321027Y40240D1*
G1X321152Y40068D1*
G1X321277Y39724D1*
G1X321277Y39380D1*
G1X321152Y39037D1*
G1X321027Y38865D1*
G1X320652Y38693D1*
G1X319527Y38693D1*
G1X320402Y38693D2*
G1X321277Y36802D1*
G1X322527Y39552D2*
G1X322527Y39724D1*
G1X322652Y40068D1*
G1X322777Y40240D1*
G1X323027Y40412D1*
G1X323527Y40412D1*
G1X323777Y40240D1*
G1X323902Y40068D1*
G1X324027Y39724D1*
G1X324027Y39380D1*
G1X323902Y39037D1*
G1X323652Y38521D1*
G1X322402Y36802D1*
G1X324152Y36802D1*
G1X325527Y40412D2*
G1X326902Y40412D1*
G1X326152Y39037D1*
G1X326527Y39037D1*
G1X326777Y38865D1*
G1X326902Y38693D1*
G1X327027Y38177D1*
G1X327027Y37834D1*
G1X326902Y37318D1*
G1X326652Y36974D1*
G1X326277Y36802D1*
G1X325902Y36802D1*
G1X325527Y36974D1*
G1X325402Y37146D1*
G1X325277Y37490D1*
G1X334827Y40612D2*
G1X334827Y37002D1*
G1X334827Y40612D2*
G1X335952Y40612D1*
G1X336327Y40440D1*
G1X336452Y40268D1*
G1X336577Y39924D1*
G1X336577Y39580D1*
G1X336452Y39237D1*
G1X336327Y39065D1*
G1X335952Y38893D1*
G1X334827Y38893D1*
G1X335702Y38893D2*
G1X336577Y37002D1*
G1X337827Y39752D2*
G1X337827Y39924D1*
G1X337952Y40268D1*
G1X338077Y40440D1*
G1X338327Y40612D1*
G1X338827Y40612D1*
G1X339077Y40440D1*
G1X339202Y40268D1*
G1X339327Y39924D1*
G1X339327Y39580D1*
G1X339202Y39237D1*
G1X338952Y38721D1*
G1X337702Y37002D1*
G1X339452Y37002D1*
G1X341827Y40612D2*
G1X340577Y38205D1*
G1X342452Y38205D1*
G1X341827Y40612D2*
G1X341827Y37002D1*
G1X128677Y120977D2*
G1X128333Y120852D1*
G1X127990Y120602D1*
G1X127818Y120352D1*
G1X127818Y119852D1*
G1X127990Y119602D1*
G1X128333Y119352D1*
G1X128677Y119227D1*
G1X129193Y119102D1*
G1X130052Y119102D1*
G1X130568Y119227D1*
G1X130912Y119352D1*
G1X131255Y119602D1*
G1X131427Y119852D1*
G1X131427Y120352D1*
G1X131255Y120602D1*
G1X130912Y120852D1*
G1X130568Y120977D1*
G1X128333Y123602D2*
G1X127990Y123477D1*
G1X127818Y123102D1*
G1X127818Y122852D1*
G1X127990Y122477D1*
G1X128505Y122227D1*
G1X129365Y122102D1*
G1X130224Y122102D1*
G1X130912Y122227D1*
G1X131255Y122477D1*
G1X131427Y122852D1*
G1X131427Y122977D1*
G1X131255Y123352D1*
G1X130912Y123602D1*
G1X130396Y123727D1*
G1X130224Y123727D1*
G1X129708Y123602D1*
G1X129365Y123352D1*
G1X129193Y122977D1*
G1X129193Y122852D1*
G1X129365Y122477D1*
G1X129708Y122227D1*
G1X130224Y122102D1*
G1X116677Y205977D2*
G1X116333Y205852D1*
G1X115990Y205602D1*
G1X115818Y205352D1*
G1X115818Y204852D1*
G1X115990Y204602D1*
G1X116333Y204352D1*
G1X116677Y204227D1*
G1X117193Y204102D1*
G1X118052Y204102D1*
G1X118568Y204227D1*
G1X118912Y204352D1*
G1X119255Y204602D1*
G1X119427Y204852D1*
G1X119427Y205352D1*
G1X119255Y205602D1*
G1X118912Y205852D1*
G1X118568Y205977D1*
G1X115818Y208352D2*
G1X118224Y207102D1*
G1X118224Y208977D1*
G1X115818Y208352D2*
G1X119427Y208352D1*
G1X68818Y212102D2*
G1X72427Y212102D1*
G1X72427Y213602D1*
G1X69505Y214727D2*
G1X69333Y214977D1*
G1X68818Y215352D1*
G1X72427Y215352D1*
G1X348677Y220977D2*
G1X348333Y220852D1*
G1X347990Y220602D1*
G1X347818Y220352D1*
G1X347818Y219852D1*
G1X347990Y219602D1*
G1X348333Y219352D1*
G1X348677Y219227D1*
G1X349193Y219102D1*
G1X350052Y219102D1*
G1X350568Y219227D1*
G1X350912Y219352D1*
G1X351255Y219602D1*
G1X351427Y219852D1*
G1X351427Y220352D1*
G1X351255Y220602D1*
G1X350912Y220852D1*
G1X350568Y220977D1*
G1X348505Y222102D2*
G1X348333Y222352D1*
G1X347818Y222727D1*
G1X351427Y222727D1*
G1X347818Y225102D2*
G1X350224Y223852D1*
G1X350224Y225727D1*
G1X347818Y225102D2*
G1X351427Y225102D1*
G1X78818Y211102D2*
G1X81396Y211102D1*
G1X81912Y211227D1*
G1X82255Y211477D1*
G1X82427Y211852D1*
G1X82427Y212102D1*
G1X82255Y212477D1*
G1X81912Y212727D1*
G1X81396Y212852D1*
G1X78818Y212852D1*
G1X79677Y214102D2*
G1X79505Y214102D1*
G1X79162Y214227D1*
G1X78990Y214352D1*
G1X78818Y214602D1*
G1X78818Y215102D1*
G1X78990Y215352D1*
G1X79162Y215477D1*
G1X79505Y215602D1*
G1X79849Y215602D1*
G1X80193Y215477D1*
G1X80708Y215227D1*
G1X82427Y213977D1*
G1X82427Y215727D1*
G1X106966Y148102D2*
G1X110576Y148102D1*
G1X106966Y148102D2*
G1X106966Y148977D1*
G1X107138Y149352D1*
G1X107482Y149602D1*
G1X107826Y149727D1*
G1X108341Y149852D1*
G1X109201Y149852D1*
G1X109716Y149727D1*
G1X110060Y149602D1*
G1X110404Y149352D1*
G1X110576Y148977D1*
G1X110576Y148102D1*
G1X106966Y152227D2*
G1X109373Y150977D1*
G1X109373Y152852D1*
G1X106966Y152227D2*
G1X110576Y152227D1*
G1X99966Y177777D2*
G1X103576Y177777D1*
G1X99966Y177777D2*
G1X99966Y178652D1*
G1X100138Y179027D1*
G1X100482Y179277D1*
G1X100826Y179402D1*
G1X101341Y179527D1*
G1X102201Y179527D1*
G1X102716Y179402D1*
G1X103060Y179277D1*
G1X103404Y179027D1*
G1X103576Y178652D1*
G1X103576Y177777D1*
G1X100826Y180777D2*
G1X100654Y180777D1*
G1X100310Y180902D1*
G1X100138Y181027D1*
G1X99966Y181277D1*
G1X99966Y181777D1*
G1X100138Y182027D1*
G1X100310Y182152D1*
G1X100654Y182277D1*
G1X100998Y182277D1*
G1X101341Y182152D1*
G1X101857Y181902D1*
G1X103576Y180652D1*
G1X103576Y182402D1*
G1X293966Y183777D2*
G1X296544Y183777D1*
G1X297060Y183902D1*
G1X297404Y184152D1*
G1X297576Y184527D1*
G1X297576Y184777D1*
G1X297404Y185152D1*
G1X297060Y185402D1*
G1X296544Y185527D1*
G1X293966Y185527D1*
G1X293966Y187277D2*
G1X294138Y186902D1*
G1X294482Y186777D1*
G1X294826Y186777D1*
G1X295169Y186902D1*
G1X295341Y187152D1*
G1X295513Y187652D1*
G1X295685Y188027D1*
G1X296029Y188277D1*
G1X296373Y188402D1*
G1X296888Y188402D1*
G1X297232Y188277D1*
G1X297404Y188152D1*
G1X297576Y187777D1*
G1X297576Y187277D1*
G1X297404Y186902D1*
G1X297232Y186777D1*
G1X296888Y186652D1*
G1X296373Y186652D1*
G1X296029Y186777D1*
G1X295685Y187027D1*
G1X295513Y187402D1*
G1X295341Y187902D1*
G1X295169Y188152D1*
G1X294826Y188277D1*
G1X294482Y188277D1*
G1X294138Y188152D1*
G1X293966Y187777D1*
G1X293966Y187277D1*
G1X110818Y104102D2*
G1X113396Y104102D1*
G1X113912Y104227D1*
G1X114255Y104477D1*
G1X114427Y104852D1*
G1X114427Y105102D1*
G1X114255Y105477D1*
G1X113912Y105727D1*
G1X113396Y105852D1*
G1X110818Y105852D1*
G1X110818Y108602D2*
G1X110818Y107352D1*
G1X112365Y107227D1*
G1X112193Y107352D1*
G1X112021Y107727D1*
G1X112021Y108102D1*
G1X112193Y108477D1*
G1X112537Y108727D1*
G1X113052Y108852D1*
G1X113396Y108727D1*
G1X113912Y108602D1*
G1X114255Y108352D1*
G1X114427Y107977D1*
G1X114427Y107602D1*
G1X114255Y107227D1*
G1X114083Y107102D1*
G1X113740Y106977D1*
G1X287818Y277102D2*
G1X291427Y277102D1*
G1X287818Y277102D2*
G1X287818Y278227D1*
G1X287990Y278602D1*
G1X288162Y278727D1*
G1X288505Y278852D1*
G1X288849Y278852D1*
G1X289193Y278727D1*
G1X289365Y278602D1*
G1X289537Y278227D1*
G1X289537Y277102D1*
G1X289537Y277977D2*
G1X291427Y278852D1*
G1X288677Y280102D2*
G1X288505Y280102D1*
G1X288162Y280227D1*
G1X287990Y280352D1*
G1X287818Y280602D1*
G1X287818Y281102D1*
G1X287990Y281352D1*
G1X288162Y281477D1*
G1X288505Y281602D1*
G1X288849Y281602D1*
G1X289193Y281477D1*
G1X289708Y281227D1*
G1X291427Y279977D1*
G1X291427Y281727D1*
G1X288505Y282852D2*
G1X288333Y283102D1*
G1X287818Y283477D1*
G1X291427Y283477D1*
G1X287818Y262102D2*
G1X291427Y262102D1*
G1X287818Y262102D2*
G1X287818Y263227D1*
G1X287990Y263602D1*
G1X288162Y263727D1*
G1X288505Y263852D1*
G1X288849Y263852D1*
G1X289193Y263727D1*
G1X289365Y263602D1*
G1X289537Y263227D1*
G1X289537Y262102D1*
G1X289537Y262977D2*
G1X291427Y263852D1*
G1X288677Y265102D2*
G1X288505Y265102D1*
G1X288162Y265227D1*
G1X287990Y265352D1*
G1X287818Y265602D1*
G1X287818Y266102D1*
G1X287990Y266352D1*
G1X288162Y266477D1*
G1X288505Y266602D1*
G1X288849Y266602D1*
G1X289193Y266477D1*
G1X289708Y266227D1*
G1X291427Y264977D1*
G1X291427Y266727D1*
G1X287818Y268602D2*
G1X287990Y268227D1*
G1X288505Y267977D1*
G1X289365Y267852D1*
G1X289880Y267852D1*
G1X290740Y267977D1*
G1X291255Y268227D1*
G1X291427Y268602D1*
G1X291427Y268852D1*
G1X291255Y269227D1*
G1X290740Y269477D1*
G1X289880Y269602D1*
G1X289365Y269602D1*
G1X288505Y269477D1*
G1X287990Y269227D1*
G1X287818Y268852D1*
G1X287818Y268602D1*
G1X75066Y266652D2*
G1X77644Y266652D1*
G1X78160Y266777D1*
G1X78504Y267027D1*
G1X78676Y267402D1*
G1X78676Y267652D1*
G1X78504Y268027D1*
G1X78160Y268277D1*
G1X77644Y268402D1*
G1X75066Y268402D1*
G1X75066Y270777D2*
G1X77473Y269527D1*
G1X77473Y271402D1*
G1X75066Y270777D2*
G1X78676Y270777D1*
G1X348966Y269102D2*
G1X351544Y269102D1*
G1X352060Y269227D1*
G1X352404Y269477D1*
G1X352576Y269852D1*
G1X352576Y270102D1*
G1X352404Y270477D1*
G1X352060Y270727D1*
G1X351544Y270852D1*
G1X348966Y270852D1*
G1X350169Y273602D2*
G1X350685Y273477D1*
G1X351029Y273227D1*
G1X351201Y272852D1*
G1X351201Y272727D1*
G1X351029Y272352D1*
G1X350685Y272102D1*
G1X350169Y271977D1*
G1X349998Y271977D1*
G1X349482Y272102D1*
G1X349138Y272352D1*
G1X348966Y272727D1*
G1X348966Y272852D1*
G1X349138Y273227D1*
G1X349482Y273477D1*
G1X350169Y273602D1*
G1X351029Y273602D1*
G1X351888Y273477D1*
G1X352404Y273227D1*
G1X352576Y272852D1*
G1X352576Y272602D1*
G1X352404Y272227D1*
G1X352060Y272102D1*
G1X305818Y156102D2*
G1X309427Y156102D1*
G1X305818Y156102D2*
G1X305818Y157227D1*
G1X305990Y157602D1*
G1X306162Y157727D1*
G1X306505Y157852D1*
G1X306849Y157852D1*
G1X307193Y157727D1*
G1X307365Y157602D1*
G1X307537Y157227D1*
G1X307537Y156102D1*
G1X307537Y156977D2*
G1X309427Y157852D1*
G1X306677Y159102D2*
G1X306505Y159102D1*
G1X306162Y159227D1*
G1X305990Y159352D1*
G1X305818Y159602D1*
G1X305818Y160102D1*
G1X305990Y160352D1*
G1X306162Y160477D1*
G1X306505Y160602D1*
G1X306849Y160602D1*
G1X307193Y160477D1*
G1X307708Y160227D1*
G1X309427Y158977D1*
G1X309427Y160727D1*
G1X306677Y161977D2*
G1X306505Y161977D1*
G1X306162Y162102D1*
G1X305990Y162227D1*
G1X305818Y162477D1*
G1X305818Y162977D1*
G1X305990Y163227D1*
G1X306162Y163352D1*
G1X306505Y163477D1*
G1X306849Y163477D1*
G1X307193Y163352D1*
G1X307708Y163102D1*
G1X309427Y161852D1*
G1X309427Y163602D1*
G1X41737Y128402D2*
G1X38127Y128402D1*
G1X41737Y128402D2*
G1X41737Y127277D1*
G1X41565Y126902D1*
G1X41393Y126777D1*
G1X41049Y126652D1*
G1X40705Y126652D1*
G1X40362Y126777D1*
G1X40190Y126902D1*
G1X40018Y127277D1*
G1X40018Y128402D1*
G1X40018Y127527D2*
G1X38127Y126652D1*
G1X41737Y124277D2*
G1X39330Y125527D1*
G1X39330Y123652D1*
G1X41737Y124277D2*
G1X38127Y124277D1*
G1X348818Y252102D2*
G1X352427Y252102D1*
G1X348818Y252102D2*
G1X348818Y253227D1*
G1X348990Y253602D1*
G1X349162Y253727D1*
G1X349505Y253852D1*
G1X349849Y253852D1*
G1X350193Y253727D1*
G1X350365Y253602D1*
G1X350537Y253227D1*
G1X350537Y252102D1*
G1X350537Y252977D2*
G1X352427Y253852D1*
G1X349677Y255102D2*
G1X349505Y255102D1*
G1X349162Y255227D1*
G1X348990Y255352D1*
G1X348818Y255602D1*
G1X348818Y256102D1*
G1X348990Y256352D1*
G1X349162Y256477D1*
G1X349505Y256602D1*
G1X349849Y256602D1*
G1X350193Y256477D1*
G1X350708Y256227D1*
G1X352427Y254977D1*
G1X352427Y256727D1*
G1X348818Y259602D2*
G1X352427Y258352D1*
G1X348818Y257852D2*
G1X348818Y259602D1*
G1X347818Y235102D2*
G1X351427Y235102D1*
G1X347818Y235102D2*
G1X347818Y236227D1*
G1X347990Y236602D1*
G1X348162Y236727D1*
G1X348505Y236852D1*
G1X348849Y236852D1*
G1X349193Y236727D1*
G1X349365Y236602D1*
G1X349537Y236227D1*
G1X349537Y235102D1*
G1X349537Y235977D2*
G1X351427Y236852D1*
G1X348677Y238102D2*
G1X348505Y238102D1*
G1X348162Y238227D1*
G1X347990Y238352D1*
G1X347818Y238602D1*
G1X347818Y239102D1*
G1X347990Y239352D1*
G1X348162Y239477D1*
G1X348505Y239602D1*
G1X348849Y239602D1*
G1X349193Y239477D1*
G1X349708Y239227D1*
G1X351427Y237977D1*
G1X351427Y239727D1*
G1X348333Y242352D2*
G1X347990Y242227D1*
G1X347818Y241852D1*
G1X347818Y241602D1*
G1X347990Y241227D1*
G1X348505Y240977D1*
G1X349365Y240852D1*
G1X350224Y240852D1*
G1X350912Y240977D1*
G1X351255Y241227D1*
G1X351427Y241602D1*
G1X351427Y241727D1*
G1X351255Y242102D1*
G1X350912Y242352D1*
G1X350396Y242477D1*
G1X350224Y242477D1*
G1X349708Y242352D1*
G1X349365Y242102D1*
G1X349193Y241727D1*
G1X349193Y241602D1*
G1X349365Y241227D1*
G1X349708Y240977D1*
G1X350224Y240852D1*
G1X266818Y182102D2*
G1X270427Y182102D1*
G1X266818Y182102D2*
G1X266818Y183227D1*
G1X266990Y183602D1*
G1X267162Y183727D1*
G1X267505Y183852D1*
G1X267849Y183852D1*
G1X268193Y183727D1*
G1X268365Y183602D1*
G1X268537Y183227D1*
G1X268537Y182102D1*
G1X268537Y182977D2*
G1X270427Y183852D1*
G1X267505Y184977D2*
G1X267333Y185227D1*
G1X266818Y185602D1*
G1X270427Y185602D1*
G1X266818Y188477D2*
G1X270427Y187227D1*
G1X266818Y186727D2*
G1X266818Y188477D1*
G1X118818Y34902D2*
G1X122427Y34902D1*
G1X118818Y34902D2*
G1X118818Y36027D1*
G1X118990Y36402D1*
G1X119162Y36527D1*
G1X119505Y36652D1*
G1X119849Y36652D1*
G1X120193Y36527D1*
G1X120365Y36402D1*
G1X120537Y36027D1*
G1X120537Y34902D1*
G1X120537Y35777D2*
G1X122427Y36652D1*
G1X119333Y39277D2*
G1X118990Y39152D1*
G1X118818Y38777D1*
G1X118818Y38527D1*
G1X118990Y38152D1*
G1X119505Y37902D1*
G1X120365Y37777D1*
G1X121224Y37777D1*
G1X121912Y37902D1*
G1X122255Y38152D1*
G1X122427Y38527D1*
G1X122427Y38652D1*
G1X122255Y39027D1*
G1X121912Y39277D1*
G1X121396Y39402D1*
G1X121224Y39402D1*
G1X120708Y39277D1*
G1X120365Y39027D1*
G1X120193Y38652D1*
G1X120193Y38527D1*
G1X120365Y38152D1*
G1X120708Y37902D1*
G1X121224Y37777D1*
G1X76552Y128752D2*
G1X76677Y128409D1*
G1X76927Y128065D1*
G1X77177Y127893D1*
G1X77677Y127893D1*
G1X77927Y128065D1*
G1X78177Y128409D1*
G1X78302Y128752D1*
G1X78427Y129268D1*
G1X78427Y130127D1*
G1X78302Y130643D1*
G1X78177Y130987D1*
G1X77927Y131330D1*
G1X77677Y131502D1*
G1X77177Y131502D1*
G1X76927Y131330D1*
G1X76677Y130987D1*
G1X76552Y130643D1*
G1X75427Y128580D2*
G1X75177Y128409D1*
G1X74802Y127893D1*
G1X74802Y131502D1*
G1X294377Y214677D2*
G1X294033Y214552D1*
G1X293690Y214302D1*
G1X293518Y214052D1*
G1X293518Y213552D1*
G1X293690Y213302D1*
G1X294033Y213052D1*
G1X294377Y212927D1*
G1X294893Y212802D1*
G1X295752Y212802D1*
G1X296268Y212927D1*
G1X296612Y213052D1*
G1X296955Y213302D1*
G1X297127Y213552D1*
G1X297127Y214052D1*
G1X296955Y214302D1*
G1X296612Y214552D1*
G1X296268Y214677D1*
G1X294721Y217427D2*
G1X295237Y217302D1*
G1X295580Y217052D1*
G1X295752Y216677D1*
G1X295752Y216552D1*
G1X295580Y216177D1*
G1X295237Y215927D1*
G1X294721Y215802D1*
G1X294549Y215802D1*
G1X294033Y215927D1*
G1X293690Y216177D1*
G1X293518Y216552D1*
G1X293518Y216677D1*
G1X293690Y217052D1*
G1X294033Y217302D1*
G1X294721Y217427D1*
G1X295580Y217427D1*
G1X296440Y217302D1*
G1X296955Y217052D1*
G1X297127Y216677D1*
G1X297127Y216427D1*
G1X296955Y216052D1*
G1X296612Y215927D1*
G1X329677Y223977D2*
G1X329333Y223852D1*
G1X328990Y223602D1*
G1X328818Y223352D1*
G1X328818Y222852D1*
G1X328990Y222602D1*
G1X329333Y222352D1*
G1X329677Y222227D1*
G1X330193Y222102D1*
G1X331052Y222102D1*
G1X331568Y222227D1*
G1X331912Y222352D1*
G1X332255Y222602D1*
G1X332427Y222852D1*
G1X332427Y223352D1*
G1X332255Y223602D1*
G1X331912Y223852D1*
G1X331568Y223977D1*
G1X329505Y225102D2*
G1X329333Y225352D1*
G1X328818Y225727D1*
G1X332427Y225727D1*
G1X329677Y226977D2*
G1X329505Y226977D1*
G1X329162Y227102D1*
G1X328990Y227227D1*
G1X328818Y227477D1*
G1X328818Y227977D1*
G1X328990Y228227D1*
G1X329162Y228352D1*
G1X329505Y228477D1*
G1X329849Y228477D1*
G1X330193Y228352D1*
G1X330708Y228102D1*
G1X332427Y226852D1*
G1X332427Y228602D1*
G1X316677Y145977D2*
G1X316333Y145852D1*
G1X315990Y145602D1*
G1X315818Y145352D1*
G1X315818Y144852D1*
G1X315990Y144602D1*
G1X316333Y144352D1*
G1X316677Y144227D1*
G1X317193Y144102D1*
G1X318052Y144102D1*
G1X318568Y144227D1*
G1X318912Y144352D1*
G1X319255Y144602D1*
G1X319427Y144852D1*
G1X319427Y145352D1*
G1X319255Y145602D1*
G1X318912Y145852D1*
G1X318568Y145977D1*
G1X316505Y147102D2*
G1X316333Y147352D1*
G1X315818Y147727D1*
G1X319427Y147727D1*
G1X316505Y148852D2*
G1X316333Y149102D1*
G1X315818Y149477D1*
G1X319427Y149477D1*
G1X115677Y228977D2*
G1X115333Y228852D1*
G1X114990Y228602D1*
G1X114818Y228352D1*
G1X114818Y227852D1*
G1X114990Y227602D1*
G1X115333Y227352D1*
G1X115677Y227227D1*
G1X116193Y227102D1*
G1X117052Y227102D1*
G1X117568Y227227D1*
G1X117912Y227352D1*
G1X118255Y227602D1*
G1X118427Y227852D1*
G1X118427Y228352D1*
G1X118255Y228602D1*
G1X117912Y228852D1*
G1X117568Y228977D1*
G1X114818Y231727D2*
G1X114818Y230477D1*
G1X116365Y230352D1*
G1X116193Y230477D1*
G1X116021Y230852D1*
G1X116021Y231227D1*
G1X116193Y231602D1*
G1X116537Y231852D1*
G1X117052Y231977D1*
G1X117396Y231852D1*
G1X117912Y231727D1*
G1X118255Y231477D1*
G1X118427Y231102D1*
G1X118427Y230727D1*
G1X118255Y230352D1*
G1X118083Y230227D1*
G1X117740Y230102D1*
G1X91818Y213102D2*
G1X94396Y213102D1*
G1X94912Y213227D1*
G1X95255Y213477D1*
G1X95427Y213852D1*
G1X95427Y214102D1*
G1X95255Y214477D1*
G1X94912Y214727D1*
G1X94396Y214852D1*
G1X91818Y214852D1*
G1X91818Y216227D2*
G1X91818Y217602D1*
G1X93193Y216852D1*
G1X93193Y217227D1*
G1X93365Y217477D1*
G1X93537Y217602D1*
G1X94052Y217727D1*
G1X94396Y217727D1*
G1X94912Y217602D1*
G1X95255Y217352D1*
G1X95427Y216977D1*
G1X95427Y216602D1*
G1X95255Y216227D1*
G1X95083Y216102D1*
G1X94740Y215977D1*
G1X99966Y240777D2*
G1X103576Y240777D1*
G1X99966Y240777D2*
G1X99966Y241652D1*
G1X100138Y242027D1*
G1X100482Y242277D1*
G1X100826Y242402D1*
G1X101341Y242527D1*
G1X102201Y242527D1*
G1X102716Y242402D1*
G1X103060Y242277D1*
G1X103404Y242027D1*
G1X103576Y241652D1*
G1X103576Y240777D1*
G1X99966Y243902D2*
G1X99966Y245277D1*
G1X101341Y244527D1*
G1X101341Y244902D1*
G1X101513Y245152D1*
G1X101685Y245277D1*
G1X102201Y245402D1*
G1X102544Y245402D1*
G1X103060Y245277D1*
G1X103404Y245027D1*
G1X103576Y244652D1*
G1X103576Y244277D1*
G1X103404Y243902D1*
G1X103232Y243777D1*
G1X102888Y243652D1*
G1X202818Y257102D2*
G1X205396Y257102D1*
G1X205912Y257227D1*
G1X206255Y257477D1*
G1X206427Y257852D1*
G1X206427Y258102D1*
G1X206255Y258477D1*
G1X205912Y258727D1*
G1X205396Y258852D1*
G1X202818Y258852D1*
G1X202818Y261727D2*
G1X206427Y260477D1*
G1X202818Y259977D2*
G1X202818Y261727D1*
G1X66966Y239027D2*
G1X70576Y239027D1*
G1X70576Y240527D1*
G1X67826Y241777D2*
G1X67654Y241777D1*
G1X67310Y241902D1*
G1X67138Y242027D1*
G1X66966Y242277D1*
G1X66966Y242777D1*
G1X67138Y243027D1*
G1X67310Y243152D1*
G1X67654Y243277D1*
G1X67998Y243277D1*
G1X68341Y243152D1*
G1X68857Y242902D1*
G1X70576Y241652D1*
G1X70576Y243402D1*
G1X261966Y275852D2*
G1X262138Y275602D1*
G1X262482Y275352D1*
G1X262826Y275227D1*
G1X263341Y275102D1*
G1X264201Y275102D1*
G1X264716Y275227D1*
G1X265060Y275352D1*
G1X265404Y275602D1*
G1X265576Y275852D1*
G1X265576Y276352D1*
G1X265404Y276602D1*
G1X265060Y276852D1*
G1X264716Y276977D1*
G1X264201Y277102D1*
G1X263341Y277102D1*
G1X262826Y276977D1*
G1X262482Y276852D1*
G1X262138Y276602D1*
G1X261966Y276352D1*
G1X261966Y275852D1*
G1X264888Y276227D2*
G1X265919Y276977D1*
G1X262654Y278227D2*
G1X262482Y278477D1*
G1X261966Y278852D1*
G1X265576Y278852D1*
G1X325602Y174304D2*
G1X325477Y174648D1*
G1X325227Y174991D1*
G1X324977Y175163D1*
G1X324477Y175163D1*
G1X324227Y174991D1*
G1X323977Y174648D1*
G1X323852Y174304D1*
G1X323727Y173788D1*
G1X323727Y172929D1*
G1X323852Y172413D1*
G1X323977Y172069D1*
G1X324227Y171726D1*
G1X324477Y171554D1*
G1X324977Y171554D1*
G1X325227Y171726D1*
G1X325477Y172069D1*
G1X325602Y172413D1*
G1X326727Y174476D2*
G1X326977Y174648D1*
G1X327352Y175163D1*
G1X327352Y171554D1*
G1X328727Y175163D2*
G1X330102Y175163D1*
G1X329352Y173788D1*
G1X329727Y173788D1*
G1X329977Y173616D1*
G1X330102Y173444D1*
G1X330227Y172929D1*
G1X330227Y172585D1*
G1X330102Y172069D1*
G1X329852Y171726D1*
G1X329477Y171554D1*
G1X329102Y171554D1*
G1X328727Y171726D1*
G1X328602Y171898D1*
G1X328477Y172241D1*
G1X98677Y255977D2*
G1X98333Y255852D1*
G1X97990Y255602D1*
G1X97818Y255352D1*
G1X97818Y254852D1*
G1X97990Y254602D1*
G1X98333Y254352D1*
G1X98677Y254227D1*
G1X99193Y254102D1*
G1X100052Y254102D1*
G1X100568Y254227D1*
G1X100912Y254352D1*
G1X101255Y254602D1*
G1X101427Y254852D1*
G1X101427Y255352D1*
G1X101255Y255602D1*
G1X100912Y255852D1*
G1X100568Y255977D1*
G1X98677Y257227D2*
G1X98505Y257227D1*
G1X98162Y257352D1*
G1X97990Y257477D1*
G1X97818Y257727D1*
G1X97818Y258227D1*
G1X97990Y258477D1*
G1X98162Y258602D1*
G1X98505Y258727D1*
G1X98849Y258727D1*
G1X99193Y258602D1*
G1X99708Y258352D1*
G1X101427Y257102D1*
G1X101427Y258852D1*
G1X200926Y213727D2*
G1X200582Y213602D1*
G1X200238Y213352D1*
G1X200066Y213102D1*
G1X200066Y212602D1*
G1X200238Y212352D1*
G1X200582Y212102D1*
G1X200926Y211977D1*
G1X201441Y211852D1*
G1X202301Y211852D1*
G1X202816Y211977D1*
G1X203160Y212102D1*
G1X203504Y212352D1*
G1X203676Y212602D1*
G1X203676Y213102D1*
G1X203504Y213352D1*
G1X203160Y213602D1*
G1X202816Y213727D1*
G1X200066Y216602D2*
G1X203676Y215352D1*
G1X200066Y214852D2*
G1X200066Y216602D1*
G1X144527Y46312D2*
G1X144527Y42702D1*
G1X144527Y46312D2*
G1X145652Y46312D1*
G1X146027Y46140D1*
G1X146152Y45968D1*
G1X146277Y45624D1*
G1X146277Y45280D1*
G1X146152Y44937D1*
G1X146027Y44765D1*
G1X145652Y44593D1*
G1X144527Y44593D1*
G1X145402Y44593D2*
G1X146277Y42702D1*
G1X149152Y46312D2*
G1X147902Y42702D1*
G1X147402Y46312D2*
G1X149152Y46312D1*
G1X349318Y193402D2*
G1X352927Y193402D1*
G1X349318Y193402D2*
G1X349318Y194527D1*
G1X349490Y194902D1*
G1X349662Y195027D1*
G1X350005Y195152D1*
G1X350349Y195152D1*
G1X350693Y195027D1*
G1X350865Y194902D1*
G1X351037Y194527D1*
G1X351037Y193402D1*
G1X351037Y194277D2*
G1X352927Y195152D1*
G1X350177Y196402D2*
G1X350005Y196402D1*
G1X349662Y196527D1*
G1X349490Y196652D1*
G1X349318Y196902D1*
G1X349318Y197402D1*
G1X349490Y197652D1*
G1X349662Y197777D1*
G1X350005Y197902D1*
G1X350349Y197902D1*
G1X350693Y197777D1*
G1X351208Y197527D1*
G1X352927Y196277D1*
G1X352927Y198027D1*
G1X349318Y200777D2*
G1X349318Y199527D1*
G1X350865Y199402D1*
G1X350693Y199527D1*
G1X350521Y199902D1*
G1X350521Y200277D1*
G1X350693Y200652D1*
G1X351037Y200902D1*
G1X351552Y201027D1*
G1X351896Y200902D1*
G1X352412Y200777D1*
G1X352755Y200527D1*
G1X352927Y200152D1*
G1X352927Y199777D1*
G1X352755Y199402D1*
G1X352583Y199277D1*
G1X352240Y199152D1*
G1X115227Y47112D2*
G1X115227Y43502D1*
G1X115227Y47112D2*
G1X116352Y47112D1*
G1X116727Y46940D1*
G1X116852Y46768D1*
G1X116977Y46424D1*
G1X116977Y46080D1*
G1X116852Y45737D1*
G1X116727Y45565D1*
G1X116352Y45393D1*
G1X115227Y45393D1*
G1X116102Y45393D2*
G1X116977Y43502D1*
G1X119727Y47112D2*
G1X118477Y47112D1*
G1X118352Y45565D1*
G1X118477Y45737D1*
G1X118852Y45909D1*
G1X119227Y45909D1*
G1X119602Y45737D1*
G1X119852Y45393D1*
G1X119977Y44877D1*
G1X119852Y44534D1*
G1X119727Y44018D1*
G1X119477Y43674D1*
G1X119102Y43502D1*
G1X118727Y43502D1*
G1X118352Y43674D1*
G1X118227Y43846D1*
G1X118102Y44190D1*
G1X247318Y200102D2*
G1X249037Y201102D1*
G1X250927Y201102D1*
G1X247318Y202102D2*
G1X249037Y201102D1*
G1X248005Y203227D2*
G1X247833Y203477D1*
G1X247318Y203852D1*
G1X250927Y203852D1*
G1X86202Y290652D2*
G1X86077Y290996D1*
G1X85827Y291340D1*
G1X85577Y291512D1*
G1X85077Y291512D1*
G1X84827Y291340D1*
G1X84577Y290996D1*
G1X84452Y290652D1*
G1X84327Y290137D1*
G1X84327Y289277D1*
G1X84452Y288762D1*
G1X84577Y288418D1*
G1X84827Y288074D1*
G1X85077Y287902D1*
G1X85577Y287902D1*
G1X85827Y288074D1*
G1X86077Y288418D1*
G1X86202Y288762D1*
G1X87577Y291512D2*
G1X88952Y291512D1*
G1X88202Y290137D1*
G1X88577Y290137D1*
G1X88827Y289965D1*
G1X88952Y289793D1*
G1X89077Y289277D1*
G1X89077Y288934D1*
G1X88952Y288418D1*
G1X88702Y288074D1*
G1X88327Y287902D1*
G1X87952Y287902D1*
G1X87577Y288074D1*
G1X87452Y288246D1*
G1X87327Y288590D1*
G1X313452Y248152D2*
G1X313577Y247809D1*
G1X313827Y247465D1*
G1X314077Y247293D1*
G1X314577Y247293D1*
G1X314827Y247465D1*
G1X315077Y247809D1*
G1X315202Y248152D1*
G1X315327Y248668D1*
G1X315327Y249527D1*
G1X315202Y250043D1*
G1X315077Y250387D1*
G1X314827Y250730D1*
G1X314577Y250902D1*
G1X314077Y250902D1*
G1X313827Y250730D1*
G1X313577Y250387D1*
G1X313452Y250043D1*
G1X312327Y247980D2*
G1X312077Y247809D1*
G1X311702Y247293D1*
G1X311702Y250902D1*
G1X309827Y247293D2*
G1X310202Y247465D1*
G1X310452Y247980D1*
G1X310577Y248840D1*
G1X310577Y249355D1*
G1X310452Y250215D1*
G1X310202Y250730D1*
G1X309827Y250902D1*
G1X309577Y250902D1*
G1X309202Y250730D1*
G1X308952Y250215D1*
G1X308827Y249355D1*
G1X308827Y248840D1*
G1X308952Y247980D1*
G1X309202Y247465D1*
G1X309577Y247293D1*
G1X309827Y247293D1*
G1X298227Y162093D2*
G1X298227Y165702D1*
G1X298227Y162093D2*
G1X297102Y162093D1*
G1X296727Y162265D1*
G1X296602Y162437D1*
G1X296477Y162780D1*
G1X296477Y163124D1*
G1X296602Y163468D1*
G1X296727Y163640D1*
G1X297102Y163812D1*
G1X298227Y163812D1*
G1X297352Y163812D2*
G1X296477Y165702D1*
G1X295352Y162780D2*
G1X295102Y162609D1*
G1X294727Y162093D1*
G1X294727Y165702D1*
G1X292977Y162093D2*
G1X293352Y162265D1*
G1X293477Y162609D1*
G1X293477Y162952D1*
G1X293352Y163296D1*
G1X293102Y163468D1*
G1X292602Y163640D1*
G1X292227Y163812D1*
G1X291977Y164155D1*
G1X291852Y164499D1*
G1X291852Y165015D1*
G1X291977Y165359D1*
G1X292102Y165530D1*
G1X292477Y165702D1*
G1X292977Y165702D1*
G1X293352Y165530D1*
G1X293477Y165359D1*
G1X293602Y165015D1*
G1X293602Y164499D1*
G1X293477Y164155D1*
G1X293227Y163812D1*
G1X292852Y163640D1*
G1X292352Y163468D1*
G1X292102Y163296D1*
G1X291977Y162952D1*
G1X291977Y162609D1*
G1X292102Y162265D1*
G1X292477Y162093D1*
G1X292977Y162093D1*
G1X273537Y270602D2*
G1X269927Y270602D1*
G1X273537Y270602D2*
G1X273537Y269477D1*
G1X273365Y269102D1*
G1X273193Y268977D1*
G1X272849Y268852D1*
G1X272505Y268852D1*
G1X272162Y268977D1*
G1X271990Y269102D1*
G1X271818Y269477D1*
G1X271818Y270602D1*
G1X271818Y269727D2*
G1X269927Y268852D1*
G1X272849Y267727D2*
G1X273021Y267477D1*
G1X273537Y267102D1*
G1X269927Y267102D1*
G1X273537Y264727D2*
G1X271130Y265977D1*
G1X271130Y264102D1*
G1X273537Y264727D2*
G1X269927Y264727D1*
G1X178627Y153212D2*
G1X178627Y149602D1*
G1X178627Y153212D2*
G1X179502Y153212D1*
G1X179877Y153040D1*
G1X180127Y152696D1*
G1X180252Y152352D1*
G1X180377Y151837D1*
G1X180377Y150977D1*
G1X180252Y150462D1*
G1X180127Y150118D1*
G1X179877Y149774D1*
G1X179502Y149602D1*
G1X178627Y149602D1*
G1X183127Y153212D2*
G1X181877Y153212D1*
G1X181752Y151665D1*
G1X181877Y151837D1*
G1X182252Y152009D1*
G1X182627Y152009D1*
G1X183002Y151837D1*
G1X183252Y151493D1*
G1X183377Y150977D1*
G1X183252Y150634D1*
G1X183127Y150118D1*
G1X182877Y149774D1*
G1X182502Y149602D1*
G1X182127Y149602D1*
G1X181752Y149774D1*
G1X181627Y149946D1*
G1X181502Y150290D1*
G1X24927Y146202D2*
G54D40*
G1X38927Y146202D1*
G1X38927Y138802D1*
G1X24927Y138802D1*
G1X24927Y146202D1*
G1X31927Y145702D2*
G1X31927Y139302D1*
G1X286927Y156902D2*
G1X272927Y156902D1*
G1X272927Y164302D1*
G1X286927Y164302D1*
G1X286927Y156902D1*
G1X279927Y157402D2*
G1X279927Y163802D1*
G1X272927Y156802D2*
G1X286927Y156802D1*
G1X286927Y149402D1*
G1X272927Y149402D1*
G1X272927Y156802D1*
G1X279927Y156302D2*
G1X279927Y149902D1*
G1X279427Y34402D2*
G1X265427Y34402D1*
G1X265427Y41802D1*
G1X279427Y41802D1*
G1X279427Y34402D1*
G1X272427Y34902D2*
G1X272427Y41302D1*
G1X24927Y153702D2*
G1X38927Y153702D1*
G1X38927Y146302D1*
G1X24927Y146302D1*
G1X24927Y153702D1*
G1X31927Y153202D2*
G1X31927Y146802D1*
G1X293727Y243602D2*
G1X293727Y257602D1*
G1X301127Y257602D1*
G1X301127Y243602D1*
G1X293727Y243602D1*
G1X294227Y250602D2*
G1X300627Y250602D1*
G1X261927Y254402D2*
G1X247927Y254402D1*
G1X247927Y261802D1*
G1X261927Y261802D1*
G1X261927Y254402D1*
G1X254927Y254902D2*
G1X254927Y261302D1*
G1X39427Y129402D2*
G1X25427Y129402D1*
G1X25427Y136802D1*
G1X39427Y136802D1*
G1X39427Y129402D1*
G1X32427Y129902D2*
G1X32427Y136302D1*
G1X316927Y34402D2*
G1X302927Y34402D1*
G1X302927Y41802D1*
G1X316927Y41802D1*
G1X316927Y34402D1*
G1X309927Y34902D2*
G1X309927Y41302D1*
G1X344027Y33902D2*
G1X344027Y47902D1*
G1X351427Y47902D1*
G1X351427Y33902D1*
G1X344027Y33902D1*
G1X344527Y40902D2*
G1X350927Y40902D1*
G1X124927Y132202D2*
G1X124927Y114002D1*
G1X114927Y114002D1*
G1X114927Y132202D1*
G1X124927Y132202D1*
G1X120127Y123102D2*
G75*
G3X120127Y123102I-200J0D1*
G74*
G1X112427Y209702D2*
G1X112427Y191502D1*
G1X102427Y191502D1*
G1X102427Y209702D1*
G1X112427Y209702D1*
G1X107627Y200602D2*
G75*
G3X107627Y200602I-200J0D1*
G74*
G1X361127Y230102D2*
G1X361127Y216102D1*
G1X353727Y216102D1*
G1X353727Y230102D1*
G1X361127Y230102D1*
G1X360627Y223102D2*
G1X354227Y223102D1*
G1X112927Y126302D2*
G1X86927Y126302D1*
G1X86927Y111302D1*
G1X112927Y111302D1*
G1X112927Y126302D1*
G1X100127Y118302D2*
G75*
G3X100127Y118302I-200J0D1*
G74*
G1X293727Y273602D2*
G1X293727Y287602D1*
G1X301127Y287602D1*
G1X301127Y273602D1*
G1X293727Y273602D1*
G1X294227Y280602D2*
G1X300627Y280602D1*
G1X293727Y258602D2*
G1X293727Y272602D1*
G1X301127Y272602D1*
G1X301127Y258602D1*
G1X293727Y258602D1*
G1X294227Y265602D2*
G1X300627Y265602D1*
G1X304427Y154402D2*
G1X290427Y154402D1*
G1X290427Y161802D1*
G1X304427Y161802D1*
G1X304427Y154402D1*
G1X297427Y154902D2*
G1X297427Y161302D1*
G1X57127Y121702D2*
G1X43127Y121702D1*
G1X43127Y129102D1*
G1X57127Y129102D1*
G1X57127Y121702D1*
G1X50127Y122202D2*
G1X50127Y128602D1*
G1X361127Y260102D2*
G1X361127Y246102D1*
G1X353727Y246102D1*
G1X353727Y260102D1*
G1X361127Y260102D1*
G1X360627Y253102D2*
G1X354227Y253102D1*
G1X361127Y245102D2*
G1X361127Y231102D1*
G1X353727Y231102D1*
G1X353727Y245102D1*
G1X361127Y245102D1*
G1X360627Y238102D2*
G1X354227Y238102D1*
G1X272927Y189302D2*
G1X286927Y189302D1*
G1X286927Y181902D1*
G1X272927Y181902D1*
G1X272927Y189302D1*
G1X279927Y188802D2*
G1X279927Y182402D1*
G1X125827Y40902D2*
G1X139827Y40902D1*
G1X139827Y33502D1*
G1X125827Y33502D1*
G1X125827Y40902D1*
G1X132827Y40402D2*
G1X132827Y34002D1*
G1X65827Y143002D2*
G1X84027Y143002D1*
G1X84027Y133002D1*
G1X65827Y133002D1*
G1X65827Y143002D1*
G1X75127Y138002D2*
G75*
G3X75127Y138002I-200J0D1*
G74*
G1X291827Y222802D2*
G1X291827Y208802D1*
G1X284427Y208802D1*
G1X284427Y222802D1*
G1X291827Y222802D1*
G1X291327Y215802D2*
G1X284927Y215802D1*
G1X312027Y227302D2*
G1X326027Y227302D1*
G1X326027Y219902D1*
G1X312027Y219902D1*
G1X312027Y227302D1*
G1X319027Y226802D2*
G1X319027Y220402D1*
G1X313727Y153602D2*
G1X313727Y167602D1*
G1X321127Y167602D1*
G1X321127Y153602D1*
G1X313727Y153602D1*
G1X314227Y160602D2*
G1X320627Y160602D1*
G1X112427Y237202D2*
G1X112427Y219002D1*
G1X102427Y219002D1*
G1X102427Y237202D1*
G1X112427Y237202D1*
G1X107627Y228102D2*
G75*
G3X107627Y228102I-200J0D1*
G74*
G1X189927Y272102D2*
G1X229927Y272102D1*
G1X229927Y283902D1*
G1X189927Y283902D1*
G1X189927Y279302D1*
G1X191827Y279302D1*
G1X191827Y276802D1*
G1X189927Y276802D1*
G1X189927Y272102D1*
G1X210127Y278102D2*
G75*
G3X210127Y278102I-200J0D1*
G74*
G1X324827Y151502D2*
G1X324827Y169702D1*
G1X334827Y169702D1*
G1X334827Y151502D1*
G1X324827Y151502D1*
G1X330027Y160602D2*
G75*
G3X330027Y160602I-200J0D1*
G74*
G1X78327Y263102D2*
G1X96527Y263102D1*
G1X96527Y253102D1*
G1X78327Y253102D1*
G1X78327Y263102D1*
G1X87627Y258102D2*
G75*
G3X87627Y258102I-200J0D1*
G74*
G1X213127Y222102D2*
G1X213127Y208102D1*
G1X205727Y208102D1*
G1X205727Y222102D1*
G1X213127Y222102D1*
G1X212627Y215102D2*
G1X206227Y215102D1*
G1X140627Y40902D2*
G1X154627Y40902D1*
G1X154627Y33502D1*
G1X140627Y33502D1*
G1X140627Y40902D1*
G1X147627Y40402D2*
G1X147627Y34002D1*
G1X354727Y189502D2*
G1X354727Y203502D1*
G1X362127Y203502D1*
G1X362127Y189502D1*
G1X354727Y189502D1*
G1X355227Y196502D2*
G1X361627Y196502D1*
G1X110627Y40902D2*
G1X124627Y40902D1*
G1X124627Y33502D1*
G1X110627Y33502D1*
G1X110627Y40902D1*
G1X117627Y40402D2*
G1X117627Y34002D1*
G1X251127Y215502D2*
G75*
G3X251127Y215502I-200J0D1*
G74*
G1X96327Y278102D2*
G1X78127Y278102D1*
G1X78127Y288102D1*
G1X96327Y288102D1*
G1X96327Y278102D1*
G1X87427Y283102D2*
G75*
G3X87427Y283102I-200J0D1*
G74*
G1X316027Y242902D2*
G1X316027Y228902D1*
G1X308627Y228902D1*
G1X308627Y242902D1*
G1X316027Y242902D1*
G1X315527Y235902D2*
G1X309127Y235902D1*
G1X298227Y166502D2*
G1X284227Y166502D1*
G1X284227Y173902D1*
G1X298227Y173902D1*
G1X298227Y166502D1*
G1X291227Y167002D2*
G1X291227Y173402D1*
G1X276927Y254402D2*
G1X262927Y254402D1*
G1X262927Y261802D1*
G1X276927Y261802D1*
G1X276927Y254402D1*
G1X269927Y254902D2*
G1X269927Y261302D1*
G1X224427Y219557D2*
G54D44*
G1X224427Y225002D1*
G1X277427Y225002D1*
G1X277427Y219478D1*
G1X277427Y211368D2*
G1X277427Y206002D1*
G1X224427Y206002D1*
G1X224427Y211289D1*
M2*
