*
%LPD*%
%LNNAIAD-RELAY-MB*%
%FSLAX25Y25*%
%MOIN*%
%AD*%
%AD*%
%ADD19C,0.25*%
%ADD20R,0.065X0.065*%
%ADD21C,0.065*%
%ADD26C,0.06*%
%ADD33R,0.062990157X0.062990157*%
%ADD41R,0.064959843X0.064959843*%
%ADD42C,0.064959843*%
%ADD65C,0.062990157*%
%ADD68C,0.070870079*%
%ADD103R,0.039X0.035*%
%ADD106R,0.062990157X0.125979921*%
%ADD113R,0.098429921X0.055120079*%
%ADD133R,0.062990157X0.16535*%
%ADD229R,0.088579921X0.088579921*%
%ADD230C,0.088579921*%
%ADD231R,0.104329921X0.104329921*%
%ADD232C,0.104329921*%
G54D19*
%SRX1Y1I0.0J0.0*%
G1X67427Y303102D3*
G1X370577Y303102D3*
G1X67427Y35386D3*
G1X370577Y35386D3*
G1X241627Y238602D3*
G1X75301Y157433D3*
G1X370577Y157433D3*
G54D20*
G1X342427Y310602D3*
G1X374827Y137402D3*
G54D21*
G1X332427Y310602D3*
G1X322427Y310602D3*
G1X312427Y310602D3*
G1X302427Y310602D3*
G1X292427Y310602D3*
G1X364827Y137402D3*
G1X374827Y127402D3*
G1X364827Y127402D3*
G1X374827Y117402D3*
G1X364827Y117402D3*
G54D26*
G1X369045Y89402D3*
G1X290305Y89402D3*
G54D33*
G1X62427Y275976D3*
G54D41*
G1X32427Y108102D3*
G1X32427Y210602D3*
G1X114927Y175602D3*
G1X32427Y165602D3*
G1X62127Y58702D3*
G1X347427Y28102D3*
G1X199927Y308102D3*
G1X278027Y28102D3*
G1X207427Y28102D3*
G1X313427Y27802D3*
G1X149927Y28102D3*
G54D42*
G1X32427Y117945D3*
G1X32427Y220445D3*
G1X114927Y185602D3*
G1X144927Y185602D3*
G1X144927Y175602D3*
G1X32427Y175445D3*
G1X62127Y68545D3*
G1X62127Y78702D3*
G1X62127Y88230D3*
G1X62127Y98072D3*
G1X62127Y107915D3*
G1X337585Y28102D3*
G1X209770Y308102D3*
G1X268185Y28102D3*
G1X197585Y28102D3*
G1X187427Y28102D3*
G1X177900Y28102D3*
G1X303585Y27802D3*
G1X140085Y28102D3*
G1X129927Y28102D3*
G1X120400Y28102D3*
G1X110557Y28102D3*
G1X100715Y28102D3*
G54D65*
G1X62427Y268102D3*
G1X62427Y260228D3*
G54D68*
G1X62427Y251961D3*
G1X62427Y284244D3*
G54D103*
G1X29027Y142502D3*
G1X34827Y142502D3*
G1X29027Y150002D3*
G1X34827Y150002D3*
G1X29527Y133102D3*
G1X35327Y133102D3*
G1X277027Y185602D3*
G1X282827Y185602D3*
G54D106*
G1X204927Y167472D3*
G1X204927Y188732D3*
G54D113*
G1X338825Y171744D3*
G1X301030Y171744D3*
G1X301030Y189461D3*
G1X338825Y189461D3*
G54D133*
G1X172427Y163004D3*
G1X172427Y188201D3*
G1X237427Y163004D3*
G1X237427Y188201D3*
G54D229*
G1X216927Y113602D3*
G54D230*
G1X209053Y89980D3*
G1X161022Y89980D3*
G1X161022Y137224D3*
G1X209053Y137224D3*
G54D231*
G1X157627Y299102D3*
G54D232*
G1X137627Y299102D3*
M2*
